<?xml version="1.0" encoding="UTF-8" standalone="no"?>
<!-- Created with Inkscape (http://www.inkscape.org/) -->

<svg
   version="1.1"
   id="svg2"
   width="2560"
   height="1440"
   viewBox="0 0 2560 1440"
   sodipodi:docname="reshot-illustration-data-science-404-error-4WQ6572DT3.eps"
   xmlns:inkscape="http://www.inkscape.org/namespaces/inkscape"
   xmlns:sodipodi="http://sodipodi.sourceforge.net/DTD/sodipodi-0.dtd"
   xmlns="http://www.w3.org/2000/svg"
   xmlns:svg="http://www.w3.org/2000/svg">
  <defs
     id="defs6" />
  <sodipodi:namedview
     id="namedview4"
     pagecolor="#ffffff"
     bordercolor="#000000"
     borderopacity="0.25"
     inkscape:showpageshadow="2"
     inkscape:pageopacity="0.0"
     inkscape:pagecheckerboard="0"
     inkscape:deskcolor="#d1d1d1" />
  <g
     id="g8"
     inkscape:groupmode="layer"
     inkscape:label="ink_ext_XXXXXX"
     transform="matrix(1.3333333,0,0,-1.3333333,0,1440)">
    <g
       id="g10"
       transform="scale(0.1)">
      <!-- <path
         d="M 0,0 H 19200 V 10800 H 0 Z"
         style="fill:#ffffff;fill-opacity:1;fill-rule:nonzero;stroke:none"
         id="path12" /> -->
      <path
         d="m 4604.39,8236.84 v 365.66 c 0.02,38.13 15.34,72.28 40.3,97.3 25.03,24.96 59.17,40.28 97.31,40.3 h 803.67 c 22.09,0 40,17.91 40,40 0,22.09 -17.91,40 -40,40 H 4742 c -59.97,0.02 -114.62,-24.41 -153.88,-63.73 -39.31,-39.25 -63.75,-93.9 -63.73,-153.87 v -365.66 c 0,-22.1 17.91,-40 40,-40 22.1,0 40,17.9 40,40"
         style="fill:#f5eac3;fill-opacity:1;fill-rule:nonzero;stroke:none"
         id="path14" />
      <path
         d="m 15959.2,1110.78 -6359.22,-72.3 -1225.3,13.9 -2738.41,31.21 -824.69,9.39 -526.3,5.9 -1044.5,11.9 c -561.01,6.4 -966.7,539.8 -821.3,1081.7 419.8,1563.8 967.19,3106.91 2062.8,4275 28.99,30.9 58.29,61.4 88,91.6 925.3,941.3 2186.79,1536.8 3496.7,1688.4 392.99,45.4 790.4,50.9 1184.29,13.8 70.11,-6.6 140.31,-11.2 210.51,-13.8 92.1,-3.5 184.29,-3.5 276.39,0 70.21,2.6 140.41,7.2 210.51,13.8 393.92,37.1 791.32,31.6 1184.32,-13.8 1105.3,-127.9 2176.2,-571.9 3039.7,-1273.1 192.7,-156.3 375,-325.5 545.1,-506.9 1095.6,-1168.09 1642.9,-2711.2 2062.7,-4275 145.5,-541.9 -260.2,-1075.3 -821.3,-1081.7"
         style="fill:#f5eac3;fill-opacity:1;fill-rule:nonzero;stroke:none"
         id="path16" />
      <path
         d="m 14172.7,6974.38 -116.4,-4031.96 c 0,-112.21 -91,-203.2 -203.2,-203.2 L 4773.48,2622.88 c -112.21,0 -203.2,91 -203.2,203.2 v 3733 c 925.3,941.3 2186.8,1536.8 3496.7,1688.4 H 11133 c 1105.3,-127.9 2176.2,-571.9 3039.7,-1273.1"
         style="fill:#ebc370;fill-opacity:1;fill-rule:nonzero;stroke:none"
         id="path18" />
      <path
         d="m 14482.1,8270.38 v -5218.2 c 0,-112.2 -91,-203.2 -203.2,-203.2 H 5082.88 c -112.2,0 -203.2,91 -203.2,203.2 v 5218.2 c 0,112.2 91,203.2 203.2,203.2 h 9196.02 c 112.2,0 203.2,-91 203.2,-203.2"
         style="fill:#fbf3f9;fill-opacity:1;fill-rule:nonzero;stroke:none"
         id="path20" />
      <path
         d="m 14482.1,4030 v -977.82 c 0,-112.2 -91,-203.2 -203.2,-203.2 h -1315.3 v 995.1 c 0,119.1 96.6,215.6 215.7,215.6 L 14482.1,4030"
         style="fill:#c5c3df;fill-opacity:1;fill-rule:nonzero;stroke:none"
         id="path22" />
      <path
         d="m 4895.98,1490.68 c -5.2,-111.6 -14.2,-224.9 -53.3,-329.5 -8.71,-23.3 -19.11,-46.2 -31.1,-68.2 l -526.3,5.9 c -35.2,220.1 -19.1,448.3 47.6,661 -230.9,-61.3 -503.71,-3.5 -688,148.6 -44.7,36.8 -86.31,80.8 -104.8,135.7 -18.41,54.9 -8.3,122.6 36.59,159.2 29.8,24.2 69.4,31.6 107.21,38.3 329.69,57.9 659.4,115.7 989.1,173.6 41.6,7.3 86.3,14.2 124.3,-4.2 61,-29.7 75.9,-108.5 82.1,-176 22.5,-247.39 28.1,-496.3 16.6,-744.4"
         style="fill:#ebc370;fill-opacity:1;fill-rule:nonzero;stroke:none"
         id="path24" />
      <path
         d="m 15401.7,3674.18 v -1792.9 c 0,-119.1 -96.5,-215.6 -215.6,-215.6 h -1792.9 c -119.1,0 -215.7,96.5 -215.7,215.6 v 1792.9 c 0,119.1 96.6,215.61 215.7,215.61 h 1792.9 c 119.1,0 215.6,-96.51 215.6,-215.61"
         style="fill:#fbf3f9;fill-opacity:1;fill-rule:nonzero;stroke:none"
         id="path26" />
      <path
         d="m 13058.7,8473.58 v -648.7 H 4879.68 v 445.5 c 0,112.2 91,203.2 203.2,203.2 h 7975.82"
         style="fill:#dc8046;fill-opacity:1;fill-rule:nonzero;stroke:none"
         id="path28" />
      <path
         d="m 14482.1,8270.38 v -445.5 h -1423.4 v 648.7 h 1220.2 c 112.2,0 203.2,-91 203.2,-203.2"
         style="fill:#a05d37;fill-opacity:1;fill-rule:nonzero;stroke:none"
         id="path30" />
      <path
         d="m 14482.1,7824.88 v -363.6 l -1313.5,-58.9 c -60.6,0 -109.9,49.2 -109.9,109.9 v 312.6 h 1423.4"
         style="fill:#c5c3df;fill-opacity:1;fill-rule:nonzero;stroke:none"
         id="path32" />
      <path
         d="m 15048.8,8780.68 v -1181 c 0,-60.7 -49.2,-109.9 -109.9,-109.9 h -1651.5 c -60.6,0 -109.9,49.2 -109.9,109.9 v 1181 c 0,60.7 49.3,109.9 109.9,109.9 h 1651.5 c 60.7,0 109.9,-49.2 109.9,-109.9"
         style="fill:#fbf3f9;fill-opacity:1;fill-rule:nonzero;stroke:none"
         id="path34" />
      <path
         d="m 6184.17,5902.48 v -767.25 c 0,-62.7 -50.8,-113.5 -113.39,-113.5 l -1191.1,22.93 v 971.22 h 1191.1 c 62.59,0 113.39,-50.8 113.39,-113.4"
         style="fill:#c5c3df;fill-opacity:1;fill-rule:nonzero;stroke:none"
         id="path36" />
      <path
         d="m 15048.8,8780.68 v -171.7 h -1871.3 v 171.7 c 0,60.7 49.3,109.9 109.9,109.9 h 1651.5 c 60.7,0 109.9,-49.2 109.9,-109.9"
         style="fill:#f5eac3;fill-opacity:1;fill-rule:nonzero;stroke:none"
         id="path38" />
      <path
         d="m 6098.68,6045.08 v -853.1 c 0,-62.7 -50.8,-113.5 -113.4,-113.5 h -2147 c -62.6,0 -113.4,50.8 -113.4,113.5 v 853.1 c 0,62.6 50.8,113.4 113.4,113.4 h 2147 c 62.6,0 113.4,-50.8 113.4,-113.4"
         style="fill:#fbf3f9;fill-opacity:1;fill-rule:nonzero;stroke:none"
         id="path40" />
      <path
         d="m 6098.68,6045.08 v -105.1 h -2373.8 v 105.1 c 0,62.6 50.8,113.4 113.4,113.4 h 2147 c 62.6,0 113.4,-50.8 113.4,-113.4"
         style="fill:#c5c3df;fill-opacity:1;fill-rule:nonzero;stroke:none"
         id="path42" />
      <path
         d="m 15401.7,3674.18 v -290.5 h -2224.2 v 290.5 c 0,119.1 96.6,215.61 215.7,215.61 h 1792.9 c 119.1,0 215.6,-96.51 215.6,-215.61"
         style="fill:#dc8046;fill-opacity:1;fill-rule:nonzero;stroke:none"
         id="path44" />
      <g
         id="g46"
         transform="scale(10)">
        <text
           xml:space="preserve"
           transform="matrix(1,0,0,-1,431.572,543.522)"
           style="font-variant:normal;font-weight:bold;font-size:36.3119px;font-family:Poppins;-inkscape-font-specification:Poppins-Bold;writing-mode:lr-tb;fill:#dc8046;fill-opacity:1;fill-rule:nonzero;stroke:none"
           id="text50"><tspan
             x="0 19.644737 43.319561 66.994385 95.535538"
             y="0"
             sodipodi:role="line"
             id="tspan48">ERROR</tspan></text>
      </g>
      <path
         d="m 14859.9,2585.24 c 0,314.98 -255.3,570.34 -570.3,570.34 -315,0 -570.3,-255.36 -570.3,-570.34 0,-314.98 255.3,-570.32 570.3,-570.32 315,0 570.3,255.34 570.3,570.32"
         style="fill:#dc8046;fill-opacity:1;fill-rule:nonzero;stroke:none"
         id="path52" />
      <path
         d="m 14738.7,2585.24 c 0,248.05 -201.1,449.13 -449.1,449.13 -248.1,0 -449.1,-201.08 -449.1,-449.13 0,-248.03 201,-449.12 449.1,-449.12 248,0 449.1,201.09 449.1,449.12"
         style="fill:#fbf3f9;fill-opacity:1;fill-rule:nonzero;stroke:none"
         id="path54" />
      <path
         d="m 14340,2585.24 199.1,199.12 c 13.9,13.92 13.9,36.49 0,50.41 -13.9,13.91 -36.5,13.91 -50.4,0 l -199.1,-199.12 -199.1,199.12 c -14,13.91 -36.5,13.91 -50.4,0 -14,-13.92 -14,-36.49 0,-50.41 l 199.1,-199.12 -199.1,-199.1 c -14,-13.92 -14,-36.49 0,-50.41 13.9,-13.92 36.4,-13.92 50.4,0 l 199.1,199.11 199.1,-199.11 c 13.9,-13.92 36.5,-13.92 50.4,0 13.9,13.92 13.9,36.49 0,50.41 l -199.1,199.1"
         style="fill:#dc8046;fill-opacity:1;fill-rule:nonzero;stroke:none"
         id="path56" />
      <path
         d="m 15243.7,5648.78 99.5,99.56 c 7,6.96 7,18.24 0,25.2 -6.9,6.96 -18.2,6.96 -25.2,0 l -99.5,-99.55 -99.6,99.55 c -6.9,6.96 -18.2,6.96 -25.2,0 -6.9,-6.96 -6.9,-18.24 0,-25.2 l 99.6,-99.56 -99.6,-99.55 c -6.9,-6.96 -6.9,-18.24 0,-25.21 7,-6.95 18.3,-6.95 25.2,0 l 99.6,99.56 99.5,-99.56 c 7,-6.95 18.3,-6.95 25.2,0 7,6.97 7,18.25 0,25.21 l -99.5,99.55"
         style="fill:#dc8046;fill-opacity:1;fill-rule:nonzero;stroke:none"
         id="path58" />
      <path
         d="m 5867.25,7402.38 99.56,99.56 c 6.95,6.96 6.95,18.24 0,25.2 -6.97,6.96 -18.25,6.96 -25.21,0 l -99.55,-99.56 -99.56,99.56 c -6.96,6.96 -18.24,6.96 -25.2,0 -6.96,-6.96 -6.96,-18.24 0,-25.2 l 99.55,-99.56 -99.55,-99.55 c -6.96,-6.97 -6.96,-18.25 0,-25.21 6.96,-6.96 18.24,-6.96 25.2,0 l 99.56,99.56 99.55,-99.56 c 6.96,-6.96 18.24,-6.96 25.21,0 6.95,6.96 6.95,18.24 0,25.21 l -99.56,99.55"
         style="fill:#ebc370;fill-opacity:1;fill-rule:nonzero;stroke:none"
         id="path60" />
      <path
         d="m 8600.89,1840.3 99.55,99.55 c 6.97,6.97 6.97,18.26 0,25.21 -6.95,6.96 -18.24,6.96 -25.2,0 l -99.55,-99.55 -99.56,99.55 c -6.96,6.96 -18.24,6.96 -25.2,0 -6.96,-6.95 -6.96,-18.24 0,-25.21 l 99.55,-99.55 -99.55,-99.55 c -6.96,-6.96 -6.96,-18.25 0,-25.2 6.96,-6.97 18.24,-6.97 25.2,0 l 99.56,99.55 99.55,-99.55 c 6.96,-6.97 18.25,-6.97 25.2,0 6.97,6.95 6.97,18.24 0,25.2 l -99.55,99.55"
         style="fill:#dc8046;fill-opacity:1;fill-rule:nonzero;stroke:none"
         id="path62" />
      <path
         d="m 13550.6,3636.73 c 0,36.75 -29.8,66.53 -66.5,66.53 -36.8,0 -66.6,-29.78 -66.6,-66.53 0,-36.75 29.8,-66.53 66.6,-66.53 36.7,0 66.5,29.78 66.5,66.53"
         style="fill:#fbf3f9;fill-opacity:1;fill-rule:nonzero;stroke:none"
         id="path64" />
      <path
         d="m 13800.1,3636.73 c 0,36.75 -29.8,66.53 -66.5,66.53 -36.8,0 -66.6,-29.78 -66.6,-66.53 0,-36.75 29.8,-66.53 66.6,-66.53 36.7,0 66.5,29.78 66.5,66.53"
         style="fill:#fbf3f9;fill-opacity:1;fill-rule:nonzero;stroke:none"
         id="path66" />
      <path
         d="m 13484.1,8749.78 c 0,36.75 -29.8,66.53 -66.6,66.53 -36.7,0 -66.5,-29.78 -66.5,-66.53 0,-36.75 29.8,-66.53 66.5,-66.53 36.8,0 66.6,29.78 66.6,66.53"
         style="fill:#fbf3f9;fill-opacity:1;fill-rule:nonzero;stroke:none"
         id="path68" />
      <path
         d="m 5495.12,8149.23 c 0,36.75 -29.79,66.54 -66.54,66.54 -36.74,0 -66.53,-29.79 -66.53,-66.54 0,-36.74 29.79,-66.53 66.53,-66.53 36.75,0 66.54,29.79 66.54,66.53"
         style="fill:#fbf3f9;fill-opacity:1;fill-rule:nonzero;stroke:none"
         id="path70" />
      <path
         d="m 5908.58,8149.23 c 0,36.75 -29.79,66.54 -66.53,66.54 -36.75,0 -66.54,-29.79 -66.54,-66.54 0,-36.74 29.79,-66.53 66.54,-66.53 36.74,0 66.53,29.79 66.53,66.53"
         style="fill:#fbf3f9;fill-opacity:1;fill-rule:nonzero;stroke:none"
         id="path72" />
      <path
         d="m 3969.6,6049.23 c 0,36.75 -29.79,66.54 -66.53,66.54 -36.75,0 -66.54,-29.79 -66.54,-66.54 0,-36.74 29.79,-66.53 66.54,-66.53 36.74,0 66.53,29.79 66.53,66.53"
         style="fill:#fbf3f9;fill-opacity:1;fill-rule:nonzero;stroke:none"
         id="path74" />
      <path
         d="m 4219.11,6049.23 c 0,36.75 -29.79,66.54 -66.54,66.54 -36.74,0 -66.53,-29.79 -66.53,-66.54 0,-36.74 29.79,-66.53 66.53,-66.53 36.75,0 66.54,29.79 66.54,66.53"
         style="fill:#fbf3f9;fill-opacity:1;fill-rule:nonzero;stroke:none"
         id="path76" />
      <path
         d="m 13527.7,8282.32 406.4,-338.61 c 16.5,-13.76 41,-11.98 55.3,4.01 l 191.4,213.38 351.8,-299.11 c 16.8,-14.32 42,-12.28 56.3,4.55 14.4,16.83 12.3,42.07 -4.5,56.39 l -381.4,324.35 c -16.5,14.08 -41.2,12.41 -55.7,-3.76 l -191.7,-213.67 -376.7,313.93 c -16.9,14.14 -42.2,11.85 -56.3,-5.12 -14.1,-16.97 -11.8,-42.19 5.1,-56.34"
         style="fill:#dc8046;fill-opacity:1;fill-rule:nonzero;stroke:none"
         id="path78" />
      <path
         d="m 14483.6,7826.61 140.6,140.55 c 11.1,11.14 30.2,3.88 31.1,-11.85 l 9.2,-159.87 h -168 c -16.3,0 -24.4,19.67 -12.9,31.17"
         style="fill:#dc8046;fill-opacity:1;fill-rule:nonzero;stroke:none"
         id="path80" />
      <path
         d="m 2923.66,2868.94 -136.08,-177.16 c 0,0 -576.27,-402.6 -1058.25,164.04 0,0 415.84,375.13 1194.33,13.12"
         style="fill:#fbf3f9;fill-opacity:1;fill-rule:nonzero;stroke:none"
         id="path82" />
      <path
         d="M 3181.37,3204.5 3045.3,3027.32 c -550.62,658.69 -295.46,1157.22 -295.46,1157.22 671.85,-319.42 431.53,-980.04 431.53,-980.04"
         style="fill:#fbf3f9;fill-opacity:1;fill-rule:nonzero;stroke:none"
         id="path84" />
      <path
         d="m 2642.87,2974 c -62.61,17.51 -122.22,30.08 -178.62,38.51 -298.23,177.1 -648.16,467.83 -650.75,857.99 55.57,14.43 111.11,21.06 166.03,21.06 292.1,0 569.7,-186.86 776.91,-377.45 9.76,-27.34 20.84,-55.37 33.33,-83.92 -51.17,-151.05 -100,-303.24 -146.9,-456.19"
         style="fill:#fdf9fc;fill-opacity:1;fill-rule:nonzero;stroke:none"
         id="path86" />
      <path
         d="m 2879.74,2811.77 43.92,57.17 c -99.59,46.32 -193.18,80.54 -280.79,105.06 46.9,152.95 95.73,305.14 146.9,456.19 54.44,-124.44 135.99,-259.86 255.53,-402.87 l 66.09,86.06 11.65,-218.77 1.67,-31.16 -24.56,-5.22 -220.41,-46.46"
         style="fill:#faf1e8;fill-opacity:1;fill-rule:nonzero;stroke:none"
         id="path88" />
      <path
         d="m 2879.74,2811.77 c 0,0 -193.41,68.86 -415.49,200.74 56.4,-8.43 116.01,-21 178.62,-38.51 87.61,-24.52 181.2,-58.74 280.79,-105.06 l -43.92,-57.17 v 0"
         style="fill:#fbf3f9;fill-opacity:1;fill-rule:nonzero;stroke:none"
         id="path90" />
      <path
         d="m 3045.3,3027.32 c -119.54,143.01 -201.09,278.43 -255.53,402.87 -12.49,28.55 -23.57,56.58 -33.33,83.92 215.66,-198.36 354.95,-400.73 354.95,-400.73 v 0 l -66.09,-86.06"
         style="fill:#fbf3f9;fill-opacity:1;fill-rule:nonzero;stroke:none"
         id="path92" />
      <path
         d="m 3123.04,2894.61 1.67,-31.16 -24.56,-5.22 c -61.79,45.8 -122.32,93.57 -183.31,140.4 -122.77,94.3 -245.54,188.59 -368.25,282.96 -60.61,46.67 -121.3,93.41 -182.04,140.07 -30.24,23.35 -60.61,46.68 -90.74,70.32 -15.81,12.27 -31.46,24.54 -47.21,36.89 -15.73,12.34 -32.71,23.23 -44.93,39.18 -10.41,13.53 4.58,33.04 20.34,26.48 20.67,-8.55 37.65,-24.37 55.45,-37.79 16.62,-12.51 33.18,-25.11 49.8,-37.62 34.58,-26.05 68.78,-52.45 103.18,-78.74 122.83,-94.22 245.78,-188.27 368.49,-282.64 114.05,-87.59 229.9,-173.16 342.11,-263.13"
         style="fill:#f5eac3;fill-opacity:1;fill-rule:nonzero;stroke:none"
         id="path94" />
      <path
         d="m 2944.67,3818.79 c 12.11,-24.94 12.97,-55.35 17.52,-82.42 4.65,-27.28 9.64,-54.44 14.98,-81.62 19.29,-97.53 43.5,-194.06 72.52,-289.1 23.65,-77.54 51.51,-153.41 79.24,-229.43 l -23.76,-30.94 c -18.38,41.74 -34.67,84.39 -49.68,127.56 -33.02,94.59 -61.26,190.79 -84.73,288.14 -11.8,48.65 -22.36,97.61 -31.6,146.82 -4.6,24.22 -8.86,48.55 -12.85,72.91 -3.98,24.37 -10.78,50.15 -6.46,74.83 2.21,13.05 19.15,14.92 24.82,3.25"
         style="fill:#f5eac3;fill-opacity:1;fill-rule:nonzero;stroke:none"
         id="path96" />
      <path
         d="m 2863.66,2790.83 -23.82,-31.01 c -80.54,7.26 -161.08,14.53 -242.05,17.46 -99.37,3.43 -198.87,1.93 -298.08,-4.59 -27.58,-1.77 -55.11,-3.96 -82.72,-6.58 -27.27,-2.51 -56.87,-9.53 -84.09,-4.25 -12.79,2.38 -15.36,19.22 -3.26,24.81 22.72,10.55 49.39,10.62 73.96,13.06 24.57,2.44 49.11,4.52 73.75,6.39 49.87,3.69 99.9,6.12 150.02,7.35 100.03,2.35 200.33,-0.04 300.23,-7.54 45.53,-3.44 90.94,-8.19 136.06,-15.1"
         style="fill:#f5eac3;fill-opacity:1;fill-rule:nonzero;stroke:none"
         id="path98" />
      <path
         d="M 3727.23,3380.77 2780.25,2147.78 c -22.08,-28.74 -63.28,-34.15 -92.03,-12.07 l -154.09,118.35 c -28.74,22.08 -34.15,63.28 -12.07,92.02 l 946.98,1232.99 c 22.08,28.75 63.28,34.15 92.03,12.08 l 154.09,-118.35 c 28.75,-22.08 34.15,-63.28 12.07,-92.03"
         style="fill:#ebc370;fill-opacity:1;fill-rule:nonzero;stroke:none"
         id="path100" />
      <path
         d="m 2868.72,2263.04 536.65,-353.28 299.71,-199.03 657.31,855.83 -517.76,499.24 -205.93,199.77 -769.98,-1002.53"
         style="fill:#ebc370;fill-opacity:1;fill-rule:nonzero;stroke:none"
         id="path102" />
      <path
         d="m 3693.11,3212.79 -556.06,-1126.39 -268.33,176.64 769.98,1002.53 54.41,-52.78"
         style="fill:#dc8046;fill-opacity:1;fill-rule:nonzero;stroke:none"
         id="path104" />
      <path
         d="m 7230.38,2848.98 h -2147.5 c -112.2,0 -203.2,91 -203.2,203.2 v 346.1 c 128.5,53.3 448.4,180.5 687.9,227.8 306.59,60.6 861.44,-55.89 861.44,-55.89 l -803.44,745.09 56.8,134.8 c 0,0 718.1,-417.7 765.6,-451 47.6,-33.2 537.1,-461 560.79,-570.3 23.81,-109.3 147.41,-402.3 147.41,-402.3 0,0 31,-73.79 74.2,-177.5"
         style="fill:#c5c3df;fill-opacity:1;fill-rule:nonzero;stroke:none"
         id="path106" />
      <path
         d="m 5823.87,4591.23 -92.66,60.62 c -18.08,60.77 -55.71,140.06 -85.48,211.91 -8.08,19.52 -37.21,11.96 -34.86,-9.02 3.71,-33.05 9.69,-66.17 11.71,-91.26 -50.33,68.39 -110.39,138.16 -160.72,206.56 -5.11,6.95 -10.43,14.09 -17.87,18.46 -11,6.47 -28.02,5.37 -30.84,-12.72 -1.07,-6.93 0.72,-14 3.99,-20.19 l 65.62,-124.48 c -66.17,46.68 -116.48,100.7 -171.82,139.53 -20.04,14.07 -45.86,-7.57 -35.36,-29.69 24.34,-51.33 86.56,-135.02 117.49,-173.13 l -159.14,49.32 c -15.75,4.87 -25.42,-16.8 -11.28,-25.27 53.98,-32.3 114.36,-64.34 157.8,-86.12 -41.27,-8.32 -82.82,-41.73 -100.24,-80.07 83.33,16.99 175.34,-28.2 212.86,-104.51 68.61,-2.01 136.32,-27.42 189.31,-71.04 46.44,48.61 95.05,92.49 141.49,141.1"
         style="fill:#dc8046;fill-opacity:1;fill-rule:nonzero;stroke:none"
         id="path108" />
      <path
         d="m 7365.78,3139.79 -0.1,-0.11 c -6.4,-33.3 -15.3,-66.2 -26.8,-98.5 -85.6,-239.5 -334.8,-423.89 -587,-391.6 140.7,-534.2 290.7,-1063.5 432.4,-1597.2 l -2738.4,31.2 c -5.4,289.3 21.5,584.5 72.1,867.2 -191.7,-55.7 -387.4,-111.9 -586.9,-104.6 -199.5,7.3 -407,89.1 -515.9,256.4 -121.2,186.1 -95.9,431.2 -34.8,644.8 152.8,534.91 393.3,911.1 862.8,1209.5 172.3,-76.69 276.2,-251.3 344.3,-427.09 -162,-175.11 -209.2,-278.31 -336.6,-480 280.5,154.39 576.7,280 882.7,374.39 299.4,92.2 574.9,149.5 887.2,124.5 147.4,-11.9 284.7,-5.7 432.6,-6.5 -182.4,210.3 -583.16,657.19 -806.86,822.79 -27.5,167.31 145.82,246.89 219.66,238.91 278.6,-74.09 553.6,-181.1 801.3,-328.6 218.5,-130.09 425,-291.3 561.6,-505.7 118.3,-185.6 178.1,-416 136.7,-629.79"
         style="fill:#fbf3f9;fill-opacity:1;fill-rule:nonzero;stroke:none"
         id="path110" />
      <path
         d="m 5625.61,4315.27 c 21.45,106.64 6.34,226.27 -65.44,307.99 -71.79,81.72 -208.05,108.94 -292.48,40.36 -119.41,49.55 -244.71,94.81 -373.94,91.01 -129.22,-3.8 -264.23,-66.88 -319.25,-183.87 -25.48,-54.2 -32.15,-115.03 -38.46,-174.57 -6.74,-63.46 -13.47,-126.91 -20.2,-190.36 -6.73,-63.4 -13.45,-126.79 -20.18,-190.18 -8.25,-77.72 -16.48,-156.47 -4.74,-233.75 11.73,-77.27 45.88,-154.2 108.06,-201.56 81.8,-62.29 198.03,-62.2 294.21,-25.89 96.19,36.31 176.94,103.6 255.69,169.68 110.92,93.1 239.29,180.41 337.76,286.71 71.86,77.58 118.57,202.96 138.97,304.43"
         style="fill:#4b2866;fill-opacity:1;fill-rule:nonzero;stroke:none"
         id="path112" />
      <path
         d="m 4936.85,3139.82 c 0,0 525.32,-1423.85 230.58,-2064.46 l 1164.25,-13.26 c 0,0 -196.95,1548.57 -866,2024.18 l -528.83,53.54"
         style="fill:#ebc370;fill-opacity:1;fill-rule:nonzero;stroke:none"
         id="path114" />
      <path
         d="m 5555.45,4051.69 c 24.77,-119.06 49.68,-239.68 43.82,-361.15 -5.86,-121.48 -45.98,-245.91 -133.91,-329.92 -87.31,-83.41 -218.35,-118.21 -335.53,-89.1 -117.18,29.11 -216.7,121.19 -254.82,235.76 -20.14,60.51 -59.65,150.84 -68.58,213.99 -57.4,-20.66 -127.98,6.73 -156.42,60.69 -28.43,53.98 -11.1,127.68 38.4,163.33 49.5,35.66 124.9,28.73 167.07,-15.34 130.04,17.65 239.94,96.22 301.25,212.25 128.83,-65.49 307.55,5.67 356.11,141.79 13.25,-76.01 26.9,-156.75 42.61,-232.3"
         style="fill:#dc8046;fill-opacity:1;fill-rule:nonzero;stroke:none"
         id="path116" />
      <path
         d="m 5465.68,3086.28 c -100.1,-33 -210.9,-54.5 -316.3,-57 -35.1,-0.8 -70.8,0.2 -104.6,9.8 -33.8,9.6 -65.9,28.7 -85.4,57.9 -71.7,107.2 -35.7,251.1 -47.5,379.5 161.7,-16.5 324,-55.1 485.7,-71.6 1.8,-29.9 4.8,-59.69 9.1,-89.3 5.3,-37.4 12.7,-74.6 21.9,-111.3 10.1,-40 22.5,-79.49 37.1,-118"
         style="fill:#dc8046;fill-opacity:1;fill-rule:nonzero;stroke:none"
         id="path118" />
      <path
         d="m 5428.58,3204.28 c -439.6,-89.2 -456.1,169.9 -456.1,169.9 152.1,-185.4 434.2,-58.6 434.2,-58.6 5.3,-37.4 12.7,-74.6 21.9,-111.3"
         style="fill:#c3652d;fill-opacity:1;fill-rule:nonzero;stroke:none"
         id="path120" />
      <path
         d="m 4272.76,3919.63 125.71,105.78 c -20.44,89.31 -40.36,189.23 -60.8,278.54 -1.89,8.23 -3.78,16.81 -1.9,25.05 1.88,8.25 8.71,16.01 17.16,16.02 10.48,0 17.21,-10.78 21.85,-20.18 20.16,-40.87 40.32,-81.73 60.48,-122.6 -10.25,89.15 0.42,196.58 21.91,289.52 3.18,13.74 22.82,13.7 26.1,-0.02 l 50.03,-209.01 c -7.12,94.54 5.1,218.94 30.15,319.39 3.3,13.25 22.21,12.88 24.84,-0.53 l 68.65,-350.45 c 29.04,59.21 58.85,113.67 90.58,163.4 6.72,10.54 23.25,5.7 23.1,-6.79 -1.05,-83.52 -17.65,-166.84 -48.81,-244.34 l 131.42,50.71 c 9.99,3.86 18.84,-7.68 12.53,-16.34 l -230.67,-316 c -66.44,-91.02 -165.9,-156.25 -248.91,-232.45 -20.45,100.12 -42.45,196.75 -113.42,270.3"
         style="fill:#dc8046;fill-opacity:1;fill-rule:nonzero;stroke:none"
         id="path122" />
      <path
         d="m 7366.45,3139.68 c -6.4,-33.3 -15.3,-66.2 -26.8,-98.5 -85.6,-239.5 -334.8,-423.89 -587,-391.6 0,0 -250.1,426 -563.4,599.8 240,-108.2 922.8,-380.9 1177.2,-109.7"
         style="fill:#c5c3df;fill-opacity:1;fill-rule:nonzero;stroke:none"
         id="path124" />
      <path
         d="m 11890.7,1840.3 c 0,-96.44 -78.2,-174.62 -174.6,-174.62 -96.4,0 -174.6,78.18 -174.6,174.62 0,96.44 78.2,174.62 174.6,174.62 96.4,0 174.6,-78.18 174.6,-174.62"
         style="fill:#ebc370;fill-opacity:1;fill-rule:nonzero;stroke:none"
         id="path126" />
      <path
         d="m 11783.8,1840.3 c 0,-37.4 -30.3,-67.72 -67.7,-67.72 -37.4,0 -67.7,30.32 -67.7,67.72 0,37.41 30.3,67.73 67.7,67.73 37.4,0 67.7,-30.32 67.7,-67.73"
         style="fill:#f5eac3;fill-opacity:1;fill-rule:nonzero;stroke:none"
         id="path128" />
      <path
         d="m 11213.6,2848.98 v -223.6 c 0,-185.3 -150.3,-335.59 -335.5,-335.59 H 8105.85 c -185.29,0 -335.49,150.29 -335.49,335.59 v 223.6 h 3443.24"
         style="fill:#ebc370;fill-opacity:1;fill-rule:nonzero;stroke:none"
         id="path130" />
      <path
         d="m 11281.3,3194.28 v -345.3 H 7838.08 v 345.3 c 0,185.3 150.2,335.51 335.49,335.51 h 2772.23 c 185.3,0 335.5,-150.21 335.5,-335.51"
         style="fill:#c5c3df;fill-opacity:1;fill-rule:nonzero;stroke:none"
         id="path132" />
      <path
         d="m 3610.5,7579.79 c 0,-337.1 -273.28,-610.39 -610.39,-610.39 -337.11,0 -610.38,273.29 -610.38,610.39 0,337.11 273.27,610.39 610.38,610.39 337.11,0 610.39,-273.28 610.39,-610.39"
         style="fill:#f5eac3;fill-opacity:1;fill-rule:nonzero;stroke:none"
         id="path134" />
      <path
         d="m 2121.81,4384.33 c 0,-76.26 -61.83,-138.09 -138.09,-138.09 -76.27,0 -138.1,61.83 -138.1,138.09 0,76.27 61.83,138.09 138.1,138.09 76.26,0 138.09,-61.82 138.09,-138.09"
         style="fill:#f5eac3;fill-opacity:1;fill-rule:nonzero;stroke:none"
         id="path136" />
      <path
         d="m 16948.4,6158.48 c 0,-76.27 -61.9,-138.09 -138.1,-138.09 -76.3,0 -138.1,61.82 -138.1,138.09 0,76.27 61.8,138.09 138.1,138.09 76.2,0 138.1,-61.82 138.1,-138.09"
         style="fill:#f5eac3;fill-opacity:1;fill-rule:nonzero;stroke:none"
         id="path138" />
      <g
         id="g140"
         transform="scale(10)">
        <text
           xml:space="preserve"
           transform="matrix(1,0,0,-1,757.461,480.117)"
           style="font-variant:normal;font-weight:bold;font-size:210px;font-family:Poppins;-inkscape-font-specification:Poppins-Bold;writing-mode:lr-tb;fill:#dc8046;fill-opacity:1;fill-rule:nonzero;stroke:none"
           id="text144"><tspan
             x="0 142.16698 279.086"
             y="0"
             sodipodi:role="line"
             id="tspan142">404</tspan></text>
      </g>
      <path
         d="M 11067,2414.38 H 8294.8 c -185.29,0 -335.51,150.22 -335.51,335.52 v 568.94 c 0,185.3 150.22,335.51 335.51,335.51 H 11067 c 185.2,0 335.5,-150.21 335.5,-335.51 V 2749.9 c 0,-185.3 -150.3,-335.52 -335.5,-335.52"
         style="fill:#4b2866;fill-opacity:1;fill-rule:nonzero;stroke:none"
         id="path146" />
      <g
         id="g148"
         transform="scale(10)">
        <text
           xml:space="preserve"
           transform="matrix(1,0,0,-1,882.274,295.018)"
           style="font-variant:normal;font-weight:500;font-size:30px;font-family:Poppins;-inkscape-font-specification:Poppins-Medium;writing-mode:lr-tb;fill:#ffffff;fill-opacity:1;fill-rule:nonzero;stroke:none"
           id="text152"><tspan
             x="0 18.9 39.240002 57.239414 73.859413 81.659416 102.80883 121.94883 153.11824"
             y="0"
             sodipodi:role="line"
             id="tspan150">Back Home</tspan></text>
      </g>
    </g>
  </g>
</svg>
