<?xml version="1.0" encoding="UTF-8" standalone="no"?>
<!-- Created with Inkscape (http://www.inkscape.org/) -->

<svg
   version="1.1"
   id="svg2"
   width="1449.9467"
   height="939.53333"
   viewBox="0 0 1449.9467 939.53333"
   sodipodi:docname="reshot-illustration-lost-person-404-illustration-AR9W5F3LQC (1).eps"
   xmlns:inkscape="http://www.inkscape.org/namespaces/inkscape"
   xmlns:sodipodi="http://sodipodi.sourceforge.net/DTD/sodipodi-0.dtd"
   xmlns="http://www.w3.org/2000/svg"
   xmlns:svg="http://www.w3.org/2000/svg">
  <defs
     id="defs6">
    <clipPath
       clipPathUnits="userSpaceOnUse"
       id="clipPath24">
      <path
         d="m 4141.39,123.121 c 0,0 -926.26,1384.809 -617.42,1901.889 308.84,517.06 840.45,-943.44 971.1,-1727.428 z"
         id="path22" />
    </clipPath>
    <linearGradient
       x1="0"
       y1="0"
       x2="1"
       y2="0"
       gradientUnits="userSpaceOnUse"
       gradientTransform="matrix(1341.82,-343.147,-343.147,-1341.82,3316.95,1280.87)"
       spreadMethod="pad"
       id="linearGradient30">
      <stop
         style="stop-opacity:1;stop-color:#8cbfe9"
         offset="0"
         id="stop26" />
      <stop
         style="stop-opacity:1;stop-color:#5f5db4"
         offset="1"
         id="stop28" />
    </linearGradient>
    <clipPath
       clipPathUnits="userSpaceOnUse"
       id="clipPath40">
      <path
         d="m 4415.42,236.398 c 0,0 -435.12,1146.982 -131.91,1481.232 303.2,334.24 445.39,-811.482 411.66,-1404.278 z"
         id="path38" />
    </clipPath>
    <linearGradient
       x1="0"
       y1="0"
       x2="1"
       y2="0"
       gradientUnits="userSpaceOnUse"
       gradientTransform="matrix(898.991,-443.96,-460.852,-933.197,4016.03,1202.51)"
       spreadMethod="pad"
       id="linearGradient46">
      <stop
         style="stop-opacity:1;stop-color:#8cbfe9"
         offset="0"
         id="stop42" />
      <stop
         style="stop-opacity:1;stop-color:#5f5db4"
         offset="1"
         id="stop44" />
    </linearGradient>
    <clipPath
       clipPathUnits="userSpaceOnUse"
       id="clipPath56">
      <path
         d="m 7234.79,16.9297 c 0,0 622.24,930.2813 414.77,1277.6403 -207.47,347.34 -564.59,-633.781 -652.35,-1160.441 z"
         id="path54" />
    </clipPath>
    <linearGradient
       x1="0"
       y1="0"
       x2="1"
       y2="0"
       gradientUnits="userSpaceOnUse"
       gradientTransform="matrix(-901.4,-230.517,230.517,-901.4,7788.63,794.67)"
       spreadMethod="pad"
       id="linearGradient62">
      <stop
         style="stop-opacity:1;stop-color:#8cbfe9"
         offset="0"
         id="stop58" />
      <stop
         style="stop-opacity:1;stop-color:#5f5db4"
         offset="1"
         id="stop60" />
    </linearGradient>
    <clipPath
       clipPathUnits="userSpaceOnUse"
       id="clipPath72">
      <path
         d="m 7050.71,93.0313 c 0,0 292.31,770.5077 88.62,995.0487 -203.69,224.53 -299.2,-545.139 -276.55,-943.361 z"
         id="path70" />
    </clipPath>
    <linearGradient
       x1="0"
       y1="0"
       x2="1"
       y2="0"
       gradientUnits="userSpaceOnUse"
       gradientTransform="matrix(-603.918,-298.24,309.588,-626.896,7319.01,742.04)"
       spreadMethod="pad"
       id="linearGradient78">
      <stop
         style="stop-opacity:1;stop-color:#8cbfe9"
         offset="0"
         id="stop74" />
      <stop
         style="stop-opacity:1;stop-color:#5f5db4"
         offset="1"
         id="stop76" />
    </linearGradient>
    <clipPath
       clipPathUnits="userSpaceOnUse"
       id="clipPath88">
      <path
         d="M 10670.2,0 C 10283,114.52 10039.8,283.02 9757.37,426.039 9506.29,553.18 9280.13,728.84 9019.13,834.141 8758.13,939.43 8437.7,962.051 8213.37,792.09 8034.91,656.871 7946.54,423.07 7757.3,303.41 7431.4,97.3203 7010.04,326.09 6710.39,568.77 6410.75,811.461 6051.6,1093.03 5682.32,982.039 5542.98,940.148 5426.57,846.148 5303.65,768.301 4998.35,574.93 4612.4,476.25 4270.16,592.301 3811.98,747.66 3474.44,1260.19 2991.96,1224.45 2687.29,1201.87 2450.22,961.199 2243.74,736.039 2032.37,505.551 1821,232.281 1609.63,1.78906 Z"
         id="path86" />
    </clipPath>
    <linearGradient
       x1="0"
       y1="0"
       x2="1"
       y2="0"
       gradientUnits="userSpaceOnUse"
       gradientTransform="matrix(-5453.41,-64.5374,-64.5374,5453.41,8264.69,629.82)"
       spreadMethod="pad"
       id="linearGradient94">
      <stop
         style="stop-opacity:1;stop-color:#4bbf6c"
         offset="0"
         id="stop90" />
      <stop
         style="stop-opacity:1;stop-color:#70cc88"
         offset="1"
         id="stop92" />
    </linearGradient>
    <clipPath
       clipPathUnits="userSpaceOnUse"
       id="clipPath104">
      <path
         d="M 5619.04,6822.79 V 0.160156 h 342.2 V 6822.79 c 0,94.5 -76.6,171.1 -171.1,171.1 -94.5,0 -171.1,-76.6 -171.1,-171.1 z"
         id="path102" />
    </clipPath>
    <linearGradient
       x1="0"
       y1="0"
       x2="1"
       y2="0"
       gradientUnits="userSpaceOnUse"
       gradientTransform="matrix(342.201,0,0,-342.201,5619.04,3497.03)"
       spreadMethod="pad"
       id="linearGradient110">
      <stop
         style="stop-opacity:1;stop-color:#26173d"
         offset="0"
         id="stop106" />
      <stop
         style="stop-opacity:1;stop-color:#623a8a"
         offset="1"
         id="stop108" />
    </linearGradient>
    <clipPath
       clipPathUnits="userSpaceOnUse"
       id="clipPath120">
      <path
         d="m 6830.1,7035.82 77.21,-27.89 -46.48,-128.7 -77.22,27.9 z"
         id="path118" />
    </clipPath>
    <linearGradient
       x1="0"
       y1="0"
       x2="1"
       y2="0"
       gradientUnits="userSpaceOnUse"
       gradientTransform="matrix(123.705,0,0,-123.705,6783.61,6957.53)"
       spreadMethod="pad"
       id="linearGradient126">
      <stop
         style="stop-opacity:1;stop-color:#d572bf"
         offset="0"
         id="stop122" />
      <stop
         style="stop-opacity:1;stop-color:#964bab"
         offset="1"
         id="stop124" />
    </linearGradient>
    <clipPath
       clipPathUnits="userSpaceOnUse"
       id="clipPath136">
      <path
         d="m 7015.84,4012.97 -545.46,-980.1 c -30.54,-54.89 -99.78,-74.61 -154.66,-44.08 l -1643.01,914.38 c -24.41,13.59 -42.97,35.68 -52.13,62.08 l -282.05,812.55 c -22.57,65.01 17.32,135 84.75,148.72 l 826.35,168.19 c 26.6,5.42 54.26,1.13 77.98,-12.06 l 1644.16,-915.02 c 54.88,-30.54 74.61,-99.78 44.07,-154.66 z"
         id="path134" />
    </clipPath>
    <linearGradient
       x1="0"
       y1="0"
       x2="1"
       y2="0"
       gradientUnits="userSpaceOnUse"
       gradientTransform="matrix(2698.02,0,0,-2698.02,4332.19,4035.71)"
       spreadMethod="pad"
       id="linearGradient142">
      <stop
         style="stop-opacity:1;stop-color:#f14196"
         offset="0"
         id="stop138" />
      <stop
         style="stop-opacity:1;stop-color:#f57d92"
         offset="1"
         id="stop140" />
    </linearGradient>
    <clipPath
       clipPathUnits="userSpaceOnUse"
       id="clipPath152">
      <path
         d="m 5210.34,2925.93 -243.29,-698.47 c -13.62,-39.11 7.04,-81.86 46.14,-95.48 l 1170.9,-407.85 c 17.4,-6.06 36.42,-5.5 53.43,1.56 l 523.79,217.56 c 41.9,17.41 58.87,67.75 36.04,106.96 l -279.66,480.63 c -9.01,15.48 -23.25,27.22 -40.15,33.11 l -1171.72,408.14 c -39.11,13.62 -81.86,-7.05 -95.48,-46.16 z"
         id="path150" />
    </clipPath>
    <linearGradient
       x1="0"
       y1="0"
       x2="1"
       y2="0"
       gradientUnits="userSpaceOnUse"
       gradientTransform="matrix(1844.7,0,0,-1844.7,4962.85,2348.12)"
       spreadMethod="pad"
       id="linearGradient158">
      <stop
         style="stop-opacity:1;stop-color:#8cbfe9"
         offset="0"
         id="stop154" />
      <stop
         style="stop-opacity:1;stop-color:#5f5db4"
         offset="1"
         id="stop156" />
    </linearGradient>
    <clipPath
       clipPathUnits="userSpaceOnUse"
       id="clipPath168">
      <path
         d="m 5534.28,5598.06 -135.61,-427.57 c -7.59,-23.94 5.66,-49.5 29.6,-57.1 l 716.78,-227.32 c 10.64,-3.38 22.17,-2.72 32.36,1.86 l 313.83,140.8 c 25.11,11.27 34.53,42.07 20.03,65.45 l -177.73,286.62 c -5.72,9.22 -14.55,16.1 -24.9,19.38 l -717.27,227.48 c -23.94,7.59 -49.5,-5.66 -57.09,-29.6 z"
         id="path166" />
    </clipPath>
    <linearGradient
       x1="0"
       y1="0"
       x2="1"
       y2="0"
       gradientUnits="userSpaceOnUse"
       gradientTransform="matrix(1121.58,0,0,-1121.58,5396.53,5256.87)"
       spreadMethod="pad"
       id="linearGradient174">
      <stop
         style="stop-opacity:1;stop-color:#8cbfe9"
         offset="0"
         id="stop170" />
      <stop
         style="stop-opacity:1;stop-color:#5f5db4"
         offset="1"
         id="stop172" />
    </linearGradient>
    <clipPath
       clipPathUnits="userSpaceOnUse"
       id="clipPath184">
      <path
         d="m 4936.79,6463.64 138.51,-808.87 c 7.76,-45.29 50.75,-75.72 96.05,-67.96 l 1355.95,232.2 c 20.15,3.45 38.32,14.19 51.05,30.18 l 391.93,492.34 c 31.35,39.38 20.82,97.38 -22.38,123.22 l -529.5,316.7 c -17.05,10.19 -37.18,13.95 -56.75,10.6 l -1356.9,-232.37 c -45.29,-7.75 -75.72,-50.75 -67.96,-96.04 z"
         id="path182" />
    </clipPath>
    <linearGradient
       x1="0"
       y1="0"
       x2="1"
       y2="0"
       gradientUnits="userSpaceOnUse"
       gradientTransform="matrix(2052.82,0,0,-2052.82,4935.58,6189.42)"
       spreadMethod="pad"
       id="linearGradient190">
      <stop
         style="stop-opacity:1;stop-color:#d572bf"
         offset="0"
         id="stop186" />
      <stop
         style="stop-opacity:1;stop-color:#964bab"
         offset="1"
         id="stop188" />
    </linearGradient>
    <clipPath
       clipPathUnits="userSpaceOnUse"
       id="clipPath200">
      <path
         d="m 4276.26,5447.78 149.66,73.25 122.07,-249.43 -149.65,-73.25 z"
         id="path198" />
    </clipPath>
    <linearGradient
       x1="0"
       y1="0"
       x2="1"
       y2="0"
       gradientUnits="userSpaceOnUse"
       gradientTransform="matrix(271.73,0,0,-271.73,4276.27,5359.69)"
       spreadMethod="pad"
       id="linearGradient206">
      <stop
         style="stop-opacity:1;stop-color:#f14196"
         offset="0"
         id="stop202" />
      <stop
         style="stop-opacity:1;stop-color:#f57d92"
         offset="1"
         id="stop204" />
    </linearGradient>
    <clipPath
       clipPathUnits="userSpaceOnUse"
       id="clipPath216">
      <path
         d="m 4036.42,5193.71 73.37,113.97 189.96,-122.3 -73.38,-113.97 z"
         id="path214" />
    </clipPath>
    <linearGradient
       x1="0"
       y1="0"
       x2="1"
       y2="0"
       gradientUnits="userSpaceOnUse"
       gradientTransform="matrix(263.334,0,0,-263.334,4036.41,5189.54)"
       spreadMethod="pad"
       id="linearGradient222">
      <stop
         style="stop-opacity:1;stop-color:#f14196"
         offset="0"
         id="stop218" />
      <stop
         style="stop-opacity:1;stop-color:#f57d92"
         offset="1"
         id="stop220" />
    </linearGradient>
    <clipPath
       clipPathUnits="userSpaceOnUse"
       id="clipPath232">
      <path
         d="m 3973.85,4815.67 -8.15,135.31 225.52,13.58 8.14,-135.31 z"
         id="path230" />
    </clipPath>
    <linearGradient
       x1="0"
       y1="0"
       x2="1"
       y2="0"
       gradientUnits="userSpaceOnUse"
       gradientTransform="matrix(233.659,0,0,-233.659,3965.7,4890.12)"
       spreadMethod="pad"
       id="linearGradient238">
      <stop
         style="stop-opacity:1;stop-color:#f14196"
         offset="0"
         id="stop234" />
      <stop
         style="stop-opacity:1;stop-color:#f57d92"
         offset="1"
         id="stop236" />
    </linearGradient>
    <clipPath
       clipPathUnits="userSpaceOnUse"
       id="clipPath248">
      <path
         d="m 7030.18,6907.82 62.16,-53.63 -89.38,-103.6 -62.17,53.62 z"
         id="path246" />
    </clipPath>
    <linearGradient
       x1="0"
       y1="0"
       x2="1"
       y2="0"
       gradientUnits="userSpaceOnUse"
       gradientTransform="matrix(151.548,0,0,-151.548,6940.79,6829.2)"
       spreadMethod="pad"
       id="linearGradient254">
      <stop
         style="stop-opacity:1;stop-color:#d572bf"
         offset="0"
         id="stop250" />
      <stop
         style="stop-opacity:1;stop-color:#964bab"
         offset="1"
         id="stop252" />
    </linearGradient>
    <clipPath
       clipPathUnits="userSpaceOnUse"
       id="clipPath264">
      <path
         d="m 7216.92,6719.76 27.59,-77.33 -128.88,-45.98 -27.58,77.32 z"
         id="path262" />
    </clipPath>
    <linearGradient
       x1="0"
       y1="0"
       x2="1"
       y2="0"
       gradientUnits="userSpaceOnUse"
       gradientTransform="matrix(156.468,0,0,-156.468,7088.05,6658.1)"
       spreadMethod="pad"
       id="linearGradient270">
      <stop
         style="stop-opacity:1;stop-color:#d572bf"
         offset="0"
         id="stop266" />
      <stop
         style="stop-opacity:1;stop-color:#964bab"
         offset="1"
         id="stop268" />
    </linearGradient>
    <clipPath
       clipPathUnits="userSpaceOnUse"
       id="clipPath280">
      <path
         d="m 5897.08,6181.16 c 0,-59.05 -47.88,-106.94 -106.94,-106.94 -59.06,0 -106.94,47.89 -106.94,106.94 0,59.07 47.88,106.94 106.94,106.94 59.06,0 106.94,-47.87 106.94,-106.94 z"
         id="path278" />
    </clipPath>
    <linearGradient
       x1="0"
       y1="0"
       x2="1"
       y2="0"
       gradientUnits="userSpaceOnUse"
       gradientTransform="matrix(213.875,0,0,-213.875,5683.2,6181.16)"
       spreadMethod="pad"
       id="linearGradient286">
      <stop
         style="stop-opacity:1;stop-color:#26173d"
         offset="0"
         id="stop282" />
      <stop
         style="stop-opacity:1;stop-color:#623a8a"
         offset="1"
         id="stop284" />
    </linearGradient>
    <clipPath
       clipPathUnits="userSpaceOnUse"
       id="clipPath296">
      <path
         d="m 5897.08,4106.57 c 0,-59.06 -47.88,-106.94 -106.94,-106.94 -59.06,0 -106.94,47.88 -106.94,106.94 0,59.06 47.88,106.94 106.94,106.94 59.06,0 106.94,-47.88 106.94,-106.94 z"
         id="path294" />
    </clipPath>
    <linearGradient
       x1="0"
       y1="0"
       x2="1"
       y2="0"
       gradientUnits="userSpaceOnUse"
       gradientTransform="matrix(213.875,0,0,-213.875,5683.2,4106.57)"
       spreadMethod="pad"
       id="linearGradient302">
      <stop
         style="stop-opacity:1;stop-color:#26173d"
         offset="0"
         id="stop298" />
      <stop
         style="stop-opacity:1;stop-color:#623a8a"
         offset="1"
         id="stop300" />
    </linearGradient>
    <clipPath
       clipPathUnits="userSpaceOnUse"
       id="clipPath312">
      <path
         d="m 5854.31,2342.09 c 0,-41.33 -33.52,-74.85 -74.87,-74.85 -41.33,0 -74.85,33.52 -74.85,74.85 0,41.35 33.52,74.87 74.85,74.87 41.35,0 74.87,-33.52 74.87,-74.87 z"
         id="path310" />
    </clipPath>
    <linearGradient
       x1="0"
       y1="0"
       x2="1"
       y2="0"
       gradientUnits="userSpaceOnUse"
       gradientTransform="matrix(149.713,0,0,-149.713,5704.59,2342.1)"
       spreadMethod="pad"
       id="linearGradient318">
      <stop
         style="stop-opacity:1;stop-color:#26173d"
         offset="0"
         id="stop314" />
      <stop
         style="stop-opacity:1;stop-color:#623a8a"
         offset="1"
         id="stop316" />
    </linearGradient>
    <clipPath
       clipPathUnits="userSpaceOnUse"
       id="clipPath328">
      <path
         d="m 5832.92,5282.89 c 0,-23.63 -19.16,-42.78 -42.78,-42.78 -23.63,0 -42.78,19.15 -42.78,42.78 0,23.62 19.15,42.77 42.78,42.77 23.62,0 42.78,-19.15 42.78,-42.77 z"
         id="path326" />
    </clipPath>
    <linearGradient
       x1="0"
       y1="0"
       x2="1"
       y2="0"
       gradientUnits="userSpaceOnUse"
       gradientTransform="matrix(85.5502,0,0,-85.5502,5747.37,5282.89)"
       spreadMethod="pad"
       id="linearGradient334">
      <stop
         style="stop-opacity:1;stop-color:#26173d"
         offset="0"
         id="stop330" />
      <stop
         style="stop-opacity:1;stop-color:#623a8a"
         offset="1"
         id="stop332" />
    </linearGradient>
    <clipPath
       clipPathUnits="userSpaceOnUse"
       id="clipPath344">
      <path
         d="M 2931.07,3624.28 V 6.96094 h 301.18 V 3624.28 c 0,117.03 -67.42,211.9 -150.59,211.9 -83.16,0 -150.59,-94.87 -150.59,-211.9 z"
         id="path342" />
    </clipPath>
    <linearGradient
       x1="0"
       y1="0"
       x2="1"
       y2="0"
       gradientUnits="userSpaceOnUse"
       gradientTransform="matrix(301.175,0,0,-301.175,2931.07,1921.57)"
       spreadMethod="pad"
       id="linearGradient350">
      <stop
         style="stop-opacity:1;stop-color:#26173d"
         offset="0"
         id="stop346" />
      <stop
         style="stop-opacity:1;stop-color:#623a8a"
         offset="1"
         id="stop348" />
    </linearGradient>
    <clipPath
       clipPathUnits="userSpaceOnUse"
       id="clipPath360">
      <path
         d="m 1891.9,3389.71 2162.89,299.41 c 120.63,16.7 231.96,-67.56 248.66,-188.19 l 123.89,-894.99 c 16.7,-120.63 -67.55,-231.96 -188.18,-248.65 l -2162.9,-299.41 c -120.63,-16.7 -231.95,67.55 -248.65,188.18 l -123.89,894.99 c -16.7,120.63 67.55,231.96 188.18,248.66 z"
         id="path358" />
    </clipPath>
    <linearGradient
       x1="0"
       y1="0"
       x2="1"
       y2="0"
       gradientUnits="userSpaceOnUse"
       gradientTransform="matrix(2599.73,359.879,359.879,-2599.73,1765.66,2693.56)"
       spreadMethod="pad"
       id="linearGradient366">
      <stop
         style="stop-opacity:1;stop-color:#f14196"
         offset="0"
         id="stop362" />
      <stop
         style="stop-opacity:1;stop-color:#f57d92"
         offset="1"
         id="stop364" />
    </linearGradient>
    <clipPath
       clipPathUnits="userSpaceOnUse"
       id="clipPath384">
      <path
         d="m 8333.46,3834.46 26.3,-1382.14 c -7.2,-43.18 -7.06,-87.28 0.4,-130.42 L 8710.72,296.41 h 455.67 l -268.04,2050.46 254.63,1487.59 z"
         id="path382" />
    </clipPath>
    <linearGradient
       x1="0"
       y1="0"
       x2="1"
       y2="0"
       gradientUnits="userSpaceOnUse"
       gradientTransform="matrix(577.464,4085.02,4085.02,-577.464,8285.76,-1218.09)"
       spreadMethod="pad"
       id="linearGradient390">
      <stop
         style="stop-opacity:1;stop-color:#8cbfe9"
         offset="0"
         id="stop386" />
      <stop
         style="stop-opacity:1;stop-color:#5f5db4"
         offset="1"
         id="stop388" />
    </linearGradient>
    <clipPath
       clipPathUnits="userSpaceOnUse"
       id="clipPath400">
      <path
         d="m 9199.88,8.28125 h -897.91 c 0,0 -77.56,116.33975 237.08,222.07775 11.65,3.903 22.98,8.711 33.77,14.602 l 131.2,71.559 482.46,13.398 z"
         id="path398" />
    </clipPath>
    <linearGradient
       x1="0"
       y1="0"
       x2="1"
       y2="0"
       gradientUnits="userSpaceOnUse"
       gradientTransform="matrix(-906.37,0,0,-906.37,8864.82,169.1)"
       spreadMethod="pad"
       id="linearGradient406">
      <stop
         style="stop-opacity:1;stop-color:#26173d"
         offset="0"
         id="stop402" />
      <stop
         style="stop-opacity:1;stop-color:#623a8a"
         offset="1"
         id="stop404" />
    </linearGradient>
    <clipPath
       clipPathUnits="userSpaceOnUse"
       id="clipPath416">
      <path
         d="m 9481.32,8.28125 h -897.91 c 0,0 -77.63,116.43775 237.47,222.19875 11.39,3.821 22.48,8.489 33.06,14.18 l 158.33,85.258 h 455.65 z"
         id="path414" />
    </clipPath>
    <linearGradient
       x1="0"
       y1="0"
       x2="1"
       y2="0"
       gradientUnits="userSpaceOnUse"
       gradientTransform="matrix(-906.37,0,0,-906.37,9752.23,169.1)"
       spreadMethod="pad"
       id="linearGradient422">
      <stop
         style="stop-opacity:1;stop-color:#26173d"
         offset="0"
         id="stop418" />
      <stop
         style="stop-opacity:1;stop-color:#623a8a"
         offset="1"
         id="stop420" />
    </linearGradient>
    <clipPath
       clipPathUnits="userSpaceOnUse"
       id="clipPath432">
      <path
         d="M 9474.62,3687.04 9273.59,2279.86 9474.62,323.219 H 9005.57 L 8661.58,2320.97 c -2.97,17.23 -4.21,34.7 -3.69,52.17 l 38.59,1313.9 z"
         id="path430" />
    </clipPath>
    <linearGradient
       x1="0"
       y1="0"
       x2="1"
       y2="0"
       gradientUnits="userSpaceOnUse"
       gradientTransform="matrix(491.913,3700.04,3700.04,-491.913,8990.82,1292.57)"
       spreadMethod="pad"
       id="linearGradient438">
      <stop
         style="stop-opacity:1;stop-color:#8cbfe9"
         offset="0"
         id="stop434" />
      <stop
         style="stop-opacity:1;stop-color:#5f5db4"
         offset="1"
         id="stop436" />
    </linearGradient>
    <clipPath
       clipPathUnits="userSpaceOnUse"
       id="clipPath450">
      <path
         d="m 8292.48,5582.31 -149.71,-727.17 h 256.65 z"
         id="path448" />
    </clipPath>
    <linearGradient
       x1="0"
       y1="0"
       x2="1"
       y2="0"
       gradientUnits="userSpaceOnUse"
       gradientTransform="matrix(627.368,-891.148,-891.148,-627.368,8234,5195.46)"
       spreadMethod="pad"
       id="linearGradient456">
      <stop
         style="stop-opacity:1;stop-color:#26173d"
         offset="0"
         id="stop452" />
      <stop
         style="stop-opacity:1;stop-color:#623a8a"
         offset="1"
         id="stop454" />
    </linearGradient>
    <clipPath
       clipPathUnits="userSpaceOnUse"
       id="clipPath466">
      <path
         d="m 8335.25,3529.11 c 0.17,2.71 -42.77,2053.2 -42.77,2053.2 -0.21,-0.14 -0.32,-0.21 -0.32,-0.21 -0.02,-0.02 95.11,62.63 186.28,122.73 4.66,-31.67 8.98,-55.47 8.98,-55.47 16.03,-47.97 111.76,-143.81 111.76,-143.81 l 52.71,-323.65 11.19,-68.2 47.96,-294.29 80.14,-381.31 c 17.62,-83.59 89.3,-130.72 161.91,-130.72 50.17,0 100.79,22.51 134.32,71.02 l 291.05,420.89 96.17,139.08 -8.21,4.05 c 9.37,5.45 17.17,13.74 22.96,25.37 63.07,126.65 111.71,235.27 149.22,327.61 -136.3,-408.78 -166.95,-1749.21 -166.95,-1749.21 l -1136.4,-17.08 m 662.99,1283.2 -88.74,301.28 -134.67,471.77 31.73,127.79 c 0,22.53 -2.48,40.58 -6.58,55.04 109.17,6.27 184.78,90.45 207.44,119.05 4.67,5.89 7.09,9.43 7.09,9.43 180.53,-47.57 431.44,-126.9 536.62,-175.1 3.52,-1.44 7.19,-3.03 10.86,-4.79 l 0.48,-0.32 h 0.16 l 1.38,-0.64 c 70.96,-32.71 120.34,-101.15 124.84,-179.15 0.42,-7.35 0.61,-14.63 0.61,-21.8 0,7.17 -0.19,14.45 -0.61,21.8 -4.5,78 -53.88,146.44 -124.84,179.15 l -1.38,0.64 h -0.16 l -0.48,0.32 c -3.67,1.76 -7.34,3.35 -10.86,4.79 -26.4,11.09 -51.56,15.53 -74.91,15.53 -10.86,0 -21.33,-0.96 -31.36,-2.66 -69.18,-11.72 -125.16,-62.99 -148.92,-129 L 9126.6,5111.79 c 0,0 1.62,-1.46 4.64,-4.12 l -3.5,1.72 -8.81,4.31 -120.69,-301.39 m -265.47,896.96 -85.72,83.69 -5,20.03 c 0.4,0.28 0.64,0.45 0.72,0.52 6.02,-3.81 12,-7.35 17.92,-10.62 23.79,-13.18 46.72,-22.16 68.71,-27.73 l 3.37,-65.89"
         id="path464" />
    </clipPath>
    <linearGradient
       x1="0"
       y1="0"
       x2="1"
       y2="0"
       gradientUnits="userSpaceOnUse"
       gradientTransform="matrix(-97.7853,1442.33,1442.33,97.7853,9076.87,3576.91)"
       spreadMethod="pad"
       id="linearGradient472">
      <stop
         style="stop-opacity:1;stop-color:#26173d"
         offset="0"
         id="stop468" />
      <stop
         style="stop-opacity:1;stop-color:#623a8a"
         offset="1"
         id="stop470" />
    </linearGradient>
    <clipPath
       clipPathUnits="userSpaceOnUse"
       id="clipPath482">
      <path
         d="m 9466.42,4942.42 -335.18,165.25 c -3.02,2.66 -4.64,4.12 -4.64,4.12 l 169.34,493.65 c 23.76,66.01 79.74,117.28 148.92,129 10.03,1.7 20.5,2.66 31.36,2.66 23.35,0 48.51,-4.44 74.91,-15.53 3.52,-1.44 7.19,-3.03 10.86,-4.79 l 0.48,-0.32 h 0.16 l 1.38,-0.64 c 70.96,-32.71 120.34,-101.15 124.84,-179.15 0.42,-7.35 0.61,-14.63 0.61,-21.8 -0.01,-74.44 -20.85,-136.96 -20.85,-136.96 -10.69,-26.65 -20.59,-54.1 -30.01,-82.51 v 0 c -37.51,-92.34 -86.15,-200.96 -149.22,-327.61 -5.79,-11.63 -13.59,-19.92 -22.96,-25.37"
         id="path480" />
    </clipPath>
    <linearGradient
       x1="0"
       y1="0"
       x2="1"
       y2="0"
       gradientUnits="userSpaceOnUse"
       gradientTransform="matrix(-57.0334,876.889,876.889,57.0334,9438.54,4850.39)"
       spreadMethod="pad"
       id="linearGradient488">
      <stop
         style="stop-opacity:1;stop-color:#26173d"
         offset="0"
         id="stop484" />
      <stop
         style="stop-opacity:1;stop-color:#623a8a"
         offset="1"
         id="stop486" />
    </linearGradient>
  </defs>
  <sodipodi:namedview
     id="namedview4"
     pagecolor="#ffffff"
     bordercolor="#000000"
     borderopacity="0.25"
     inkscape:showpageshadow="2"
     inkscape:pageopacity="0.0"
     inkscape:pagecheckerboard="0"
     inkscape:deskcolor="#d1d1d1" />
  <g
     id="g8"
     inkscape:groupmode="layer"
     inkscape:label="ink_ext_XXXXXX"
     transform="matrix(1.3333333,0,0,-1.3333333,0,939.53333)">
    <g
       id="g10"
       transform="scale(0.1)">
      <path
         d="m 10874.6,4436.4 c -101.3,81.32 -246.8,58.97 -376,71.95 -87.8,8.83 -173.8,36.18 -250.6,79.76 -95.2,54.03 -192.1,136.11 -299.22,113.27 -55.14,-11.76 -100.39,-50.22 -152.27,-72.27 -105.34,-44.78 -227.55,-18.09 -333.02,26.36 -92.99,39.19 -190.42,92.97 -288.72,70.17 -39.09,-9.06 -74.3,-29.74 -109.21,-49.49 -177.32,-100.31 -364.24,-183.6 -557.38,-248.38 l 2366.42,8.63"
         style="fill:#eeebf7;fill-opacity:1;fill-rule:nonzero;stroke:none"
         id="path12" />
      <path
         d="m 5842.37,6022.51 c -159.29,127.91 -388.08,92.76 -591.36,113.18 -138.2,13.88 -273.41,56.91 -394.22,125.46 -149.78,84.98 -302.21,214.1 -470.64,178.17 -86.73,-18.5 -157.91,-78.99 -239.52,-113.68 -165.69,-70.45 -357.93,-28.46 -523.84,41.47 -146.27,61.64 -299.52,146.24 -454.15,110.37 -61.48,-14.25 -116.87,-46.78 -171.79,-77.85 -278.91,-157.77 -572.93,-288.8 -876.73,-390.69 l 3722.25,13.57"
         style="fill:#eeebf7;fill-opacity:1;fill-rule:nonzero;stroke:none"
         id="path14" />
      <path
         d="m 3722.26,4086.38 c -159.3,127.92 -388.09,92.77 -591.36,113.19 -138.2,13.88 -273.41,56.9 -394.22,125.45 -149.79,84.99 -302.22,214.11 -470.64,178.18 -86.73,-18.51 -157.92,-79 -239.53,-113.69 -165.69,-70.44 -357.93,-28.46 -523.83,41.47 -146.28,61.65 -299.53,146.25 -454.16,110.38 C 987.047,4527.1 931.656,4494.58 876.73,4463.51 597.828,4305.73 303.805,4174.71 0,4072.82 l 3722.26,13.56"
         style="fill:#eeebf7;fill-opacity:1;fill-rule:nonzero;stroke:none"
         id="path16" />
      <g
         id="g18">
        <g
           id="g20"
           clip-path="url(#clipPath24)">
          <path
             d="m 4141.39,123.121 c 0,0 -926.26,1384.809 -617.42,1901.889 308.84,517.06 840.45,-943.44 971.1,-1727.428 L 4141.39,123.121"
             style="fill:url(#linearGradient30);fill-opacity:1;fill-rule:nonzero;stroke:none"
             id="path32" />
        </g>
      </g>
      <g
         id="g34">
        <g
           id="g36"
           clip-path="url(#clipPath40)">
          <path
             d="m 4415.42,236.398 c 0,0 -435.12,1146.982 -131.91,1481.232 303.2,334.24 445.39,-811.482 411.66,-1404.278 l -279.75,-76.954"
             style="fill:url(#linearGradient46);fill-opacity:1;fill-rule:nonzero;stroke:none"
             id="path48" />
        </g>
      </g>
      <g
         id="g50">
        <g
           id="g52"
           clip-path="url(#clipPath56)">
          <path
             d="m 7234.79,16.9297 c 0,0 622.24,930.2813 414.77,1277.6403 C 7442.09,1641.91 7084.97,660.789 6997.21,134.129 L 7234.79,16.9297"
             style="fill:url(#linearGradient62);fill-opacity:1;fill-rule:nonzero;stroke:none"
             id="path64" />
        </g>
      </g>
      <g
         id="g66">
        <g
           id="g68"
           clip-path="url(#clipPath72)">
          <path
             d="m 7050.71,93.0313 c 0,0 292.31,770.5077 88.62,995.0487 -203.69,224.53 -299.2,-545.139 -276.55,-943.361 l 187.93,-51.6877"
             style="fill:url(#linearGradient78);fill-opacity:1;fill-rule:nonzero;stroke:none"
             id="path80" />
        </g>
      </g>
      <g
         id="g82">
        <g
           id="g84"
           clip-path="url(#clipPath88)">
          <path
             d="M 10670.2,0 C 10283,114.52 10039.8,283.02 9757.37,426.039 9506.29,553.18 9280.13,728.84 9019.13,834.141 8758.13,939.43 8437.7,962.051 8213.37,792.09 8034.91,656.871 7946.54,423.07 7757.3,303.41 7431.4,97.3203 7010.04,326.09 6710.39,568.77 6410.75,811.461 6051.6,1093.03 5682.32,982.039 5542.98,940.148 5426.57,846.148 5303.65,768.301 4998.35,574.93 4612.4,476.25 4270.16,592.301 3811.98,747.66 3474.44,1260.19 2991.96,1224.45 2687.29,1201.87 2450.22,961.199 2243.74,736.039 2032.37,505.551 1821,232.281 1609.63,1.78906 L 10670.2,0"
             style="fill:url(#linearGradient94);fill-opacity:1;fill-rule:nonzero;stroke:none"
             id="path96" />
        </g>
      </g>
      <g
         id="g98">
        <g
           id="g100"
           clip-path="url(#clipPath104)">
          <path
             d="M 5619.04,6822.79 V 0.160156 h 342.2 V 6822.79 c 0,94.5 -76.6,171.1 -171.1,171.1 -94.5,0 -171.1,-76.6 -171.1,-171.1"
             style="fill:url(#linearGradient110);fill-opacity:1;fill-rule:nonzero;stroke:none"
             id="path112" />
        </g>
      </g>
      <g
         id="g114">
        <g
           id="g116"
           clip-path="url(#clipPath120)">
          <path
             d="m 6830.1,7035.82 77.21,-27.89 -46.48,-128.7 -77.22,27.9 46.49,128.69"
             style="fill:url(#linearGradient126);fill-opacity:1;fill-rule:nonzero;stroke:none"
             id="path128" />
        </g>
      </g>
      <g
         id="g130">
        <g
           id="g132"
           clip-path="url(#clipPath136)">
          <path
             d="m 7015.84,4012.97 -545.46,-980.1 c -30.54,-54.89 -99.78,-74.61 -154.66,-44.08 l -1643.01,914.38 c -24.41,13.59 -42.97,35.68 -52.13,62.08 l -282.05,812.55 c -22.57,65.01 17.32,135 84.75,148.72 l 826.35,168.19 c 26.6,5.42 54.26,1.13 77.98,-12.06 l 1644.16,-915.02 c 54.88,-30.54 74.61,-99.78 44.07,-154.66"
             style="fill:url(#linearGradient142);fill-opacity:1;fill-rule:nonzero;stroke:none"
             id="path144" />
        </g>
      </g>
      <g
         id="g146">
        <g
           id="g148"
           clip-path="url(#clipPath152)">
          <path
             d="m 5210.34,2925.93 -243.29,-698.47 c -13.62,-39.11 7.04,-81.86 46.14,-95.48 l 1170.9,-407.85 c 17.4,-6.06 36.42,-5.5 53.43,1.56 l 523.79,217.56 c 41.9,17.41 58.87,67.75 36.04,106.96 l -279.66,480.63 c -9.01,15.48 -23.25,27.22 -40.15,33.11 l -1171.72,408.14 c -39.11,13.62 -81.86,-7.05 -95.48,-46.16"
             style="fill:url(#linearGradient158);fill-opacity:1;fill-rule:nonzero;stroke:none"
             id="path160" />
        </g>
      </g>
      <g
         id="g162">
        <g
           id="g164"
           clip-path="url(#clipPath168)">
          <path
             d="m 5534.28,5598.06 -135.61,-427.57 c -7.59,-23.94 5.66,-49.5 29.6,-57.1 l 716.78,-227.32 c 10.64,-3.38 22.17,-2.72 32.36,1.86 l 313.83,140.8 c 25.11,11.27 34.53,42.07 20.03,65.45 l -177.73,286.62 c -5.72,9.22 -14.55,16.1 -24.9,19.38 l -717.27,227.48 c -23.94,7.59 -49.5,-5.66 -57.09,-29.6"
             style="fill:url(#linearGradient174);fill-opacity:1;fill-rule:nonzero;stroke:none"
             id="path176" />
        </g>
      </g>
      <g
         id="g178">
        <g
           id="g180"
           clip-path="url(#clipPath184)">
          <path
             d="m 4936.79,6463.64 138.51,-808.87 c 7.76,-45.29 50.75,-75.72 96.05,-67.96 l 1355.95,232.2 c 20.15,3.45 38.32,14.19 51.05,30.18 l 391.93,492.34 c 31.35,39.38 20.82,97.38 -22.38,123.22 l -529.5,316.7 c -17.05,10.19 -37.18,13.95 -56.75,10.6 l -1356.9,-232.37 c -45.29,-7.75 -75.72,-50.75 -67.96,-96.04"
             style="fill:url(#linearGradient190);fill-opacity:1;fill-rule:nonzero;stroke:none"
             id="path192" />
        </g>
      </g>
      <g
         id="g194">
        <g
           id="g196"
           clip-path="url(#clipPath200)">
          <path
             d="m 4276.26,5447.78 149.66,73.25 122.07,-249.43 -149.65,-73.25 -122.08,249.43"
             style="fill:url(#linearGradient206);fill-opacity:1;fill-rule:nonzero;stroke:none"
             id="path208" />
        </g>
      </g>
      <g
         id="g210">
        <g
           id="g212"
           clip-path="url(#clipPath216)">
          <path
             d="m 4036.42,5193.71 73.37,113.97 189.96,-122.3 -73.38,-113.97 -189.95,122.3"
             style="fill:url(#linearGradient222);fill-opacity:1;fill-rule:nonzero;stroke:none"
             id="path224" />
        </g>
      </g>
      <g
         id="g226">
        <g
           id="g228"
           clip-path="url(#clipPath232)">
          <path
             d="m 3973.85,4815.67 -8.15,135.31 225.52,13.58 8.14,-135.31 -225.51,-13.58"
             style="fill:url(#linearGradient238);fill-opacity:1;fill-rule:nonzero;stroke:none"
             id="path240" />
        </g>
      </g>
      <g
         id="g242">
        <g
           id="g244"
           clip-path="url(#clipPath248)">
          <path
             d="m 7030.18,6907.82 62.16,-53.63 -89.38,-103.6 -62.17,53.62 89.39,103.61"
             style="fill:url(#linearGradient254);fill-opacity:1;fill-rule:nonzero;stroke:none"
             id="path256" />
        </g>
      </g>
      <g
         id="g258">
        <g
           id="g260"
           clip-path="url(#clipPath264)">
          <path
             d="m 7216.92,6719.76 27.59,-77.33 -128.88,-45.98 -27.58,77.32 128.87,45.99"
             style="fill:url(#linearGradient270);fill-opacity:1;fill-rule:nonzero;stroke:none"
             id="path272" />
        </g>
      </g>
      <g
         id="g274">
        <g
           id="g276"
           clip-path="url(#clipPath280)">
          <path
             d="m 5897.08,6181.16 c 0,-59.05 -47.88,-106.94 -106.94,-106.94 -59.06,0 -106.94,47.89 -106.94,106.94 0,59.07 47.88,106.94 106.94,106.94 59.06,0 106.94,-47.87 106.94,-106.94"
             style="fill:url(#linearGradient286);fill-opacity:1;fill-rule:nonzero;stroke:none"
             id="path288" />
        </g>
      </g>
      <g
         id="g290">
        <g
           id="g292"
           clip-path="url(#clipPath296)">
          <path
             d="m 5897.08,4106.57 c 0,-59.06 -47.88,-106.94 -106.94,-106.94 -59.06,0 -106.94,47.88 -106.94,106.94 0,59.06 47.88,106.94 106.94,106.94 59.06,0 106.94,-47.88 106.94,-106.94"
             style="fill:url(#linearGradient302);fill-opacity:1;fill-rule:nonzero;stroke:none"
             id="path304" />
        </g>
      </g>
      <g
         id="g306">
        <g
           id="g308"
           clip-path="url(#clipPath312)">
          <path
             d="m 5854.31,2342.09 c 0,-41.33 -33.52,-74.85 -74.87,-74.85 -41.33,0 -74.85,33.52 -74.85,74.85 0,41.35 33.52,74.87 74.85,74.87 41.35,0 74.87,-33.52 74.87,-74.87"
             style="fill:url(#linearGradient318);fill-opacity:1;fill-rule:nonzero;stroke:none"
             id="path320" />
        </g>
      </g>
      <g
         id="g322">
        <g
           id="g324"
           clip-path="url(#clipPath328)">
          <path
             d="m 5832.92,5282.89 c 0,-23.63 -19.16,-42.78 -42.78,-42.78 -23.63,0 -42.78,19.15 -42.78,42.78 0,23.62 19.15,42.77 42.78,42.77 23.62,0 42.78,-19.15 42.78,-42.77"
             style="fill:url(#linearGradient334);fill-opacity:1;fill-rule:nonzero;stroke:none"
             id="path336" />
        </g>
      </g>
      <g
         id="g338">
        <g
           id="g340"
           clip-path="url(#clipPath344)">
          <path
             d="M 2931.07,3624.28 V 6.96094 h 301.18 V 3624.28 c 0,117.03 -67.42,211.9 -150.59,211.9 -83.16,0 -150.59,-94.87 -150.59,-211.9"
             style="fill:url(#linearGradient350);fill-opacity:1;fill-rule:nonzero;stroke:none"
             id="path352" />
        </g>
      </g>
      <g
         id="g354">
        <g
           id="g356"
           clip-path="url(#clipPath360)">
          <path
             d="m 1891.9,3389.71 2162.89,299.41 c 120.63,16.7 231.96,-67.56 248.66,-188.19 l 123.89,-894.99 c 16.7,-120.63 -67.55,-231.96 -188.18,-248.65 l -2162.9,-299.41 c -120.63,-16.7 -231.95,67.55 -248.65,188.18 l -123.89,894.99 c -16.7,120.63 67.55,231.96 188.18,248.66"
             style="fill:url(#linearGradient366);fill-opacity:1;fill-rule:nonzero;stroke:none"
             id="path368" />
        </g>
      </g>
      <path
         d="m 2478.36,2710.48 -22.77,164.5 c -6.17,44.54 -10.2,90.55 -13.42,139 l -4.57,-0.63 c -17.35,-51.29 -30.76,-97.4 -49.41,-147.71 l -76.92,-175.97 0.32,-2.27 z m 42.54,-307.28 -24.51,177.06 -328.98,-45.55 -15.66,113.1 218.39,491.25 212.47,29.41 60.24,-435.22 89.1,12.33 18.03,-130.22 -89.1,-12.34 24.51,-177.05 -164.49,-22.77"
         style="fill:#ffffff;fill-opacity:1;fill-rule:nonzero;stroke:none"
         id="path370" />
      <path
         d="m 2959.7,2841.14 c 22.42,-170.36 74.77,-245.77 142.17,-236.44 67.39,9.33 92.25,98.92 68.84,267.98 -22.77,164.49 -70.2,246.41 -139.88,236.76 -63.96,-8.86 -96.15,-95.97 -71.13,-268.3 z m 384.33,57.86 c 31.78,-229.6 -38.93,-400.05 -228.55,-426.3 -191.91,-26.56 -300.31,134.23 -330.55,344.25 -29.73,214.75 38.09,397.61 230,424.17 198.76,27.52 300.95,-138.79 329.1,-342.12"
         style="fill:#ffffff;fill-opacity:1;fill-rule:nonzero;stroke:none"
         id="path372" />
      <path
         d="m 3746.29,2886 -22.77,164.49 c -6.17,44.55 -10.2,90.56 -13.42,139.01 l -4.57,-0.63 c -17.35,-51.3 -30.75,-97.39 -49.4,-147.71 l -76.93,-175.96 0.32,-2.28 z m 42.54,-307.28 -24.51,177.06 -328.98,-45.55 -15.66,113.1 218.39,491.25 212.47,29.41 60.25,-435.23 89.1,12.35 18.03,-130.23 -89.11,-12.33 24.51,-177.06 -164.49,-22.77"
         style="fill:#ffffff;fill-opacity:1;fill-rule:nonzero;stroke:none"
         id="path374" />
      <path
         d="m 8332.39,2844.09 c 45.85,-20.79 52.63,42.65 52.63,42.65 46.5,-4.97 13.56,173.29 11.71,182.98 26.77,-50.72 74.09,-55.78 74.09,-55.78 l -55.61,230.62 c 11.88,111.17 -71.29,232.5 -71.29,232.5 l 24.85,176.62 105.89,1174.68 c 24.06,149.89 -276.12,227.15 -275.72,198.02 2.98,-273.27 -44.14,-1890.37 -44.14,-1890.37 l 117.55,-253.32 c 26.54,-50.91 60.04,-38.6 60.04,-38.6"
         style="fill:#f9b2b7;fill-opacity:1;fill-rule:nonzero;stroke:none"
         id="path376" />
      <g
         id="g378">
        <g
           id="g380"
           clip-path="url(#clipPath384)">
          <path
             d="m 8333.46,3834.46 26.3,-1382.14 c -7.2,-43.18 -7.06,-87.28 0.4,-130.42 L 8710.72,296.41 h 455.67 l -268.04,2050.46 254.63,1487.59 h -819.52"
             style="fill:url(#linearGradient390);fill-opacity:1;fill-rule:nonzero;stroke:none"
             id="path392" />
        </g>
      </g>
      <g
         id="g394">
        <g
           id="g396"
           clip-path="url(#clipPath400)">
          <path
             d="m 9199.88,8.28125 h -897.91 c 0,0 -77.56,116.33975 237.08,222.07775 11.65,3.903 22.98,8.711 33.77,14.602 l 131.2,71.559 482.46,13.398 13.4,-321.63675"
             style="fill:url(#linearGradient406);fill-opacity:1;fill-rule:nonzero;stroke:none"
             id="path408" />
        </g>
      </g>
      <g
         id="g410">
        <g
           id="g412"
           clip-path="url(#clipPath416)">
          <path
             d="m 9481.32,8.28125 h -897.91 c 0,0 -77.63,116.43775 237.47,222.19875 11.39,3.821 22.48,8.489 33.06,14.18 l 158.33,85.258 h 455.65 l 13.4,-321.63675"
             style="fill:url(#linearGradient422);fill-opacity:1;fill-rule:nonzero;stroke:none"
             id="path424" />
        </g>
      </g>
      <g
         id="g426">
        <g
           id="g428"
           clip-path="url(#clipPath432)">
          <path
             d="M 9474.62,3687.04 9273.59,2279.86 9474.62,323.219 H 9005.57 L 8661.58,2320.97 c -2.97,17.23 -4.21,34.7 -3.69,52.17 l 38.59,1313.9 h 778.14"
             style="fill:url(#linearGradient438);fill-opacity:1;fill-rule:nonzero;stroke:none"
             id="path440" />
        </g>
      </g>
      <path
         d="m 9037.82,6331.2 -39.69,-579.55 -337.11,-15.38 -0.75,147.9 -0.21,35.6 -0.86,143.59 -0.11,4.2 c -1.61,0.22 -3.22,0.43 -4.72,0.65 -304.41,44.85 -195.02,781.44 -195.02,781.44 326.99,146.6 560.19,-7.85 639.14,-222.66 79.06,-214.69 -60.67,-295.79 -60.67,-295.79"
         style="fill:#f9b2b7;fill-opacity:1;fill-rule:nonzero;stroke:none"
         id="path442" />
      <g
         id="g444">
        <g
           id="g446"
           clip-path="url(#clipPath450)">
          <path
             d="m 8292.48,5582.31 -149.71,-727.17 h 256.65 z"
             style="fill:url(#linearGradient456);fill-opacity:1;fill-rule:nonzero;stroke:none"
             id="path458" />
        </g>
      </g>
      <g
         id="g460">
        <g
           id="g462"
           clip-path="url(#clipPath466)">
          <path
             d="m 8335.25,3529.11 c 0.17,2.71 -42.77,2053.2 -42.77,2053.2 -0.21,-0.14 -0.32,-0.21 -0.32,-0.21 -0.02,-0.02 95.11,62.63 186.28,122.73 4.66,-31.67 8.98,-55.47 8.98,-55.47 16.03,-47.97 111.76,-143.81 111.76,-143.81 l 52.71,-323.65 11.19,-68.2 47.96,-294.29 80.14,-381.31 c 17.62,-83.59 89.3,-130.72 161.91,-130.72 50.17,0 100.79,22.51 134.32,71.02 l 291.05,420.89 96.17,139.08 -8.21,4.05 c 9.37,5.45 17.17,13.74 22.96,25.37 63.07,126.65 111.71,235.27 149.22,327.61 -136.3,-408.78 -166.95,-1749.21 -166.95,-1749.21 l -1136.4,-17.08 m 662.99,1283.2 -88.74,301.28 -134.67,471.77 31.73,127.79 c 0,22.53 -2.48,40.58 -6.58,55.04 109.17,6.27 184.78,90.45 207.44,119.05 4.67,5.89 7.09,9.43 7.09,9.43 180.53,-47.57 431.44,-126.9 536.62,-175.1 3.52,-1.44 7.19,-3.03 10.86,-4.79 l 0.48,-0.32 h 0.16 l 1.38,-0.64 c 70.96,-32.71 120.34,-101.15 124.84,-179.15 0.42,-7.35 0.61,-14.63 0.61,-21.8 0,7.17 -0.19,14.45 -0.61,21.8 -4.5,78 -53.88,146.44 -124.84,179.15 l -1.38,0.64 h -0.16 l -0.48,0.32 c -3.67,1.76 -7.34,3.35 -10.86,4.79 -26.4,11.09 -51.56,15.53 -74.91,15.53 -10.86,0 -21.33,-0.96 -31.36,-2.66 -69.18,-11.72 -125.16,-62.99 -148.92,-129 L 9126.6,5111.79 c 0,0 1.62,-1.46 4.64,-4.12 l -3.5,1.72 -8.81,4.31 -120.69,-301.39 m -265.47,896.96 -85.72,83.69 -5,20.03 c 0.4,0.28 0.64,0.45 0.72,0.52 6.02,-3.81 12,-7.35 17.92,-10.62 23.79,-13.18 46.72,-22.16 68.71,-27.73 l 3.37,-65.89"
             style="fill:url(#linearGradient472);fill-opacity:1;fill-rule:nonzero;stroke:none"
             id="path474" />
        </g>
      </g>
      <g
         id="g476">
        <g
           id="g478"
           clip-path="url(#clipPath482)">
          <path
             d="m 9466.42,4942.42 -335.18,165.25 c -3.02,2.66 -4.64,4.12 -4.64,4.12 l 169.34,493.65 c 23.76,66.01 79.74,117.28 148.92,129 10.03,1.7 20.5,2.66 31.36,2.66 23.35,0 48.51,-4.44 74.91,-15.53 3.52,-1.44 7.19,-3.03 10.86,-4.79 l 0.48,-0.32 h 0.16 l 1.38,-0.64 c 70.96,-32.71 120.34,-101.15 124.84,-179.15 0.42,-7.35 0.61,-14.63 0.61,-21.8 -0.01,-74.44 -20.85,-136.96 -20.85,-136.96 -10.69,-26.65 -20.59,-54.1 -30.01,-82.51 v 0 c -37.51,-92.34 -86.15,-200.96 -149.22,-327.61 -5.79,-11.63 -13.59,-19.92 -22.96,-25.37"
             style="fill:url(#linearGradient488);fill-opacity:1;fill-rule:nonzero;stroke:none"
             id="path490" />
        </g>
      </g>
      <path
         d="m 9474.63,4938.37 -96.17,-139.08 -291.05,-420.89 c -82.07,-118.75 -266.44,-81.64 -296.23,59.7 l -80.14,381.31 -47.96,294.29 -11.19,68.2 -52.71,323.65 c 0,0 -95.73,95.84 -111.76,143.81 0,0 -31.83,175.44 -16.03,207.38 16.03,32.06 47.99,0 47.99,0 0,0 8.38,142.95 8.38,174.68 0,64.22 5.37,64.22 21.41,64.22 42.7,0 64.1,-64.22 66.04,-175.12 l 31.84,-127.56 85.72,-83.69 -5.91,115.53 c 0,0 79.7,15.91 79.7,-111.65 l -31.73,-127.79 134.67,-471.77 88.74,-301.28 120.69,301.39 8.81,-4.31 346.89,-171.02"
         style="fill:#f9b2b7;fill-opacity:1;fill-rule:nonzero;stroke:none"
         id="path492" />
      <path
         d="m 8929.01,6514.96 c 0,0 -102.01,165.36 -45.39,241.79 0,0 -291.74,-217.53 -431.61,-6.83 -146.63,220.86 156.92,418.48 517.02,204.8 0,0 104.11,33.09 195.09,-97.57 0,0 74.11,-304.2 -144.46,-611.82 v 106.94 c 0,0 108.93,192.41 -27.64,211.93 0,0 -39.33,-3.51 -63.01,-49.24"
         style="fill:#3f3163;fill-opacity:1;fill-rule:nonzero;stroke:none"
         id="path494" />
      <path
         d="m 8660.27,5884.17 v 0 l -0.21,35.6 -0.86,143.59 -0.11,4.2 c -1.61,0.22 -3.22,0.43 -4.72,0.65 149.29,16.13 289.98,120.04 294.71,123.48 -81.21,-219.21 -223.84,-287.19 -288.81,-307.52"
         style="fill:#de9c9d;fill-opacity:1;fill-rule:nonzero;stroke:none"
         id="path496" />
      <path
         d="m 9378.46,4799.29 -250.72,310.1 346.89,-171.02 -96.17,-139.08"
         style="fill:#de9c9d;fill-opacity:1;fill-rule:nonzero;stroke:none"
         id="path498" />
    </g>
  </g>
</svg>
