<?xml version="1.0" encoding="UTF-8" standalone="no"?>
<!-- Created with Inkscape (http://www.inkscape.org/) -->

<svg
   version="1.1"
   id="svg2"
   width="729.62665"
   height="815.56"
   viewBox="0 0 729.62665 815.56"
   sodipodi:docname="reshot-illustration-financial-success-W9B257XQAT.eps"
   xmlns:inkscape="http://www.inkscape.org/namespaces/inkscape"
   xmlns:sodipodi="http://sodipodi.sourceforge.net/DTD/sodipodi-0.dtd"
   xmlns="http://www.w3.org/2000/svg"
   xmlns:svg="http://www.w3.org/2000/svg">
  <defs
     id="defs6" />
  <sodipodi:namedview
     id="namedview4"
     pagecolor="#ffffff"
     bordercolor="#000000"
     borderopacity="0.25"
     inkscape:showpageshadow="2"
     inkscape:pageopacity="0.0"
     inkscape:pagecheckerboard="0"
     inkscape:deskcolor="#d1d1d1" />
  <g
     id="g8"
     inkscape:groupmode="layer"
     inkscape:label="ink_ext_XXXXXX"
     transform="matrix(1.3333333,0,0,-1.3333333,0,815.56)">
    <g
       id="g10"
       transform="scale(0.1)">
      <path
         d="m 4418,1254.99 c 28.92,-16.64 59.46,-15.42 91.63,3.66 0,0 312.18,182.44 936.53,547.29 17.88,9.75 26.32,21.24 26.05,32.79 0,0 0,92.07 0,276.21 -126.93,-41.66 -208.1,-80.26 -243.59,-115.81 L 3399.83,3069.85 c -26.3,13.58 -49,17 -79.15,0 l -707.57,-410.9 c -38.34,33.55 -135.54,65.31 -291.69,95.26 v -275.24 c -0.23,-8.07 6.4,-16.24 18.85,-24.01 C 3725.43,1654.98 4418,1254.99 4418,1254.99"
         style="fill:#216c4a;fill-opacity:1;fill-rule:evenodd;stroke:none"
         id="path12" />
      <path
         d="m 4418,1531.2 c 28.92,-16.64 59.46,-15.42 91.63,3.66 0,0 312.18,182.43 936.53,547.3 35.75,19.45 33.75,45.97 -0.13,65.91 0,0 -682.07,399.33 -2046.2,1197.98 -26.3,13.59 -49,17.02 -79.15,0 0,0 -326.81,-189.77 -980.41,-569.33 -26.38,-14.29 -23.88,-30.64 0,-45.55 C 3725.43,1931.19 4418,1531.2 4418,1531.2"
         style="fill:#39b976;fill-opacity:1;fill-rule:evenodd;stroke:none"
         id="path14" />
      <path
         d="m 3218.25,3134.45 c 75.65,-70.82 192.85,-72.12 270.06,-3 0,0 524.68,-307.57 1574.03,-922.7 -37.25,-15.26 -63.69,-49.04 -69.53,-88.87 -5.85,-39.83 9.77,-79.79 41.06,-105.1 0,0 -149.87,-87.97 -449.64,-263.89 -91.19,75.53 -222.39,78.27 -316.66,6.62 0,0 -521.81,302.61 -1565.41,907.82 38.12,12.48 66.29,44.92 73.29,84.41 7,39.49 -8.27,79.64 -39.77,104.47 0,0 160.85,93.41 482.57,280.24"
         style="fill:#7bd1a7;fill-opacity:1;fill-rule:evenodd;stroke:none"
         id="path16" />
      <path
         d="m 3888.32,2669.84 c 211.69,14.62 383.3,-77.18 383.3,-205.04 0,-127.86 -171.61,-243.36 -383.3,-257.98 -211.7,-14.62 -383.31,77.19 -383.31,205.04 0,127.86 171.61,243.36 383.31,257.98"
         style="fill:#39b976;fill-opacity:1;fill-rule:evenodd;stroke:none"
         id="path18" />
      <path
         d="m 4074.53,2406.96 -101.53,52.13 12.03,5.06 c 12.81,5.39 19.96,9.52 21.56,12.37 1.67,2.87 -1.34,6.26 -9.07,10.22 -6.19,3.18 -12.55,4.84 -19.01,5.01 -6.54,0.14 -13.18,-1.21 -20.04,-4.09 -11.35,-4.78 -16.15,-9.77 -14.34,-14.94 1.64,-5.09 11.11,-18.21 28.23,-39.32 14.61,-17.93 23.7,-30.56 27.16,-37.85 3.42,-7.31 2.97,-14.87 -1.44,-22.75 -4.42,-7.88 -14.65,-15.24 -30.78,-22.03 -25.84,-10.85 -54.83,-14.94 -86.99,-12.17 -32.16,2.75 -67.45,12.39 -105.82,28.82 l -27.24,-11.45 -46.91,24.09 27.98,11.76 c -25.23,14.75 -41.46,30.07 -48.73,45.95 -7.32,15.86 5.25,30.61 37.58,44.21 l 14.18,5.96 101.53,-52.15 -17.73,-7.45 c -19.51,-8.21 -30.57,-13.83 -33.15,-16.91 -2.66,-3.05 0.08,-6.63 8.06,-10.73 6.87,-3.54 13.68,-5.48 20.29,-5.83 6.66,-0.33 13.21,0.89 19.64,3.6 16.26,6.85 26.29,12.59 30.11,17.16 3.82,4.57 0.66,13.36 -9.76,26.38 -17.08,21.79 -27.95,36.88 -32.6,45.36 -4.53,8.44 -5.08,17.27 -1.26,26.43 3.69,9.17 13.02,16.87 27.99,23.17 21.66,9.11 47.25,11.84 76.76,8.21 29.51,-3.64 62.9,-13.67 100.14,-30.11 l 23.19,9.76 46.91,-24.09 -23.2,-9.76 c 28.48,-17.31 44.44,-32.5 47.92,-45.64 3.4,-13.09 -5.59,-24.17 -27.01,-33.19 -2.94,-1.23 -7.89,-3 -14.65,-5.19"
         style="fill:#ffffff;fill-opacity:1;fill-rule:nonzero;stroke:none"
         id="path20" />
      <path
         d="m 4418,1570.48 c 28.92,-16.64 59.46,-15.42 91.63,3.66 0,0 312.18,182.44 936.53,547.3 17.88,9.73 26.32,21.24 26.05,32.78 0,0 0,92.08 0,276.22 -126.93,-41.67 -208.1,-80.27 -243.59,-115.82 L 3399.83,3385.34 c -26.3,13.58 -49,17.01 -79.15,0 l -707.57,-410.9 c -38.34,33.56 -135.54,65.31 -291.69,95.26 v -275.24 c -0.23,-8.06 6.4,-16.23 18.85,-24 C 3725.43,1970.47 4418,1570.48 4418,1570.48"
         style="fill:#216c4a;fill-opacity:1;fill-rule:evenodd;stroke:none"
         id="path22" />
      <path
         d="m 4418,1846.7 c 28.92,-16.65 59.46,-15.43 91.63,3.65 0,0 312.18,182.44 936.53,547.3 35.75,19.46 33.75,45.97 -0.13,65.91 0,0 -682.07,399.33 -2046.2,1197.99 -26.3,13.58 -49,17.01 -79.15,0 0,0 -326.81,-189.78 -980.41,-569.34 -26.38,-14.28 -23.88,-30.64 0,-45.54 C 3725.43,2246.68 4418,1846.7 4418,1846.7"
         style="fill:#39b976;fill-opacity:1;fill-rule:evenodd;stroke:none"
         id="path24" />
      <path
         d="m 3218.25,3449.95 c 75.65,-70.83 192.85,-72.13 270.06,-3 0,0 524.68,-307.57 1574.03,-922.71 -37.25,-15.25 -63.69,-49.04 -69.53,-88.87 -5.85,-39.83 9.77,-79.79 41.06,-105.1 0,0 -149.87,-87.96 -449.64,-263.88 -91.19,75.52 -222.39,78.27 -316.66,6.62 0,0 -521.81,302.6 -1565.41,907.81 38.12,12.47 66.29,44.92 73.29,84.41 7,39.49 -8.27,79.65 -39.77,104.47 0,0 160.85,93.42 482.57,280.25"
         style="fill:#7bd1a7;fill-opacity:1;fill-rule:evenodd;stroke:none"
         id="path26" />
      <path
         d="m 3888.32,2985.34 c 211.69,14.61 383.3,-77.19 383.3,-205.05 0,-127.87 -171.61,-243.36 -383.3,-257.97 -211.7,-14.62 -383.31,77.18 -383.31,205.04 0,127.86 171.61,243.36 383.31,257.98"
         style="fill:#39b976;fill-opacity:1;fill-rule:evenodd;stroke:none"
         id="path28" />
      <path
         d="m 4074.53,2722.45 -101.53,52.14 12.03,5.06 c 12.81,5.39 19.96,9.52 21.56,12.36 1.67,2.88 -1.34,6.25 -9.07,10.22 -6.19,3.18 -12.55,4.84 -19.01,5.01 -6.54,0.15 -13.18,-1.2 -20.04,-4.09 -11.35,-4.78 -16.15,-9.77 -14.34,-14.94 1.64,-5.08 11.11,-18.2 28.23,-39.32 14.61,-17.92 23.7,-30.56 27.16,-37.84 3.42,-7.32 2.97,-14.88 -1.44,-22.77 -4.42,-7.87 -14.65,-15.22 -30.78,-22.01 -25.84,-10.86 -54.83,-14.95 -86.99,-12.18 -32.16,2.76 -67.45,12.39 -105.82,28.83 l -27.24,-11.46 -46.91,24.09 27.98,11.77 c -25.23,14.73 -41.46,30.06 -48.73,45.94 -7.32,15.86 5.25,30.61 37.58,44.21 l 14.18,5.96 101.53,-52.14 -17.73,-7.46 c -19.51,-8.2 -30.57,-13.82 -33.15,-16.9 -2.66,-3.05 0.08,-6.63 8.06,-10.74 6.87,-3.53 13.68,-5.47 20.29,-5.84 6.66,-0.32 13.21,0.91 19.64,3.62 16.26,6.83 26.29,12.58 30.11,17.16 3.82,4.57 0.66,13.35 -9.76,26.38 -17.08,21.79 -27.95,36.88 -32.6,45.34 -4.53,8.46 -5.08,17.29 -1.26,26.44 3.69,9.17 13.02,16.87 27.99,23.16 21.66,9.12 47.25,11.85 76.76,8.22 29.51,-3.64 62.9,-13.67 100.14,-30.11 l 23.19,9.77 46.91,-24.1 -23.2,-9.75 c 28.48,-17.32 44.44,-32.51 47.92,-45.65 3.4,-13.09 -5.59,-24.18 -27.01,-33.18 -2.94,-1.24 -7.89,-3 -14.65,-5.2"
         style="fill:#ffffff;fill-opacity:1;fill-rule:nonzero;stroke:none"
         id="path30" />
      <path
         d="m 4418,1887.27 c 28.92,-16.64 59.46,-15.42 91.63,3.66 0,0 312.18,182.43 936.53,547.3 17.88,9.73 26.32,21.23 26.05,32.78 0,0 0,92.07 0,276.22 -126.93,-41.67 -208.1,-80.27 -243.59,-115.81 l -1828.79,1070.7 c -26.3,13.59 -49,17.01 -79.15,0 l -707.57,-410.89 c -38.34,33.55 -135.54,65.31 -291.69,95.25 v -275.24 c -0.23,-8.06 6.4,-16.23 18.85,-24 C 3725.43,2287.26 4418,1887.27 4418,1887.27"
         style="fill:#216c4a;fill-opacity:1;fill-rule:evenodd;stroke:none"
         id="path32" />
      <path
         d="m 4418,2163.48 c 28.92,-16.64 59.46,-15.42 91.63,3.66 0,0 312.18,182.43 936.53,547.3 35.75,19.46 33.75,45.96 -0.13,65.9 0,0 -682.07,399.34 -2046.2,1197.99 -26.3,13.59 -49,17.02 -79.15,0 0,0 -326.81,-189.77 -980.41,-569.33 -26.38,-14.29 -23.88,-30.64 0,-45.54 C 3725.43,2563.47 4418,2163.48 4418,2163.48"
         style="fill:#39b976;fill-opacity:1;fill-rule:evenodd;stroke:none"
         id="path34" />
      <path
         d="m 3218.25,3766.73 c 75.65,-70.82 192.85,-72.12 270.06,-3 0,0 524.68,-307.56 1574.03,-922.7 -37.25,-15.26 -63.69,-49.04 -69.53,-88.88 -5.85,-39.82 9.77,-79.77 41.06,-105.1 0,0 -149.87,-87.96 -449.64,-263.88 -91.19,75.52 -222.39,78.27 -316.66,6.63 0,0 -521.81,302.6 -1565.41,907.81 38.12,12.48 66.29,44.92 73.29,84.41 7,39.49 -8.27,79.64 -39.77,104.47 0,0 160.85,93.41 482.57,280.24"
         style="fill:#7bd1a7;fill-opacity:1;fill-rule:evenodd;stroke:none"
         id="path36" />
      <path
         d="m 3888.32,3302.12 c 211.69,14.62 383.3,-77.19 383.3,-205.05 0,-127.85 -171.61,-243.36 -383.3,-257.98 -211.7,-14.6 -383.31,77.19 -383.31,205.05 0,127.86 171.61,243.36 383.31,257.98"
         style="fill:#39b976;fill-opacity:1;fill-rule:evenodd;stroke:none"
         id="path38" />
      <path
         d="m 4074.53,3039.23 -101.53,52.15 12.03,5.05 c 12.81,5.39 19.96,9.53 21.56,12.37 1.67,2.87 -1.34,6.25 -9.07,10.22 -6.19,3.18 -12.55,4.84 -19.01,5 -6.54,0.15 -13.18,-1.19 -20.04,-4.09 -11.35,-4.77 -16.15,-9.76 -14.34,-14.93 1.64,-5.09 11.11,-18.2 28.23,-39.32 14.61,-17.93 23.7,-30.56 27.16,-37.84 3.42,-7.33 2.97,-14.89 -1.44,-22.77 -4.42,-7.87 -14.65,-15.22 -30.78,-22.01 -25.84,-10.87 -54.83,-14.95 -86.99,-12.19 -32.16,2.77 -67.45,12.39 -105.82,28.84 l -27.24,-11.46 -46.91,24.09 27.98,11.76 c -25.23,14.74 -41.46,30.07 -48.73,45.95 -7.32,15.86 5.25,30.61 37.58,44.21 l 14.18,5.96 101.53,-52.14 -17.73,-7.46 c -19.51,-8.21 -30.57,-13.82 -33.15,-16.91 -2.66,-3.04 0.08,-6.63 8.06,-10.73 6.87,-3.53 13.68,-5.48 20.29,-5.84 6.66,-0.32 13.21,0.9 19.64,3.61 16.26,6.84 26.29,12.58 30.11,17.16 3.82,4.57 0.66,13.35 -9.76,26.39 -17.08,21.78 -27.95,36.87 -32.6,45.34 -4.53,8.45 -5.08,17.28 -1.26,26.44 3.69,9.17 13.02,16.86 27.99,23.16 21.66,9.11 47.25,11.85 76.76,8.21 29.51,-3.63 62.9,-13.67 100.14,-30.1 l 23.19,9.76 46.91,-24.09 -23.2,-9.76 c 28.48,-17.31 44.44,-32.51 47.92,-45.64 3.4,-13.1 -5.59,-24.17 -27.01,-33.18 -2.94,-1.24 -7.89,-3 -14.65,-5.21"
         style="fill:#ffffff;fill-opacity:1;fill-rule:nonzero;stroke:none"
         id="path40" />
      <path
         d="m 4418,2202.77 c 28.92,-16.64 59.46,-15.43 91.63,3.65 0,0 312.18,182.43 936.53,547.29 17.88,9.74 26.32,21.24 26.05,32.8 0,0 0,92.07 0,276.21 -126.93,-41.66 -208.1,-80.27 -243.59,-115.81 L 3399.83,4017.62 c -26.3,13.58 -49,17.01 -79.15,0 l -707.57,-410.9 c -38.34,33.56 -135.54,65.31 -291.69,95.26 v -275.24 c -0.23,-8.07 6.4,-16.23 18.85,-24 C 3725.43,2602.76 4418,2202.77 4418,2202.77"
         style="fill:#216c4a;fill-opacity:1;fill-rule:evenodd;stroke:none"
         id="path42" />
      <path
         d="m 4418,2478.98 c 28.92,-16.64 59.46,-15.42 91.63,3.65 0,0 312.18,182.43 936.53,547.3 35.75,19.47 33.75,45.97 -0.13,65.91 0,0 -682.07,399.32 -2046.2,1197.99 -26.3,13.59 -49,17.01 -79.15,0 0,0 -326.81,-189.78 -980.41,-569.33 -26.38,-14.29 -23.88,-30.65 0,-45.55 C 3725.43,2878.97 4418,2478.98 4418,2478.98"
         style="fill:#39b976;fill-opacity:1;fill-rule:evenodd;stroke:none"
         id="path44" />
      <path
         d="m 3218.25,4082.22 c 75.65,-70.82 192.85,-72.12 270.06,-2.99 0,0 524.68,-307.57 1574.03,-922.71 -37.25,-15.25 -63.69,-49.04 -69.53,-88.87 -5.85,-39.83 9.77,-79.79 41.06,-105.11 0,0 -149.87,-87.95 -449.64,-263.87 -91.19,75.52 -222.39,78.27 -316.66,6.62 0,0 -521.81,302.6 -1565.41,907.81 38.12,12.47 66.29,44.92 73.29,84.41 7,39.49 -8.27,79.65 -39.77,104.47 0,0 160.85,93.41 482.57,280.24"
         style="fill:#7bd1a7;fill-opacity:1;fill-rule:evenodd;stroke:none"
         id="path46" />
      <path
         d="m 3888.32,3617.62 c 211.69,14.61 383.3,-77.19 383.3,-205.05 0,-127.86 -171.61,-243.36 -383.3,-257.98 -211.7,-14.61 -383.31,77.19 -383.31,205.04 0,127.86 171.61,243.36 383.31,257.99"
         style="fill:#39b976;fill-opacity:1;fill-rule:evenodd;stroke:none"
         id="path48" />
      <path
         d="m 4074.53,3354.73 -101.53,52.14 12.03,5.06 c 12.81,5.39 19.96,9.52 21.56,12.36 1.67,2.87 -1.34,6.26 -9.07,10.22 -6.19,3.18 -12.55,4.84 -19.01,5.01 -6.54,0.14 -13.18,-1.2 -20.04,-4.09 -11.35,-4.78 -16.15,-9.77 -14.34,-14.94 1.64,-5.09 11.11,-18.2 28.23,-39.32 14.61,-17.93 23.7,-30.56 27.16,-37.85 3.42,-7.31 2.97,-14.87 -1.44,-22.75 -4.42,-7.88 -14.65,-15.23 -30.78,-22.02 -25.84,-10.87 -54.83,-14.95 -86.99,-12.18 -32.16,2.75 -67.45,12.39 -105.82,28.83 l -27.24,-11.46 -46.91,24.09 27.98,11.77 c -25.23,14.74 -41.46,30.06 -48.73,45.95 -7.32,15.85 5.25,30.61 37.58,44.2 l 14.18,5.96 101.53,-52.14 -17.73,-7.46 c -19.51,-8.21 -30.57,-13.82 -33.15,-16.91 -2.66,-3.04 0.08,-6.63 8.06,-10.73 6.87,-3.53 13.68,-5.47 20.29,-5.83 6.66,-0.33 13.21,0.89 19.64,3.6 16.26,6.84 26.29,12.59 30.11,17.16 3.82,4.57 0.66,13.36 -9.76,26.39 -17.08,21.79 -27.95,36.87 -32.6,45.34 -4.53,8.46 -5.08,17.29 -1.26,26.44 3.69,9.17 13.02,16.87 27.99,23.16 21.66,9.12 47.25,11.86 76.76,8.22 29.51,-3.64 62.9,-13.67 100.14,-30.11 l 23.19,9.76 46.91,-24.09 -23.2,-9.75 c 28.48,-17.32 44.44,-32.51 47.92,-45.65 3.4,-13.09 -5.59,-24.18 -27.01,-33.19 -2.94,-1.23 -7.89,-2.99 -14.65,-5.19"
         style="fill:#ffffff;fill-opacity:1;fill-rule:nonzero;stroke:none"
         id="path50" />
      <path
         d="m 3362.03,631.59 c 28.92,-16.641 59.47,-15.422 91.63,3.66 0,0 312.18,182.43 936.55,547.3 17.88,9.73 26.3,21.23 26.03,32.79 0,0 0,92.07 0,276.21 -126.91,-41.66 -208.09,-80.27 -243.57,-115.81 L 2343.86,2446.45 c -26.3,13.58 -49,17.01 -79.15,0 l -707.57,-410.9 c -38.33,33.55 -135.54,65.31 -291.68,95.26 v -275.24 c -0.24,-8.07 6.4,-16.23 18.85,-24 C 2669.46,1031.59 3362.03,631.59 3362.03,631.59"
         style="fill:#216c4a;fill-opacity:1;fill-rule:evenodd;stroke:none"
         id="path52" />
      <path
         d="m 3362.03,907.809 c 28.92,-16.649 59.47,-15.418 91.63,3.66 0,0 312.18,182.431 936.55,547.291 35.73,19.47 33.74,45.97 -0.14,65.91 0,0 -682.07,399.33 -2046.21,1197.99 -26.3,13.58 -49,17.01 -79.15,0 0,0 -326.8,-189.78 -980.4,-569.34 -26.38,-14.27 -23.88,-30.64 0,-45.54 C 2669.46,1307.8 3362.03,907.809 3362.03,907.809"
         style="fill:#39b976;fill-opacity:1;fill-rule:evenodd;stroke:none"
         id="path54" />
      <path
         d="m 2162.29,2511.06 c 75.65,-70.82 192.86,-72.13 270.06,-3.01 0,0 524.67,-307.56 1574.03,-922.7 -37.26,-15.26 -63.68,-49.04 -69.53,-88.87 -5.84,-39.83 9.76,-79.79 41.06,-105.11 0,0 -149.88,-87.95 -449.64,-263.88 -91.19,75.53 -222.39,78.27 -316.67,6.63 0,0 -521.79,302.6 -1565.4,907.81 38.12,12.48 66.28,44.92 73.29,84.41 7,39.49 -8.28,79.64 -39.78,104.47 0,0 160.86,93.41 482.58,280.25"
         style="fill:#7bd1a7;fill-opacity:1;fill-rule:evenodd;stroke:none"
         id="path56" />
      <path
         d="m 2832.35,2046.44 c 211.69,14.62 383.31,-77.18 383.31,-205.04 0,-127.86 -171.62,-243.36 -383.31,-257.98 -211.68,-14.62 -383.3,77.19 -383.3,205.05 0,127.86 171.62,243.36 383.3,257.97"
         style="fill:#39b976;fill-opacity:1;fill-rule:evenodd;stroke:none"
         id="path58" />
      <path
         d="m 3018.57,1783.56 -101.53,52.14 12.02,5.06 c 12.83,5.39 19.96,9.52 21.58,12.36 1.66,2.87 -1.36,6.26 -9.09,10.22 -6.19,3.18 -12.54,4.85 -19.01,5.01 -6.52,0.14 -13.16,-1.2 -20.04,-4.1 -11.35,-4.76 -16.15,-9.75 -14.32,-14.93 1.64,-5.09 11.1,-18.19 28.23,-39.32 14.6,-17.93 23.68,-30.56 27.16,-37.85 3.4,-7.31 2.96,-14.87 -1.45,-22.75 -4.41,-7.87 -14.66,-15.24 -30.79,-22.01 -25.83,-10.87 -54.82,-14.96 -86.98,-12.19 -32.17,2.75 -67.44,12.39 -105.82,28.83 l -27.24,-11.46 -46.9,24.09 27.96,11.77 c -25.23,14.74 -41.46,30.06 -48.72,45.95 -7.33,15.85 5.25,30.6 37.58,44.2 l 14.17,5.96 101.54,-52.13 -17.74,-7.47 c -19.51,-8.21 -30.57,-13.81 -33.14,-16.91 -2.67,-3.05 0.07,-6.63 8.06,-10.73 6.88,-3.53 13.68,-5.48 20.29,-5.83 6.66,-0.32 13.2,0.9 19.64,3.61 16.26,6.84 26.29,12.58 30.11,17.15 3.81,4.58 0.66,13.36 -9.76,26.39 -17.08,21.78 -27.94,36.88 -32.6,45.35 -4.52,8.45 -5.08,17.27 -1.26,26.43 3.68,9.17 13.03,16.87 28,23.17 21.66,9.11 47.23,11.84 76.74,8.21 29.53,-3.64 62.91,-13.67 100.15,-30.11 l 23.18,9.76 46.92,-24.09 -23.19,-9.75 c 28.46,-17.31 44.43,-32.51 47.91,-45.64 3.4,-13.1 -5.6,-24.18 -27.02,-33.19 -2.94,-1.24 -7.88,-3.01 -14.64,-5.2"
         style="fill:#ffffff;fill-opacity:1;fill-rule:nonzero;stroke:none"
         id="path60" />
      <path
         d="m 3362.03,947.09 c 28.92,-16.649 59.47,-15.43 91.63,3.648 0,0 312.18,182.442 936.55,547.302 17.88,9.74 26.3,21.23 26.03,32.79 0,0 0,92.07 0,276.21 -126.91,-41.67 -208.09,-80.26 -243.57,-115.81 L 2343.86,2761.94 c -26.3,13.59 -49,17.01 -79.15,0 l -707.57,-410.89 c -38.33,33.55 -135.54,65.31 -291.68,95.25 v -275.24 c -0.24,-8.06 6.4,-16.23 18.85,-24 C 2669.46,1347.07 3362.03,947.09 3362.03,947.09"
         style="fill:#216c4a;fill-opacity:1;fill-rule:evenodd;stroke:none"
         id="path62" />
      <path
         d="m 3362.03,1223.29 c 28.92,-16.64 59.47,-15.41 91.63,3.67 0,0 312.18,182.43 936.55,547.29 35.73,19.46 33.74,45.97 -0.14,65.91 0,0 -682.07,399.34 -2046.21,1197.99 -26.3,13.59 -49,17.01 -79.15,0 0,0 -326.8,-189.78 -980.4,-569.33 -26.38,-14.29 -23.88,-30.64 0,-45.55 1385.15,-799.98 2077.72,-1199.98 2077.72,-1199.98"
         style="fill:#39b976;fill-opacity:1;fill-rule:evenodd;stroke:none"
         id="path64" />
      <path
         d="m 2162.29,2826.55 c 75.65,-70.82 192.86,-72.12 270.06,-3 0,0 524.67,-307.57 1574.03,-922.71 -37.26,-15.25 -63.68,-49.04 -69.53,-88.86 -5.84,-39.84 9.76,-79.79 41.06,-105.11 0,0 -149.88,-87.96 -449.64,-263.88 -91.19,75.53 -222.39,78.26 -316.67,6.62 0,0 -521.79,302.61 -1565.4,907.81 38.12,12.48 66.28,44.93 73.29,84.42 7,39.48 -8.28,79.64 -39.78,104.47 0,0 160.86,93.41 482.58,280.24"
         style="fill:#7bd1a7;fill-opacity:1;fill-rule:evenodd;stroke:none"
         id="path66" />
      <path
         d="m 2832.35,2361.94 c 211.69,14.62 383.31,-77.19 383.31,-205.04 0,-127.86 -171.62,-243.36 -383.31,-257.98 -211.68,-14.62 -383.3,77.18 -383.3,205.04 0,127.86 171.62,243.36 383.3,257.98"
         style="fill:#39b976;fill-opacity:1;fill-rule:evenodd;stroke:none"
         id="path68" />
      <path
         d="m 3018.57,2099.06 -101.53,52.13 12.02,5.06 c 12.83,5.39 19.96,9.52 21.58,12.37 1.66,2.87 -1.36,6.25 -9.09,10.22 -6.19,3.17 -12.54,4.83 -19.01,5 -6.52,0.15 -13.16,-1.2 -20.04,-4.09 -11.35,-4.78 -16.15,-9.76 -14.32,-14.94 1.64,-5.08 11.1,-18.2 28.23,-39.31 14.6,-17.94 23.68,-30.57 27.16,-37.85 3.4,-7.31 2.96,-14.88 -1.45,-22.75 -4.41,-7.89 -14.66,-15.24 -30.79,-22.03 -25.83,-10.87 -54.82,-14.95 -86.98,-12.18 -32.17,2.76 -67.44,12.39 -105.82,28.83 l -27.24,-11.45 -46.9,24.08 27.96,11.77 c -25.23,14.75 -41.46,30.07 -48.72,45.95 -7.33,15.86 5.25,30.61 37.58,44.21 l 14.17,5.95 101.54,-52.14 -17.74,-7.46 c -19.51,-8.2 -30.57,-13.82 -33.14,-16.9 -2.67,-3.05 0.07,-6.63 8.06,-10.73 6.88,-3.54 13.68,-5.48 20.29,-5.83 6.66,-0.34 13.2,0.88 19.64,3.6 16.26,6.84 26.29,12.59 30.11,17.16 3.81,4.57 0.66,13.36 -9.76,26.38 -17.08,21.79 -27.94,36.88 -32.6,45.35 -4.52,8.45 -5.08,17.28 -1.26,26.43 3.68,9.17 13.03,16.88 28,23.17 21.66,9.11 47.23,11.84 76.74,8.21 29.53,-3.63 62.91,-13.67 100.15,-30.1 l 23.18,9.76 46.92,-24.09 -23.19,-9.76 c 28.46,-17.32 44.43,-32.5 47.91,-45.65 3.4,-13.09 -5.6,-24.18 -27.02,-33.18 -2.94,-1.24 -7.88,-3 -14.64,-5.19"
         style="fill:#ffffff;fill-opacity:1;fill-rule:nonzero;stroke:none"
         id="path70" />
      <path
         d="m 3362.03,1263.87 c 28.92,-16.64 59.47,-15.42 91.63,3.66 0,0 312.18,182.43 936.55,547.3 17.88,9.73 26.3,21.23 26.03,32.79 0,0 0,92.07 0,276.21 -126.91,-41.67 -208.09,-80.26 -243.57,-115.81 L 2343.86,3078.73 c -26.3,13.58 -49,17.01 -79.15,0 l -707.57,-410.89 c -38.33,33.55 -135.54,65.3 -291.68,95.25 v -275.25 c -0.24,-8.05 6.4,-16.23 18.85,-23.99 1385.15,-799.99 2077.72,-1199.98 2077.72,-1199.98"
         style="fill:#216c4a;fill-opacity:1;fill-rule:evenodd;stroke:none"
         id="path72" />
      <path
         d="m 3362.03,1540.09 c 28.92,-16.65 59.47,-15.43 91.63,3.65 0,0 312.18,182.43 936.55,547.3 35.73,19.46 33.74,45.96 -0.14,65.91 0,0 -682.07,399.33 -2046.21,1197.99 -26.3,13.58 -49,17.01 -79.15,0 0,0 -326.8,-189.78 -980.4,-569.34 -26.38,-14.28 -23.88,-30.65 0,-45.54 1385.15,-799.98 2077.72,-1199.97 2077.72,-1199.97"
         style="fill:#39b976;fill-opacity:1;fill-rule:evenodd;stroke:none"
         id="path74" />
      <path
         d="m 2162.29,3143.34 c 75.65,-70.83 192.86,-72.13 270.06,-3 0,0 524.67,-307.57 1574.03,-922.71 -37.26,-15.25 -63.68,-49.04 -69.53,-88.87 -5.84,-39.83 9.76,-79.78 41.06,-105.1 0,0 -149.88,-87.96 -449.64,-263.88 -91.19,75.52 -222.39,78.26 -316.67,6.62 0,0 -521.79,302.6 -1565.4,907.81 38.12,12.47 66.28,44.92 73.29,84.41 7,39.49 -8.28,79.64 -39.78,104.47 0,0 160.86,93.42 482.58,280.25"
         style="fill:#7bd1a7;fill-opacity:1;fill-rule:evenodd;stroke:none"
         id="path76" />
      <path
         d="m 2832.35,2678.72 c 211.69,14.62 383.31,-77.17 383.31,-205.04 0,-127.86 -171.62,-243.36 -383.31,-257.97 -211.68,-14.62 -383.3,77.17 -383.3,205.04 0,127.86 171.62,243.35 383.3,257.97"
         style="fill:#39b976;fill-opacity:1;fill-rule:evenodd;stroke:none"
         id="path78" />
      <path
         d="m 3018.57,2415.83 -101.53,52.15 12.02,5.06 c 12.83,5.39 19.96,9.52 21.58,12.36 1.66,2.87 -1.36,6.25 -9.09,10.23 -6.19,3.17 -12.54,4.83 -19.01,5 -6.52,0.14 -13.16,-1.2 -20.04,-4.09 -11.35,-4.78 -16.15,-9.77 -14.32,-14.95 1.64,-5.07 11.1,-18.19 28.23,-39.3 14.6,-17.93 23.68,-30.57 27.16,-37.85 3.4,-7.32 2.96,-14.89 -1.45,-22.77 -4.41,-7.87 -14.66,-15.22 -30.79,-22.01 -25.83,-10.86 -54.82,-14.95 -86.98,-12.19 -32.17,2.76 -67.44,12.4 -105.82,28.84 l -27.24,-11.46 -46.9,24.09 27.96,11.77 c -25.23,14.74 -41.46,30.05 -48.72,45.94 -7.33,15.86 5.25,30.62 37.58,44.21 l 14.17,5.96 101.54,-52.14 -17.74,-7.46 c -19.51,-8.2 -30.57,-13.82 -33.14,-16.9 -2.67,-3.05 0.07,-6.64 8.06,-10.74 6.88,-3.53 13.68,-5.48 20.29,-5.84 6.66,-0.32 13.2,0.9 19.64,3.62 16.26,6.83 26.29,12.58 30.11,17.14 3.81,4.59 0.66,13.36 -9.76,26.4 -17.08,21.78 -27.94,36.88 -32.6,45.34 -4.52,8.46 -5.08,17.28 -1.26,26.44 3.68,9.17 13.03,16.87 28,23.16 21.66,9.11 47.23,11.86 76.74,8.22 29.53,-3.64 62.91,-13.68 100.15,-30.11 l 23.18,9.75 46.92,-24.08 -23.19,-9.75 c 28.46,-17.32 44.43,-32.51 47.91,-45.65 3.4,-13.09 -5.6,-24.18 -27.02,-33.18 -2.94,-1.24 -7.88,-3 -14.64,-5.21"
         style="fill:#ffffff;fill-opacity:1;fill-rule:nonzero;stroke:none"
         id="path80" />
      <path
         d="m 2295.48,11.6211 c 28.93,-16.64063 59.47,-15.42188 91.64,3.6602 0,0 312.18,182.4377 936.53,547.2967 17.88,9.742 26.31,21.231 26.05,32.781 0,0 0,92.082 0,276.211 -126.93,-41.66 -208.11,-80.261 -243.59,-115.808 L 1277.31,1826.48 c -26.3,13.58 -48.99,17.01 -79.15,0 l -707.566,-410.9 c -38.336,33.56 -135.539,65.31 -291.68,95.26 V 1235.6 c -0.242,-8.07 6.395,-16.23 18.848,-24.01 C 1602.92,411.609 2295.48,11.6211 2295.48,11.6211"
         style="fill:#216c4a;fill-opacity:1;fill-rule:evenodd;stroke:none"
         id="path82" />
      <path
         d="m 2295.48,287.828 c 28.93,-16.637 59.47,-15.418 91.64,3.672 0,0 312.18,182.43 936.53,547.289 35.74,19.461 33.75,45.969 -0.13,65.91 0,0 -682.07,399.331 -2046.21,1197.991 -26.3,13.58 -48.99,17.01 -79.15,0 0,0 -326.801,-189.78 -980.398,-569.34 -26.383,-14.28 -23.879,-30.64 0,-45.54 C 1602.92,687.82 2295.48,287.828 2295.48,287.828"
         style="fill:#39b976;fill-opacity:1;fill-rule:evenodd;stroke:none"
         id="path84" />
      <path
         d="m 1095.74,1891.09 c 75.64,-70.82 192.86,-72.13 270.06,-3 0,0 524.68,-307.57 1574.03,-922.711 -37.25,-15.258 -63.69,-49.039 -69.53,-88.859 -5.85,-39.84 9.77,-79.801 41.06,-105.11 0,0 -149.88,-87.961 -449.64,-263.879 -91.19,75.52 -222.39,78.258 -316.66,6.617 0,0 -521.81,302.602 -1565.412,907.822 38.122,12.47 66.286,44.91 73.293,84.4 7,39.49 -8.273,79.64 -39.777,104.47 0,0 160.859,93.41 482.576,280.25"
         style="fill:#7bd1a7;fill-opacity:1;fill-rule:evenodd;stroke:none"
         id="path86" />
      <path
         d="m 1765.81,1426.47 c 211.69,14.62 383.3,-77.18 383.3,-205.04 0,-127.86 -171.61,-243.36 -383.3,-257.969 -211.7,-14.633 -383.31,77.179 -383.31,205.039 0,127.86 171.61,243.36 383.31,257.97"
         style="fill:#39b976;fill-opacity:1;fill-rule:evenodd;stroke:none"
         id="path88" />
      <path
         d="m 1952.02,1163.59 -101.54,52.15 12.04,5.05 c 12.81,5.39 19.96,9.52 21.56,12.36 1.67,2.87 -1.35,6.26 -9.07,10.22 -6.19,3.19 -12.55,4.85 -19.02,5.01 -6.53,0.15 -13.17,-1.2 -20.04,-4.09 -11.35,-4.78 -16.15,-9.77 -14.33,-14.94 1.64,-5.09 11.11,-18.19 28.23,-39.32 14.61,-17.93 23.7,-30.55 27.16,-37.85 3.42,-7.3 2.97,-14.87 -1.44,-22.75 -4.42,-7.87 -14.66,-15.23 -30.79,-22.01 -25.83,-10.87 -54.82,-14.96 -86.98,-12.19 -32.17,2.75 -67.45,12.39 -105.82,28.83 l -27.24,-11.46 -46.91,24.09 27.98,11.77 c -25.24,14.74 -41.47,30.06 -48.73,45.95 -7.33,15.85 5.25,30.6 37.58,44.21 l 14.17,5.95 101.54,-52.14 -17.74,-7.46 c -19.51,-8.21 -30.56,-13.81 -33.14,-16.91 -2.66,-3.05 0.08,-6.62 8.06,-10.73 6.88,-3.53 13.68,-5.48 20.28,-5.83 6.67,-0.33 13.21,0.9 19.65,3.61 16.26,6.84 26.29,12.58 30.11,17.15 3.82,4.58 0.66,13.36 -9.76,26.4 -17.08,21.77 -27.95,36.87 -32.6,45.34 -4.53,8.44 -5.08,17.27 -1.26,26.43 3.69,9.17 13.02,16.87 27.99,23.17 21.66,9.11 47.25,11.84 76.76,8.21 29.51,-3.63 62.9,-13.67 100.14,-30.11 l 23.19,9.76 46.91,-24.08 -23.2,-9.76 c 28.47,-17.31 44.44,-32.51 47.92,-45.64 3.4,-13.1 -5.6,-24.18 -27.01,-33.19 -2.94,-1.24 -7.89,-3 -14.65,-5.2"
         style="fill:#ffffff;fill-opacity:1;fill-rule:nonzero;stroke:none"
         id="path90" />
      <path
         d="m 4753.21,1266.69 c 249.77,17.25 459.85,-70.8 521.2,-205.74 5.98,0.42 12.1,-0.31 18.04,-2.29 l -0.05,-73.332 c 0.09,-2.367 0.16,-4.75 0.16,-7.137 0,-2.531 -0.07,-5.062 -0.16,-7.582 v -0.41 h -0.02 c -7,-176.711 -245.71,-334.75 -539.17,-355.008 -291.82,-20.16 -529.49,103.438 -539,277.637 h -0.04 v 0.633 c -0.17,3.398 -0.29,6.809 -0.29,10.23 0,3.129 0.09,6.239 0.23,9.348 l -0.23,77.609 c 6.14,-0.089 12,-1.308 17.38,-3.449 60.37,144.231 271.17,262.171 521.95,279.491"
         style="fill:#ec621a;fill-opacity:1;fill-rule:evenodd;stroke:none"
         id="path92" />
      <path
         d="m 4753.21,1353.65 c 297.88,20.56 539.35,-108.61 539.35,-288.52 0,-179.911 -241.47,-342.419 -539.35,-363.001 -297.86,-20.559 -539.33,108.609 -539.33,288.519 0,179.912 241.47,342.422 539.33,363.002"
         style="fill:#fbd028;fill-opacity:1;fill-rule:evenodd;stroke:none"
         id="path94" />
      <path
         d="m 4753.21,1277.84 c 237.77,15.78 430.52,-83.34 430.52,-221.38 0,-138.042 -192.75,-262.741 -430.52,-278.519 -237.75,-15.781 -430.49,83.329 -430.49,221.368 0,138.051 192.74,262.741 430.49,278.531"
         style="fill:#ec621a;fill-opacity:1;fill-rule:evenodd;stroke:none"
         id="path96" />
      <path
         d="m 4991.61,987.719 -129.98,66.761 15.39,6.47 c 16.42,6.9 25.57,12.19 27.63,15.83 2.13,3.67 -1.74,8.01 -11.63,13.09 -7.92,4.06 -16.07,6.19 -24.34,6.4 -8.36,0.19 -16.86,-1.53 -25.66,-5.24 -14.52,-6.11 -20.68,-12.49 -18.34,-19.12 2.1,-6.51 14.21,-23.29 36.14,-50.33 18.69,-22.951 30.32,-39.131 34.77,-48.459 4.37,-9.359 3.81,-19.051 -1.85,-29.133 -5.65,-10.078 -18.76,-19.5 -39.41,-28.187 -33.08,-13.903 -70.19,-19.141 -111.36,-15.602 -41.17,3.531 -86.35,15.871 -135.47,36.922 l -34.88,-14.68 -60.05,30.84 35.82,15.071 c -32.3,18.867 -53.09,38.488 -62.38,58.818 -9.39,20.3 6.71,39.19 48.1,56.59 l 18.15,7.64 129.99,-66.76 -22.71,-9.54 c -24.98,-10.51 -39.13,-17.69 -42.43,-21.651 -3.41,-3.898 0.1,-8.488 10.32,-13.738 8.8,-4.52 17.51,-7.012 25.97,-7.473 8.53,-0.41 16.9,1.153 25.16,4.633 20.81,8.75 33.65,16.098 38.54,21.949 4.88,5.86 0.84,17.11 -12.5,33.79 -21.86,27.89 -35.77,47.21 -41.74,58.05 -5.79,10.83 -6.5,22.13 -1.61,33.84 4.72,11.74 16.68,21.6 35.84,29.66 27.74,11.66 60.49,15.17 98.26,10.51 37.8,-4.66 80.53,-17.5 128.21,-38.53 l 29.68,12.48 60.06,-30.83 -29.7,-12.49 c 36.45,-22.16 56.89,-41.62 61.35,-58.44 4.36,-16.76 -7.17,-30.95 -34.58,-42.481 -3.77,-1.578 -10.1,-3.84 -18.76,-6.66"
         style="fill:#ffffff;fill-opacity:1;fill-rule:nonzero;stroke:none"
         id="path98" />
      <path
         d="m 4753.21,1372.07 c 249.77,17.25 459.85,-70.8 521.2,-205.75 5.98,0.43 12.1,-0.3 18.04,-2.29 l -0.05,-73.31 c 0.09,-2.39 0.16,-4.76 0.16,-7.16 0,-2.53 -0.07,-5.05 -0.16,-7.57 v -0.41 l -0.02,-0.01 c -7,-176.699 -245.71,-334.75 -539.17,-355 -291.82,-20.16 -529.49,103.442 -539,277.649 h -0.04 v 0.609 c -0.17,3.402 -0.29,6.812 -0.29,10.252 0,3.11 0.09,6.23 0.23,9.34 l -0.23,77.61 c 6.14,-0.1 12,-1.31 17.38,-3.45 60.37,144.23 271.17,262.18 521.95,279.49"
         style="fill:#ec621a;fill-opacity:1;fill-rule:evenodd;stroke:none"
         id="path100" />
      <path
         d="m 4753.21,1459.02 c 297.88,20.56 539.35,-108.61 539.35,-288.51 0,-179.908 -241.47,-342.432 -539.35,-362.998 -297.86,-20.563 -539.33,108.609 -539.33,288.518 0,179.9 241.47,342.42 539.33,362.99"
         style="fill:#fbd028;fill-opacity:1;fill-rule:evenodd;stroke:none"
         id="path102" />
      <path
         d="m 4753.21,1383.21 c 237.77,15.79 430.52,-83.32 430.52,-221.37 0,-138.05 -192.75,-262.738 -430.52,-278.52 -237.75,-15.781 -430.49,83.321 -430.49,221.37 0,138.05 192.74,262.74 430.49,278.52"
         style="fill:#ec621a;fill-opacity:1;fill-rule:evenodd;stroke:none"
         id="path104" />
      <path
         d="m 4991.61,1093.1 -129.98,66.75 15.39,6.48 c 16.42,6.91 25.57,12.19 27.63,15.82 2.13,3.68 -1.74,8.01 -11.63,13.1 -7.92,4.06 -16.07,6.19 -24.34,6.39 -8.36,0.2 -16.86,-1.53 -25.66,-5.23 -14.52,-6.11 -20.68,-12.49 -18.34,-19.12 2.1,-6.52 14.21,-23.3 36.14,-50.33 18.69,-22.96 30.32,-39.13 34.77,-48.46 4.37,-9.37 3.81,-19.05 -1.85,-29.13 -5.65,-10.09 -18.76,-19.5 -39.41,-28.2 -33.08,-13.9 -70.19,-19.13 -111.36,-15.59 -41.17,3.53 -86.35,15.87 -135.47,36.91 l -34.88,-14.66 -60.05,30.84 35.82,15.05 c -32.3,18.88 -53.09,38.49 -62.38,58.83 -9.39,20.29 6.71,39.18 48.1,56.59 l 18.15,7.64 129.99,-66.76 -22.71,-9.55 c -24.98,-10.5 -39.13,-17.68 -42.43,-21.64 -3.41,-3.91 0.1,-8.49 10.32,-13.74 8.8,-4.52 17.51,-7.02 25.97,-7.47 8.53,-0.41 16.9,1.15 25.16,4.62 20.81,8.75 33.65,16.11 38.54,21.96 4.88,5.86 0.84,17.1 -12.5,33.78 -21.86,27.89 -35.77,47.22 -41.74,58.06 -5.79,10.82 -6.5,22.12 -1.61,33.85 4.72,11.73 16.68,21.59 35.84,29.64 27.74,11.67 60.49,15.17 98.26,10.52 37.8,-4.66 80.53,-17.5 128.21,-38.54 l 29.68,12.49 60.06,-30.84 -29.7,-12.48 c 36.45,-22.17 56.89,-41.62 61.35,-58.44 4.36,-16.76 -7.17,-30.95 -34.58,-42.48 -3.77,-1.58 -10.1,-3.84 -18.76,-6.66"
         style="fill:#ffffff;fill-opacity:1;fill-rule:nonzero;stroke:none"
         id="path106" />
      <path
         d="m 4753.21,1474.94 c 249.77,17.25 459.85,-70.8 521.2,-205.75 5.98,0.42 12.1,-0.3 18.04,-2.28 l -0.05,-73.32 c 0.09,-2.38 0.16,-4.76 0.16,-7.16 0,-2.53 -0.07,-5.05 -0.16,-7.57 v -0.41 l -0.02,-0.01 c -7,-176.71 -245.71,-334.749 -539.17,-355.01 -291.82,-20.149 -529.49,103.441 -539,277.65 h -0.04 v 0.62 c -0.17,3.4 -0.29,6.81 -0.29,10.25 0,3.11 0.09,6.23 0.23,9.34 l -0.23,77.6 c 6.14,-0.09 12,-1.3 17.38,-3.45 60.37,144.23 271.17,262.18 521.95,279.5"
         style="fill:#ec621a;fill-opacity:1;fill-rule:evenodd;stroke:none"
         id="path108" />
      <path
         d="m 4753.21,1561.89 c 297.88,20.56 539.35,-108.61 539.35,-288.52 0,-179.9 -241.47,-342.421 -539.35,-362.991 -297.86,-20.559 -539.33,108.611 -539.33,288.511 0,179.91 241.47,342.43 539.33,363"
         style="fill:#fbd028;fill-opacity:1;fill-rule:evenodd;stroke:none"
         id="path110" />
      <path
         d="m 4753.21,1486.08 c 237.77,15.78 430.52,-83.33 430.52,-221.37 0,-138.05 -192.75,-262.74 -430.52,-278.519 -237.75,-15.793 -430.49,83.319 -430.49,221.369 0,138.04 192.74,262.74 430.49,278.52"
         style="fill:#ec621a;fill-opacity:1;fill-rule:evenodd;stroke:none"
         id="path112" />
      <path
         d="m 4991.61,1195.97 -129.98,66.75 15.39,6.48 c 16.42,6.91 25.57,12.19 27.63,15.82 2.13,3.67 -1.74,8.01 -11.63,13.09 -7.92,4.07 -16.07,6.19 -24.34,6.41 -8.36,0.18 -16.86,-1.54 -25.66,-5.24 -14.52,-6.11 -20.68,-12.5 -18.34,-19.12 2.1,-6.51 14.21,-23.3 36.14,-50.33 18.69,-22.96 30.32,-39.13 34.77,-48.46 4.37,-9.37 3.81,-19.05 -1.85,-29.14 -5.65,-10.08 -18.76,-19.49 -39.41,-28.18 -33.08,-13.91 -70.19,-19.13 -111.36,-15.6 -41.17,3.54 -86.35,15.86 -135.47,36.91 l -34.88,-14.66 -60.05,30.84 35.82,15.05 c -32.3,18.88 -53.09,38.49 -62.38,58.83 -9.39,20.3 6.71,39.18 48.1,56.59 l 18.15,7.63 129.99,-66.75 -22.71,-9.55 c -24.98,-10.5 -39.13,-17.68 -42.43,-21.64 -3.41,-3.9 0.1,-8.49 10.32,-13.74 8.8,-4.52 17.51,-7.01 25.97,-7.47 8.53,-0.41 16.9,1.15 25.16,4.62 20.81,8.75 33.65,16.11 38.54,21.96 4.88,5.85 0.84,17.1 -12.5,33.78 -21.86,27.89 -35.77,47.22 -41.74,58.06 -5.79,10.82 -6.5,22.12 -1.61,33.84 4.72,11.75 16.68,21.6 35.84,29.66 27.74,11.67 60.49,15.16 98.26,10.51 37.8,-4.66 80.53,-17.5 128.21,-38.54 l 29.68,12.49 60.06,-30.83 -29.7,-12.49 c 36.45,-22.17 56.89,-41.62 61.35,-58.44 4.36,-16.77 -7.17,-30.96 -34.58,-42.49 -3.77,-1.58 -10.1,-3.84 -18.76,-6.65"
         style="fill:#ffffff;fill-opacity:1;fill-rule:nonzero;stroke:none"
         id="path114" />
      <path
         d="m 4753.21,1580.32 c 249.77,17.24 459.85,-70.81 521.2,-205.75 5.98,0.42 12.1,-0.3 18.04,-2.29 l -0.05,-73.31 c 0.09,-2.38 0.16,-4.77 0.16,-7.16 0,-2.53 -0.07,-5.05 -0.16,-7.57 v -0.42 h -0.02 c -7,-176.71 -245.71,-334.75 -539.17,-355.011 -291.82,-20.149 -529.49,103.441 -539,277.651 h -0.04 v 0.62 c -0.17,3.4 -0.29,6.81 -0.29,10.25 0,3.11 0.09,6.23 0.23,9.33 l -0.23,77.61 c 6.14,-0.09 12,-1.3 17.38,-3.45 60.37,144.23 271.17,262.18 521.95,279.5"
         style="fill:#ec621a;fill-opacity:1;fill-rule:evenodd;stroke:none"
         id="path116" />
      <path
         d="m 4753.21,1667.27 c 297.88,20.57 539.35,-108.6 539.35,-288.52 0,-179.91 -241.47,-342.42 -539.35,-362.99 -297.86,-20.569 -539.33,108.6 -539.33,288.51 0,179.91 241.47,342.43 539.33,363"
         style="fill:#fbd028;fill-opacity:1;fill-rule:evenodd;stroke:none"
         id="path118" />
      <path
         d="m 4753.21,1591.46 c 237.77,15.78 430.52,-83.33 430.52,-221.37 0,-138.05 -192.75,-262.74 -430.52,-278.52 -237.75,-15.79 -430.49,83.33 -430.49,221.37 0,138.04 192.74,262.74 430.49,278.52"
         style="fill:#ec621a;fill-opacity:1;fill-rule:evenodd;stroke:none"
         id="path120" />
      <path
         d="m 4991.61,1301.35 -129.98,66.75 15.39,6.47 c 16.42,6.91 25.57,12.2 27.63,15.83 2.13,3.68 -1.74,8.01 -11.63,13.09 -7.92,4.07 -16.07,6.19 -24.34,6.41 -8.36,0.18 -16.86,-1.54 -25.66,-5.25 -14.52,-6.1 -20.68,-12.49 -18.34,-19.12 2.1,-6.5 14.21,-23.29 36.14,-50.33 18.69,-22.95 30.32,-39.12 34.77,-48.45 4.37,-9.36 3.81,-19.05 -1.85,-29.14 -5.65,-10.08 -18.76,-19.49 -39.41,-28.18 -33.08,-13.91 -70.19,-19.14 -111.36,-15.6 -41.17,3.53 -86.35,15.86 -135.47,36.92 l -34.88,-14.68 -60.05,30.85 35.82,15.06 c -32.3,18.87 -53.09,38.48 -62.38,58.81 -9.39,20.31 6.71,39.19 48.1,56.6 l 18.15,7.63 129.99,-66.75 -22.71,-9.55 c -24.98,-10.5 -39.13,-17.69 -42.43,-21.65 -3.41,-3.89 0.1,-8.48 10.32,-13.74 8.8,-4.51 17.51,-7.01 25.97,-7.47 8.53,-0.41 16.9,1.15 25.16,4.63 20.81,8.75 33.65,16.1 38.54,21.96 4.88,5.85 0.84,17.1 -12.5,33.78 -21.86,27.89 -35.77,47.21 -41.74,58.05 -5.79,10.83 -6.5,22.13 -1.61,33.85 4.72,11.74 16.68,21.59 35.84,29.66 27.74,11.66 60.49,15.16 98.26,10.51 37.8,-4.65 80.53,-17.51 128.21,-38.54 l 29.68,12.49 60.06,-30.84 -29.7,-12.49 c 36.45,-22.16 56.89,-41.61 61.35,-58.43 4.36,-16.77 -7.17,-30.96 -34.58,-42.49 -3.77,-1.58 -10.1,-3.84 -18.76,-6.65"
         style="fill:#ffffff;fill-opacity:1;fill-rule:nonzero;stroke:none"
         id="path122" />
      <path
         d="m 4753.21,1687.31 c 249.77,17.24 459.85,-70.79 521.2,-205.74 5.98,0.42 12.1,-0.31 18.04,-2.3 l -0.05,-73.31 c 0.09,-2.38 0.16,-4.77 0.16,-7.16 0,-2.53 -0.07,-5.05 -0.16,-7.57 v -0.42 h -0.02 c -7,-176.71 -245.71,-334.74 -539.17,-355.01 -291.82,-20.14 -529.49,103.45 -539,277.65 h -0.04 v 0.63 c -0.17,3.39 -0.29,6.8 -0.29,10.24 0,3.11 0.09,6.23 0.23,9.34 l -0.23,77.6 c 6.14,-0.09 12,-1.3 17.38,-3.44 60.37,144.22 271.17,262.17 521.95,279.49"
         style="fill:#ec621a;fill-opacity:1;fill-rule:evenodd;stroke:none"
         id="path124" />
      <path
         d="m 4753.21,1774.26 c 297.88,20.57 539.35,-108.6 539.35,-288.51 0,-179.92 -241.47,-342.43 -539.35,-362.99 -297.86,-20.57 -539.33,108.6 -539.33,288.5 0,179.91 241.47,342.43 539.33,363"
         style="fill:#fbd028;fill-opacity:1;fill-rule:evenodd;stroke:none"
         id="path126" />
      <path
         d="m 4753.21,1698.45 c 237.77,15.78 430.52,-83.33 430.52,-221.37 0,-138.04 -192.75,-262.74 -430.52,-278.52 -237.75,-15.78 -430.49,83.33 -430.49,221.37 0,138.04 192.74,262.74 430.49,278.52"
         style="fill:#ec621a;fill-opacity:1;fill-rule:evenodd;stroke:none"
         id="path128" />
      <path
         d="m 4991.61,1408.34 -129.98,66.75 15.39,6.48 c 16.42,6.9 25.57,12.19 27.63,15.83 2.13,3.67 -1.74,8 -11.63,13.08 -7.92,4.07 -16.07,6.19 -24.34,6.41 -8.36,0.18 -16.86,-1.54 -25.66,-5.24 -14.52,-6.11 -20.68,-12.5 -18.34,-19.12 2.1,-6.51 14.21,-23.3 36.14,-50.33 18.69,-22.96 30.32,-39.13 34.77,-48.46 4.37,-9.36 3.81,-19.05 -1.85,-29.13 -5.65,-10.09 -18.76,-19.5 -39.41,-28.19 -33.08,-13.91 -70.19,-19.14 -111.36,-15.6 -41.17,3.53 -86.35,15.86 -135.47,36.92 l -34.88,-14.67 -60.05,30.84 35.82,15.06 c -32.3,18.87 -53.09,38.48 -62.38,58.82 -9.39,20.3 6.71,39.19 48.1,56.6 l 18.15,7.62 129.99,-66.74 -22.71,-9.55 c -24.98,-10.51 -39.13,-17.7 -42.43,-21.65 -3.41,-3.9 0.1,-8.49 10.32,-13.74 8.8,-4.52 17.51,-7.02 25.97,-7.48 8.53,-0.41 16.9,1.16 25.16,4.63 20.81,8.75 33.65,16.11 38.54,21.97 4.88,5.85 0.84,17.1 -12.5,33.78 -21.86,27.89 -35.77,47.2 -41.74,58.05 -5.79,10.82 -6.5,22.12 -1.61,33.84 4.72,11.74 16.68,21.59 35.84,29.66 27.74,11.66 60.49,15.16 98.26,10.52 37.8,-4.66 80.53,-17.51 128.21,-38.55 l 29.68,12.49 60.06,-30.84 -29.7,-12.48 c 36.45,-22.17 56.89,-41.62 61.35,-58.44 4.36,-16.76 -7.17,-30.95 -34.58,-42.49 -3.77,-1.58 -10.1,-3.83 -18.76,-6.65"
         style="fill:#ffffff;fill-opacity:1;fill-rule:nonzero;stroke:none"
         id="path130" />
      <path
         d="m 4753.21,1792.69 c 249.77,17.24 459.85,-70.8 521.2,-205.74 5.98,0.42 12.1,-0.32 18.04,-2.3 l -0.05,-73.32 c 0.09,-2.37 0.16,-4.75 0.16,-7.15 0,-2.53 -0.07,-5.05 -0.16,-7.57 v -0.42 h -0.02 c -7,-176.7 -245.71,-334.74 -539.17,-355.01 -291.82,-20.14 -529.49,103.44 -539,277.65 h -0.04 v 0.63 c -0.17,3.39 -0.29,6.8 -0.29,10.23 0,3.13 0.09,6.23 0.23,9.35 l -0.23,77.6 c 6.14,-0.08 12,-1.3 17.38,-3.44 60.37,144.22 271.17,262.17 521.95,279.49"
         style="fill:#ec621a;fill-opacity:1;fill-rule:evenodd;stroke:none"
         id="path132" />
      <path
         d="m 4753.21,1879.63 c 297.88,20.58 539.35,-108.59 539.35,-288.5 0,-179.91 -241.47,-342.43 -539.35,-362.99 -297.86,-20.58 -539.33,108.59 -539.33,288.5 0,179.91 241.47,342.43 539.33,362.99"
         style="fill:#fbd028;fill-opacity:1;fill-rule:evenodd;stroke:none"
         id="path134" />
      <path
         d="m 4753.21,1803.83 c 237.77,15.78 430.52,-83.33 430.52,-221.38 0,-138.03 -192.75,-262.73 -430.52,-278.51 -237.75,-15.78 -430.49,83.33 -430.49,221.37 0,138.04 192.74,262.74 430.49,278.52"
         style="fill:#ec621a;fill-opacity:1;fill-rule:evenodd;stroke:none"
         id="path136" />
      <path
         d="m 4991.61,1513.72 -129.98,66.75 15.39,6.48 c 16.42,6.9 25.57,12.18 27.63,15.83 2.13,3.67 -1.74,8 -11.63,13.08 -7.92,4.06 -16.07,6.19 -24.34,6.41 -8.36,0.18 -16.86,-1.54 -25.66,-5.25 -14.52,-6.1 -20.68,-12.49 -18.34,-19.12 2.1,-6.5 14.21,-23.29 36.14,-50.33 18.69,-22.95 30.32,-39.12 34.77,-48.45 4.37,-9.37 3.81,-19.05 -1.85,-29.14 -5.65,-10.07 -18.76,-19.49 -39.41,-28.18 -33.08,-13.91 -70.19,-19.14 -111.36,-15.6 -41.17,3.53 -86.35,15.86 -135.47,36.92 l -34.88,-14.68 -60.05,30.84 35.82,15.07 c -32.3,18.87 -53.09,38.49 -62.38,58.82 -9.39,20.3 6.71,39.19 48.1,56.59 l 18.15,7.64 129.99,-66.75 -22.71,-9.55 c -24.98,-10.51 -39.13,-17.7 -42.43,-21.65 -3.41,-3.9 0.1,-8.49 10.32,-13.74 8.8,-4.53 17.51,-7.02 25.97,-7.47 8.53,-0.41 16.9,1.15 25.16,4.62 20.81,8.75 33.65,16.11 38.54,21.97 4.88,5.85 0.84,17.09 -12.5,33.78 -21.86,27.89 -35.77,47.2 -41.74,58.04 -5.79,10.82 -6.5,22.13 -1.61,33.85 4.72,11.74 16.68,21.59 35.84,29.66 27.74,11.66 60.49,15.17 98.26,10.52 37.8,-4.67 80.53,-17.51 128.21,-38.55 l 29.68,12.49 60.06,-30.84 -29.7,-12.49 c 36.45,-22.17 56.89,-41.61 61.35,-58.43 4.36,-16.76 -7.17,-30.95 -34.58,-42.49 -3.77,-1.58 -10.1,-3.83 -18.76,-6.65"
         style="fill:#ffffff;fill-opacity:1;fill-rule:nonzero;stroke:none"
         id="path138" />
      <path
         d="m 4753.21,1895.56 c 249.77,17.25 459.85,-70.8 521.2,-205.74 5.98,0.42 12.1,-0.32 18.04,-2.3 l -0.05,-73.32 c 0.09,-2.37 0.16,-4.75 0.16,-7.16 0,-2.52 -0.07,-5.04 -0.16,-7.56 v -0.41 h -0.02 c -7,-176.72 -245.71,-334.75 -539.17,-355.01 -291.82,-20.16 -529.49,103.43 -539,277.64 h -0.04 v 0.63 c -0.17,3.4 -0.29,6.8 -0.29,10.23 0,3.13 0.09,6.24 0.23,9.35 l -0.23,77.59 c 6.14,-0.07 12,-1.29 17.38,-3.43 60.37,144.22 271.17,262.17 521.95,279.49"
         style="fill:#ec621a;fill-opacity:1;fill-rule:evenodd;stroke:none"
         id="path140" />
      <path
         d="m 4753.21,1982.5 c 297.88,20.57 539.35,-108.6 539.35,-288.5 0,-179.91 -241.47,-342.43 -539.35,-363 -297.86,-20.57 -539.33,108.6 -539.33,288.5 0,179.92 241.47,342.44 539.33,363"
         style="fill:#fbd028;fill-opacity:1;fill-rule:evenodd;stroke:none"
         id="path142" />
      <path
         d="m 4753.21,1906.7 c 237.77,15.78 430.52,-83.33 430.52,-221.37 0,-138.04 -192.75,-262.74 -430.52,-278.52 -237.75,-15.78 -430.49,83.33 -430.49,221.37 0,138.03 192.74,262.74 430.49,278.52"
         style="fill:#ec621a;fill-opacity:1;fill-rule:evenodd;stroke:none"
         id="path144" />
      <path
         d="m 4991.61,1616.59 -129.98,66.75 15.39,6.48 c 16.42,6.9 25.57,12.18 27.63,15.83 2.13,3.67 -1.74,8.01 -11.63,13.08 -7.92,4.07 -16.07,6.19 -24.34,6.41 -8.36,0.19 -16.86,-1.54 -25.66,-5.24 -14.52,-6.12 -20.68,-12.49 -18.34,-19.13 2.1,-6.51 14.21,-23.29 36.14,-50.33 18.69,-22.95 30.32,-39.13 34.77,-48.45 4.37,-9.36 3.81,-19.05 -1.85,-29.14 -5.65,-10.07 -18.76,-19.5 -39.41,-28.18 -33.08,-13.91 -70.19,-19.14 -111.36,-15.6 -41.17,3.53 -86.35,15.86 -135.47,36.91 l -34.88,-14.67 -60.05,30.84 35.82,15.07 c -32.3,18.87 -53.09,38.49 -62.38,58.82 -9.39,20.3 6.71,39.19 48.1,56.59 l 18.15,7.64 129.99,-66.76 -22.71,-9.55 c -24.98,-10.5 -39.13,-17.69 -42.43,-21.64 -3.41,-3.9 0.1,-8.49 10.32,-13.74 8.8,-4.52 17.51,-7.01 25.97,-7.47 8.53,-0.41 16.9,1.15 25.16,4.62 20.81,8.76 33.65,16.11 38.54,21.96 4.88,5.86 0.84,17.1 -12.5,33.79 -21.86,27.89 -35.77,47.2 -41.74,58.04 -5.79,10.82 -6.5,22.13 -1.61,33.85 4.72,11.74 16.68,21.59 35.84,29.66 27.74,11.66 60.49,15.16 98.26,10.51 37.8,-4.66 80.53,-17.5 128.21,-38.54 l 29.68,12.48 60.06,-30.83 -29.7,-12.49 c 36.45,-22.16 56.89,-41.61 61.35,-58.43 4.36,-16.77 -7.17,-30.95 -34.58,-42.48 -3.77,-1.59 -10.1,-3.84 -18.76,-6.66"
         style="fill:#ffffff;fill-opacity:1;fill-rule:nonzero;stroke:none"
         id="path146" />
      <path
         d="m 4753.21,2000.93 c 249.77,17.26 459.85,-70.8 521.2,-205.74 5.98,0.42 12.1,-0.3 18.04,-2.3 l -0.05,-73.31 c 0.09,-2.38 0.16,-4.76 0.16,-7.16 0,-2.52 -0.07,-5.04 -0.16,-7.56 v -0.41 l -0.02,-0.01 c -7,-176.71 -245.71,-334.75 -539.17,-355 -291.82,-20.16 -529.49,103.43 -539,277.64 h -0.04 v 0.62 c -0.17,3.4 -0.29,6.8 -0.29,10.24 0,3.12 0.09,6.23 0.23,9.35 l -0.23,77.6 c 6.14,-0.09 12,-1.3 17.38,-3.44 60.37,144.23 271.17,262.17 521.95,279.48"
         style="fill:#ec621a;fill-opacity:1;fill-rule:evenodd;stroke:none"
         id="path148" />
      <path
         d="m 4753.21,2087.88 c 297.88,20.57 539.35,-108.6 539.35,-288.51 0,-179.9 -241.47,-342.42 -539.35,-362.99 -297.86,-20.57 -539.33,108.6 -539.33,288.51 0,179.91 241.47,342.43 539.33,362.99"
         style="fill:#fbd028;fill-opacity:1;fill-rule:evenodd;stroke:none"
         id="path150" />
      <path
         d="m 4753.21,2012.07 c 237.77,15.79 430.52,-83.32 430.52,-221.36 0,-138.05 -192.75,-262.74 -430.52,-278.53 -237.75,-15.77 -430.49,83.33 -430.49,221.38 0,138.03 192.74,262.73 430.49,278.51"
         style="fill:#ec621a;fill-opacity:1;fill-rule:evenodd;stroke:none"
         id="path152" />
      <path
         d="m 4991.61,1721.97 -129.98,66.74 15.39,6.49 c 16.42,6.89 25.57,12.19 27.63,15.82 2.13,3.68 -1.74,8.01 -11.63,13.08 -7.92,4.08 -16.07,6.21 -24.34,6.41 -8.36,0.2 -16.86,-1.53 -25.66,-5.23 -14.52,-6.12 -20.68,-12.5 -18.34,-19.12 2.1,-6.52 14.21,-23.31 36.14,-50.34 18.69,-22.96 30.32,-39.13 34.77,-48.45 4.37,-9.37 3.81,-19.06 -1.85,-29.13 -5.65,-10.09 -18.76,-19.51 -39.41,-28.2 -33.08,-13.9 -70.19,-19.13 -111.36,-15.59 -41.17,3.53 -86.35,15.87 -135.47,36.91 l -34.88,-14.67 -60.05,30.84 35.82,15.06 c -32.3,18.88 -53.09,38.49 -62.38,58.83 -9.39,20.29 6.71,39.18 48.1,56.59 l 18.15,7.63 129.99,-66.75 -22.71,-9.55 c -24.98,-10.51 -39.13,-17.69 -42.43,-21.65 -3.41,-3.9 0.1,-8.49 10.32,-13.73 8.8,-4.52 17.51,-7.02 25.97,-7.47 8.53,-0.42 16.9,1.15 25.16,4.62 20.81,8.75 33.65,16.11 38.54,21.96 4.88,5.86 0.84,17.1 -12.5,33.78 -21.86,27.89 -35.77,47.21 -41.74,58.06 -5.79,10.82 -6.5,22.11 -1.61,33.84 4.72,11.73 16.68,21.59 35.84,29.65 27.74,11.67 60.49,15.17 98.26,10.52 37.8,-4.66 80.53,-17.5 128.21,-38.55 l 29.68,12.49 60.06,-30.84 -29.7,-12.48 c 36.45,-22.16 56.89,-41.62 61.35,-58.43 4.36,-16.76 -7.17,-30.95 -34.58,-42.48 -3.77,-1.6 -10.1,-3.84 -18.76,-6.66"
         style="fill:#ffffff;fill-opacity:1;fill-rule:nonzero;stroke:none"
         id="path154" />
      <path
         d="m 4083.01,874.461 c 249.76,17.238 459.84,-70.801 521.19,-205.762 5.99,0.43 12.11,-0.301 18.05,-2.281 l -0.05,-73.316 c 0.09,-2.372 0.15,-4.762 0.15,-7.161 0,-2.523 -0.06,-5.05 -0.15,-7.57 v -0.41 l -0.02,-0.012 c -7,-176.711 -245.71,-334.738 -539.17,-355 -291.83,-20.148 -529.49,103.442 -539,277.653 h -0.04 v 0.617 c -0.18,3.39 -0.3,6.812 -0.3,10.242 0,3.117 0.09,6.23 0.24,9.34 l -0.24,77.597 c 6.15,-0.078 12.01,-1.296 17.39,-3.437 60.37,144.219 271.17,262.168 521.95,279.5"
         style="fill:#ec621a;fill-opacity:1;fill-rule:evenodd;stroke:none"
         id="path156" />
      <path
         d="m 4083.01,961.398 c 297.87,20.571 539.34,-108.589 539.34,-288.507 0,-179.911 -241.47,-342.43 -539.34,-362.993 -297.86,-20.57 -539.34,108.602 -539.34,288.5 0,179.911 241.48,342.43 539.34,363"
         style="fill:#fbd028;fill-opacity:1;fill-rule:evenodd;stroke:none"
         id="path158" />
      <path
         d="m 4083.01,885.602 c 237.76,15.769 430.52,-83.332 430.52,-221.383 0,-138.039 -192.76,-262.731 -430.52,-278.508 -237.75,-15.801 -430.5,83.32 -430.5,221.359 0,138.039 192.75,262.739 430.5,278.532"
         style="fill:#ec621a;fill-opacity:1;fill-rule:evenodd;stroke:none"
         id="path160" />
      <path
         d="m 4321.41,595.48 -129.98,66.75 15.39,6.481 c 16.41,6.91 25.56,12.187 27.61,15.82 2.14,3.688 -1.72,8.008 -11.62,13.09 -7.92,4.07 -16.05,6.199 -24.34,6.418 -8.35,0.172 -16.86,-1.551 -25.66,-5.25 -14.52,-6.109 -20.67,-12.488 -18.34,-19.121 2.1,-6.508 14.22,-23.297 36.15,-50.328 18.69,-22.961 30.32,-39.129 34.76,-48.461 4.38,-9.359 3.81,-19.051 -1.84,-29.129 -5.66,-10.09 -18.76,-19.5 -39.42,-28.191 -33.07,-13.911 -70.18,-19.129 -111.36,-15.598 -41.18,3.539 -86.34,15.867 -135.46,36.918 l -34.89,-14.668 -60.05,30.84 35.82,15.07 c -32.3,18.859 -53.08,38.481 -62.38,58.809 -9.38,20.308 6.71,39.191 48.11,56.601 l 18.14,7.629 129.99,-66.75 -22.7,-9.558 c -24.98,-10.5 -39.13,-17.684 -42.43,-21.641 -3.41,-3.891 0.09,-8.492 10.32,-13.742 8.8,-4.52 17.51,-7.008 25.96,-7.469 8.54,-0.41 16.91,1.16 25.16,4.621 20.81,8.758 33.65,16.117 38.55,21.957 4.88,5.852 0.84,17.102 -12.5,33.781 -21.87,27.891 -35.78,47.219 -41.74,58.059 -5.79,10.82 -6.51,22.121 -1.61,33.84 4.71,11.754 16.68,21.601 35.84,29.66 27.73,11.672 60.48,15.16 98.26,10.512 37.79,-4.649 80.53,-17.5 128.2,-38.532 l 29.69,12.481 60.06,-30.828 -29.7,-12.492 c 36.44,-22.168 56.88,-41.618 61.35,-58.438 4.35,-16.762 -7.17,-30.953 -34.58,-42.48 -3.77,-1.59 -10.1,-3.84 -18.76,-6.661"
         style="fill:#ffffff;fill-opacity:1;fill-rule:nonzero;stroke:none"
         id="path162" />
      <path
         d="m 4083.01,979.828 c 249.76,17.25 459.84,-70.789 521.19,-205.75 5.99,0.422 12.11,-0.297 18.05,-2.289 l -0.05,-73.309 c 0.09,-2.378 0.15,-4.769 0.15,-7.16 0,-2.531 -0.06,-5.05 -0.15,-7.57 v -0.422 h -0.02 c -7,-176.707 -245.71,-334.738 -539.17,-355.008 -291.83,-20.14 -529.49,103.45 -539,277.66 h -0.04 v 0.61 c -0.18,3.398 -0.3,6.808 -0.3,10.25 0,3.109 0.09,6.23 0.24,9.328 l -0.24,77.613 c 6.15,-0.09 12.01,-1.301 17.39,-3.453 60.37,144.231 271.17,262.184 521.95,279.5"
         style="fill:#ec621a;fill-opacity:1;fill-rule:evenodd;stroke:none"
         id="path164" />
      <path
         d="m 4083.01,1066.78 c 297.87,20.57 539.34,-108.6 539.34,-288.518 0,-179.903 -241.47,-342.422 -539.34,-362.981 -297.86,-20.582 -539.34,108.59 -539.34,288.5 0,179.91 241.48,342.429 539.34,362.999"
         style="fill:#fbd028;fill-opacity:1;fill-rule:evenodd;stroke:none"
         id="path166" />
      <path
         d="m 4083.01,990.969 c 237.76,15.781 430.52,-83.328 430.52,-221.367 0,-138.043 -192.76,-262.731 -430.52,-278.524 -237.75,-15.777 -430.5,83.332 -430.5,221.371 0,138.039 192.75,262.742 430.5,278.52"
         style="fill:#ec621a;fill-opacity:1;fill-rule:evenodd;stroke:none"
         id="path168" />
      <path
         d="m 4321.41,700.859 -129.98,66.75 15.39,6.481 c 16.41,6.898 25.56,12.191 27.61,15.82 2.14,3.68 -1.72,8.012 -11.62,13.09 -7.92,4.07 -16.05,6.199 -24.34,6.41 -8.35,0.18 -16.86,-1.539 -25.66,-5.25 -14.52,-6.101 -20.67,-12.488 -18.34,-19.109 2.1,-6.512 14.22,-23.301 36.15,-50.332 18.69,-22.961 30.32,-39.129 34.76,-48.457 4.38,-9.364 3.81,-19.051 -1.84,-29.133 -5.66,-10.09 -18.76,-19.5 -39.42,-28.188 -33.07,-13.91 -70.18,-19.14 -111.36,-15.601 -41.18,3.539 -86.34,15.871 -135.46,36.922 l -34.89,-14.672 -60.05,30.84 35.82,15.058 c -32.3,18.871 -53.08,38.481 -62.38,58.821 -9.38,20.3 6.71,39.179 48.11,56.601 l 18.14,7.621 129.99,-66.742 -22.7,-9.551 c -24.98,-10.508 -39.13,-17.687 -42.43,-21.66 -3.41,-3.887 0.09,-8.476 10.32,-13.726 8.8,-4.524 17.51,-7.024 25.96,-7.473 8.54,-0.418 16.91,1.152 25.16,4.621 20.81,8.75 33.65,16.109 38.55,21.969 4.88,5.851 0.84,17.101 -12.5,33.769 -21.87,27.903 -35.78,47.211 -41.74,58.063 -5.79,10.82 -6.51,22.117 -1.61,33.84 4.71,11.738 16.68,21.597 35.84,29.66 27.73,11.66 60.48,15.16 98.26,10.519 37.79,-4.66 80.53,-17.5 128.2,-38.55 l 29.69,12.488 60.06,-30.84 -29.7,-12.477 c 36.44,-22.171 56.88,-41.621 61.35,-58.441 4.35,-16.762 -7.17,-30.949 -34.58,-42.48 -3.77,-1.59 -10.1,-3.852 -18.76,-6.661"
         style="fill:#ffffff;fill-opacity:1;fill-rule:nonzero;stroke:none"
         id="path170" />
      <path
         d="m 4083.01,1082.7 c 249.76,17.24 459.84,-70.8 521.19,-205.739 5.99,0.418 12.11,-0.32 18.05,-2.301 l -0.05,-73.32 c 0.09,-2.371 0.15,-4.762 0.15,-7.149 0,-2.531 -0.06,-5.05 -0.15,-7.57 v -0.422 h -0.02 c -7,-176.711 -245.71,-334.738 -539.17,-355.008 -291.83,-20.14 -529.49,103.438 -539,277.649 h -0.04 v 0.629 c -0.18,3.39 -0.3,6.801 -0.3,10.242 0,3.109 0.09,6.23 0.24,9.34 l -0.24,77.597 c 6.15,-0.078 12.01,-1.308 17.39,-3.437 60.37,144.219 271.17,262.169 521.95,279.489"
         style="fill:#ec621a;fill-opacity:1;fill-rule:evenodd;stroke:none"
         id="path172" />
      <path
         d="m 4083.01,1169.64 c 297.87,20.58 539.34,-108.59 539.34,-288.499 0,-179.911 -241.47,-342.43 -539.34,-362.993 -297.86,-20.578 -539.34,108.59 -539.34,288.5 0,179.922 241.48,342.432 539.34,362.992"
         style="fill:#fbd028;fill-opacity:1;fill-rule:evenodd;stroke:none"
         id="path174" />
      <path
         d="m 4083.01,1093.84 c 237.76,15.78 430.52,-83.33 430.52,-221.371 0,-138.039 -192.76,-262.739 -430.52,-278.52 -237.75,-15.781 -430.5,83.332 -430.5,221.371 0,138.039 192.75,262.74 430.5,278.52"
         style="fill:#ec621a;fill-opacity:1;fill-rule:evenodd;stroke:none"
         id="path176" />
      <path
         d="m 4321.41,803.73 -129.98,66.75 15.39,6.489 c 16.41,6.89 25.56,12.172 27.61,15.82 2.14,3.672 -1.72,8 -11.62,13.082 -7.92,4.059 -16.05,6.188 -24.34,6.41 -8.35,0.18 -16.86,-1.543 -25.66,-5.242 -14.52,-6.109 -20.67,-12.5 -18.34,-19.129 2.1,-6.5 14.22,-23.289 36.15,-50.332 18.69,-22.949 30.32,-39.117 34.76,-48.449 4.38,-9.359 3.81,-19.051 -1.84,-29.141 -5.66,-10.078 -18.76,-19.488 -39.42,-28.179 -33.07,-13.911 -70.18,-19.141 -111.36,-15.598 -41.18,3.527 -86.34,15.859 -135.46,36.918 l -34.89,-14.68 -60.05,30.84 35.82,15.07 c -32.3,18.879 -53.08,38.481 -62.38,58.821 -9.38,20.3 6.71,39.191 48.11,56.59 l 18.14,7.64 129.99,-66.75 -22.7,-9.551 c -24.98,-10.507 -39.13,-17.699 -42.43,-21.648 -3.41,-3.902 0.09,-8.492 10.32,-13.742 8.8,-4.528 17.51,-7.02 25.96,-7.469 8.54,-0.422 16.91,1.16 25.16,4.621 20.81,8.75 33.65,16.109 38.55,21.969 4.88,5.851 0.84,17.101 -12.5,33.781 -21.87,27.891 -35.78,47.199 -41.74,58.051 -5.79,10.816 -6.51,22.117 -1.61,33.836 4.71,11.742 16.68,21.594 35.84,29.66 27.73,11.66 60.48,15.16 98.26,10.523 37.79,-4.671 80.53,-17.511 128.2,-38.55 l 29.69,12.488 60.06,-30.84 -29.7,-12.488 c 36.44,-22.16 56.88,-41.61 61.35,-58.43 4.35,-16.762 -7.17,-30.953 -34.58,-42.492 -3.77,-1.578 -10.1,-3.828 -18.76,-6.649"
         style="fill:#ffffff;fill-opacity:1;fill-rule:nonzero;stroke:none"
         id="path178" />
      <path
         d="m 4083.01,1188.08 c 249.76,17.25 459.84,-70.8 521.19,-205.74 5.99,0.422 12.11,-0.32 18.05,-2.301 l -0.05,-73.32 c 0.09,-2.367 0.15,-4.75 0.15,-7.149 0,-2.531 -0.06,-5.058 -0.15,-7.582 v -0.41 h -0.02 c -7,-176.699 -245.71,-334.738 -539.17,-355.008 -291.83,-20.152 -529.49,103.442 -539,277.649 h -0.04 v 0.633 c -0.18,3.386 -0.3,6.796 -0.3,10.226 0,3.133 0.09,6.242 0.24,9.352 l -0.24,77.601 c 6.15,-0.082 12.01,-1.301 17.39,-3.441 60.37,144.23 271.17,262.16 521.95,279.49"
         style="fill:#ec621a;fill-opacity:1;fill-rule:evenodd;stroke:none"
         id="path180" />
      <path
         d="m 4083.01,1275.03 c 297.87,20.56 539.34,-108.61 539.34,-288.51 0,-179.918 -241.47,-342.43 -539.34,-363 -297.86,-20.571 -539.34,108.601 -539.34,288.511 0,179.919 241.48,342.429 539.34,362.999"
         style="fill:#fbd028;fill-opacity:1;fill-rule:evenodd;stroke:none"
         id="path182" />
      <path
         d="m 4083.01,1199.22 c 237.76,15.78 430.52,-83.33 430.52,-221.38 0,-138.031 -192.76,-262.731 -430.52,-278.512 -237.75,-15.777 -430.5,83.332 -430.5,221.371 0,138.041 192.75,262.741 430.5,278.521"
         style="fill:#ec621a;fill-opacity:1;fill-rule:evenodd;stroke:none"
         id="path184" />
      <path
         d="m 4321.41,909.102 -129.98,66.757 15.39,6.481 c 16.41,6.898 25.56,12.18 27.61,15.828 2.14,3.672 -1.72,8.002 -11.62,13.082 -7.92,4.07 -16.05,6.19 -24.34,6.41 -8.35,0.18 -16.86,-1.54 -25.66,-5.24 -14.52,-6.12 -20.67,-12.502 -18.34,-19.131 2.1,-6.508 14.22,-23.289 36.15,-50.328 18.69,-22.961 30.32,-39.133 34.76,-48.461 4.38,-9.352 3.81,-19.051 -1.84,-29.129 -5.66,-10.07 -18.76,-19.5 -39.42,-28.18 -33.07,-13.91 -70.18,-19.14 -111.36,-15.613 -41.18,3.543 -86.34,15.871 -135.46,36.922 l -34.89,-14.672 -60.05,30.84 35.82,15.07 c -32.3,18.871 -53.08,38.492 -62.38,58.821 -9.38,20.3 6.71,39.191 48.11,56.591 l 18.14,7.64 129.99,-66.759 -22.7,-9.543 c -24.98,-10.508 -39.13,-17.699 -42.43,-21.648 -3.41,-3.899 0.09,-8.492 10.32,-13.738 8.8,-4.532 17.51,-7.024 25.96,-7.473 8.54,-0.41 16.91,1.152 25.16,4.621 20.81,8.75 33.65,16.109 38.55,21.961 4.88,5.859 0.84,17.109 -12.5,33.789 -21.87,27.891 -35.78,47.2 -41.74,58.04 -5.79,10.82 -6.51,22.13 -1.61,33.85 4.71,11.74 16.68,21.59 35.84,29.65 27.73,11.67 60.48,15.18 98.26,10.52 37.79,-4.66 80.53,-17.5 128.2,-38.54 l 29.69,12.48 60.06,-30.83 -29.7,-12.49 c 36.44,-22.16 56.88,-41.61 61.35,-58.442 4.35,-16.75 -7.17,-30.937 -34.58,-42.476 -3.77,-1.582 -10.1,-3.832 -18.76,-6.66"
         style="fill:#ffffff;fill-opacity:1;fill-rule:nonzero;stroke:none"
         id="path186" />
      <path
         d="m 4262.63,3394.68 c 52.78,-30.28 108.11,-10.85 168.34,-3.93 9.73,-56.11 12.31,-96.98 -19.78,-116.36 0,0 -61.27,-36.12 -183.81,-108.36 -76.53,-41.83 -161.52,28.04 -100.69,91.69 0,0 33.57,36.91 100.69,110.74 6.63,14.23 19.9,24.09 35.25,26.22"
         style="fill:#5e54ae;fill-opacity:1;fill-rule:evenodd;stroke:none"
         id="path188" />
      <path
         d="m 3546.04,3735.23 c 52.78,-30.29 113.62,-42.86 173.83,-35.94 1.74,-36.11 -6.69,-64.23 -25.27,-84.36 0,0 -61.27,-36.12 -183.81,-108.35 -76.52,-41.84 -161.52,28.04 -100.69,91.68 0,0 33.56,36.91 100.69,110.74 6.64,14.24 19.89,24.1 35.25,26.23"
         style="fill:#5e54ae;fill-opacity:1;fill-rule:evenodd;stroke:none"
         id="path190" />
      <path
         d="m 3756.69,5096.17 c 132.13,19.17 259.56,-45.43 319.54,-162 0,0 -118.74,-412.47 -356.22,-1237.41 -72.74,-70.99 -182.42,-17.21 -173.84,62.95 0,0 45.92,432.5 210.52,1336.46"
         style="fill:#272961;fill-opacity:1;fill-rule:evenodd;stroke:none"
         id="path192" />
      <path
         d="m 3802.94,4692.98 c 27.94,27.96 69.53,37.52 107.51,24.69 37.99,-12.82 65.86,-45.83 72.07,-85.32 6.21,-39.5 -10.33,-78.72 -42.73,-101.4 0,0 -53.4,-187.36 -160.2,-562.07 0,0 7.78,241.36 23.35,724.1"
         style="fill:#1b1c42;fill-opacity:1;fill-rule:evenodd;stroke:none"
         id="path194" />
      <path
         d="m 3883.36,4712 c 114,60.73 258.82,41.58 363.13,-48.02 0,0 63.35,-424.31 190.04,-1272.91 -37.42,-89.97 -161.28,-75.19 -186.99,2.58 0,0 -139.01,419.44 -366.18,1318.35"
         style="fill:#323387;fill-opacity:1;fill-rule:evenodd;stroke:none"
         id="path196" />
      <path
         d="m 4040.63,4642.32 c 119.63,-11.39 179.44,-17.09 179.44,-17.09 45.77,-289.2 104.05,-642.83 104.05,-642.83 -104.28,232.82 -219.54,507.13 -283.49,659.92"
         style="fill:#272961;fill-opacity:1;fill-rule:evenodd;stroke:none"
         id="path198" />
      <path
         d="m 4092.32,5666.4 c -53.87,52.45 -129.44,52.65 -226.71,0.59 -27.69,-53.54 -14.07,-119.16 32.63,-157.26 46.7,-38.11 113.72,-38.29 160.62,-0.42 46.9,37.86 60.86,103.41 33.46,157.09"
         style="fill:#f8a6a5;fill-opacity:1;fill-rule:evenodd;stroke:none"
         id="path200" />
      <path
         d="m 4106.63,5763.96 c -53.67,49.9 -128.35,49.24 -224.02,-1.96 -27.69,-53.54 -14.06,-119.16 32.64,-157.26 46.69,-38.11 113.72,-38.28 160.61,-0.42 15.24,12.31 27,27.54 35,44.34 -4.75,0 -6.96,0.84 -11.06,2.89 -4.42,2.18 -7.73,5.73 -9.47,10.37 l -5.47,14.58 -3.24,5.69 c -1.51,2.64 -1.97,4.89 -2.54,7.71 -1.63,2.47 -3.34,5.46 -4.19,8.33 -1.8,2.43 -3.06,5.3 -3.54,8.42 -2.22,4.45 -4.22,7.65 -4.22,12.91 v 4 c 0,9.18 6.53,16.82 15.21,18.54 4.57,6.79 12.96,9.86 20.8,7.67 v 1.8 c 0,3.56 1.67,9.2 3.49,12.39"
         style="fill:#e9635e;fill-opacity:1;fill-rule:evenodd;stroke:none"
         id="path202" />
      <path
         d="m 3641.26,5003.21 c 51.33,24.52 81.25,34.1 111.37,30.18 87.24,-85.42 3.65,-211.4 -91.35,-187.79 -65.62,16.33 -71.95,52.9 -24.95,81.72 28.59,18.24 3.72,48.57 4.93,75.89"
         style="fill:#f8a6a5;fill-opacity:1;fill-rule:evenodd;stroke:none"
         id="path204" />
      <path
         d="m 3662.69,5349.59 c 149.82,103.66 218.99,223.37 207.53,359.11 -116.39,-18.79 -186.61,-5.45 -251.6,-90.68 l -169.61,-221.29 c -34.53,-45.03 -35.92,-89.79 -9.95,-126.57 l 176.91,-251.28 27.52,-38.61 c 10.82,1.48 21.29,4.88 30.92,10.04 18.4,84.52 15.39,172.3 -8.77,255.37 l -26.99,40.19 c -13.77,18.85 -2.14,29.18 24.04,63.72"
         style="fill:#867bc5;fill-opacity:1;fill-rule:evenodd;stroke:none"
         id="path206" />
      <path
         d="m 3889.11,5654.71 c -41.3,-3.55 -87.32,-31.76 -92.98,-74.35 -80.31,-228.84 -82.54,-517.87 -6.67,-867.08 58.25,-32.37 122.76,-50.73 188.77,-53.7 -36.69,412.91 7.16,710.97 131.55,894.2 l -11.64,75.26 c 1.29,20.01 -3.19,36.47 -13.45,49.37 -1.81,-3.16 -4.44,-5.76 -7.59,-7.46 1.11,-0.66 1.85,-1.01 1.85,-1.01 -70.99,-234.68 -273.02,-173.5 -189.84,-15.23"
         style="fill:#ffffff;fill-opacity:1;fill-rule:evenodd;stroke:none"
         id="path208" />
      <path
         d="m 3859.48,5638.95 c -105.01,-142.19 -115.6,-312.62 -36.12,-540.7 9.76,-170.33 10.6,-285.33 13.67,-403.75 0.53,-32.73 -63.4,-30.58 -94.9,-10.18 -43.94,25.53 -65.53,63.47 -64.79,113.82 -10.49,221.71 -18.74,468.21 -24.73,739.49 -1.9,76.83 86.74,121.46 212.57,171.06 42.9,-16.83 30.41,-26.4 -5.7,-69.74"
         style="fill:#5e54ae;fill-opacity:1;fill-rule:evenodd;stroke:none"
         id="path210" />
      <path
         d="m 4007.07,4618.09 c 206.03,-32.59 283.28,-2.75 278.04,92.01 -10.27,128.55 5.74,347.33 48.04,656.34 19.97,125.92 -70.47,207.76 -230.57,315.36 0,0 -0.21,-103.02 -48,-182.22 -74.24,-102.95 -121.47,-237.17 -141.73,-402.64 -2.16,-144.12 13.88,-310.01 20.85,-431.49 0.35,-29.93 32.1,-40.89 73.37,-47.36"
         style="fill:#5e54ae;fill-opacity:1;fill-rule:evenodd;stroke:none"
         id="path212" />
      <path
         d="m 3804.88,5096.63 c 6.01,-4.27 14.28,-3.27 19.11,2.3 -62.59,284.53 -20.41,466.28 77.77,567.76 6.53,25.29 0.51,35.6 -18.08,30.94 -99.1,-45.87 -157.9,-114.99 -176.41,-207.35 36.28,-21.34 54.41,-32 54.41,-32 -40.55,-27.74 -60.81,-41.61 -60.81,-41.61 7.3,-102.93 41.97,-209.61 104.01,-320.04"
         style="fill:#867bc5;fill-opacity:1;fill-rule:evenodd;stroke:none"
         id="path214" />
      <path
         d="m 4017.65,4644.77 c 187.43,-30.28 257.72,-2.56 252.95,85.5 -9.35,119.45 5.22,322.76 43.7,609.92 7.4,47.69 -1.89,88.56 -25.34,127.04 -25,-16.43 -51.03,-31.42 -77.96,-44.84 14.2,-57.87 21.74,-118.36 21.74,-180.61 0,-232.15 -104.68,-439.82 -269.36,-578.5 11.96,-9.7 31.52,-14.87 54.27,-18.51"
         style="fill:#323387;fill-opacity:1;fill-rule:evenodd;stroke:none"
         id="path216" />
      <path
         d="m 3906.38,5099.41 c 3.92,-2.67 8.88,-3.33 13.38,-1.79 4.49,1.53 7.99,5.1 9.45,9.62 26.09,120.54 87.07,224.86 182.92,312.98 0,0 -20.05,14.11 -60.16,42.35 0,0 32.68,4 98.02,12 18.72,84.91 -8.29,173.42 -71.24,233.4 -5.14,0.98 -10.39,-0.99 -13.63,-5.09 -3.23,-4.12 -3.92,-9.69 -1.76,-14.46 30.81,-39.83 38.16,-95.03 -3.87,-133.86 -102.16,-98.65 -153.2,-250.37 -153.11,-455.15"
         style="fill:#867bc5;fill-opacity:1;fill-rule:evenodd;stroke:none"
         id="path218" />
      <path
         d="m 4275.01,4789.82 c -32.31,46.81 -53.5,70.01 -81.58,81.6 -118.18,-30.68 -108.37,-181.55 -14.21,-208.35 65.05,-18.48 88.73,10.09 62.3,58.47 -15.72,30.05 20.95,43.98 33.49,68.28"
         style="fill:#f8a6a5;fill-opacity:1;fill-rule:evenodd;stroke:none"
         id="path220" />
      <path
         d="m 4174.61,4902.27 c 12.61,-58.55 56.55,-105.34 114.2,-121.59 0,0 92.28,67.3 276.83,201.9 90.66,64.84 53.72,173.33 -200.21,499.9 -106.42,122.36 -152.22,90.23 -167.33,-89.12 -2.98,-39.86 7.61,-71.43 44.19,-113.01 l 125.54,-136.96 c 16.74,-21.45 28.26,-35.78 10.53,-52.17 -135.83,-125.96 -203.75,-188.95 -203.75,-188.95"
         style="fill:#867bc5;fill-opacity:1;fill-rule:evenodd;stroke:none"
         id="path222" />
      <path
         d="m 4113.27,5723.11 c 32.83,32.6 54.51,73.79 62.25,118.2 -96.46,78.1 -250.66,81.19 -338.92,-5.13 -16.64,-204.39 139.47,-316.29 276.67,-113.07"
         style="fill:#f8a6a5;fill-opacity:1;fill-rule:evenodd;stroke:none"
         id="path224" />
      <path
         d="m 4039.67,5835.42 c -19.35,8.67 -46.73,7.12 -82.2,-4.67 -61.74,-20.39 -131.08,-3.62 -173.07,41.84 -41.99,45.47 -47.5,109.76 -13.75,160.46 22.3,33.5 56.31,53.35 99.16,64.46 173.7,44.84 306.35,7.95 352.43,-76.67 l -0.37,-2.31 c -3.44,-15.71 -5.33,-31.99 -5.45,-48.7 -0.73,-5.94 -1.22,-11.94 -1.5,-18.01 -1.46,-9.41 -2.39,-19 -2.7,-28.75 -0.54,-1.86 -1.07,-3.14 -1.83,-4.91 -2.21,-1.48 -4.38,-2.99 -6.53,-4.53 -2.78,-1.74 -5.5,-3.56 -8.31,-5.26 -5.6,-2.66 -11.1,-5.44 -16.51,-8.48 -6.97,-2.83 -13.83,-6 -20.56,-9.52 -7.26,-3.58 -14.39,-7.56 -21.36,-11.95 l -10.35,-5.17 c -10.4,-3.02 -20.14,-6.88 -30.2,-10.76 -14.52,-4.86 -28.67,-11.19 -42.2,-18.97 -5.01,-2.54 -9.91,-5.23 -14.7,-8.1"
         style="fill:#323387;fill-opacity:1;fill-rule:evenodd;stroke:none"
         id="path226" />
      <path
         d="m 4207.92,5835.39 c -67.94,-128.35 -116.13,-129.7 -81.25,-88.64 51.73,64.7 -8.13,108.25 -38.95,34.78 -5.34,-13.1 -12.88,-10.92 -14.65,1.05 -4.8,34.35 -21.54,53.53 -50.24,57.56 21.48,5.77 42.46,14.7 62.29,26.91 20.71,10.81 40.15,24.92 57.57,42.31 l 4.16,4.16 c 18.31,18.3 33.6,39.62 45.1,63.14 9.47,18.41 16.57,38.24 20.91,59.07 35.71,-49.74 37.92,-119.37 -4.94,-200.34"
         style="fill:#272961;fill-opacity:1;fill-rule:evenodd;stroke:none"
         id="path228" />
      <path
         d="m 1490.45,1276.87 c 80.95,11.64 137.3,71.14 216.36,166.66 85.86,61.77 168.98,-63.07 33.57,-158.68 -21.89,-13.17 -36.45,-31.02 -43.65,-53.58 -21.59,-32.2 -56.71,-52.78 -95.36,-55.88 -38.65,-3.09 -76.6,11.64 -103.04,40.01 -7.17,19.64 -9.86,40.65 -7.88,61.47"
         style="fill:#161725;fill-opacity:1;fill-rule:evenodd;stroke:none"
         id="path230" />
      <path
         d="m 2022.53,1124.1 c 131.33,59.3 197,88.95 197,88.95 189.49,32.35 242.06,-25.21 218.8,-78.22 -21.47,-50.94 -99.74,-76.38 -244.87,-68.02 0,0 1.14,-10.21 3.4,-30.62 -44.14,-22.11 -93.92,-30.42 -142.84,-23.79 -23.46,32.29 -34.62,71.91 -31.49,111.7"
         style="fill:#1b1c42;fill-opacity:1;fill-rule:evenodd;stroke:none"
         id="path232" />
      <path
         d="m 1540.86,2401.12 c 63.66,38.66 112.27,38.18 145.81,-1.41 0,0 -14.86,-56.46 -44.57,-169.39 -70.6,24.99 -113.21,96.88 -101.24,170.8"
         style="fill:#f8a6a5;fill-opacity:1;fill-rule:evenodd;stroke:none"
         id="path234" />
      <path
         d="m 1926.54,2265.18 c 55.88,76.6 40.04,183.86 -35.6,241.03 -75.63,57.18 -183.14,43.18 -241.6,-31.46 -111.19,-803.57 -166.78,-1205.35 -166.78,-1205.35 36.7,-41.13 121.37,-53.44 207.33,22.24 157.77,649.03 236.65,973.54 236.65,973.54"
         style="fill:#1b1e40;fill-opacity:1;fill-rule:evenodd;stroke:none"
         id="path236" />
      <path
         d="m 1866.77,2407.69 c 124.48,60.41 241.66,68.69 351.57,24.83 0,0 0.4,-414.08 1.22,-1242.26 -47.79,-62.73 -140.45,-104.5 -197.03,-66.16 0,0 -51.92,427.87 -155.76,1283.59"
         style="fill:#272961;fill-opacity:1;fill-rule:evenodd;stroke:none"
         id="path238" />
      <path
         d="m 1649.34,2395.04 c 94.18,302.28 19.08,631.85 -196.76,863.49 29.07,-337.87 43.54,-617.26 43.41,-838.17 46.55,-26.21 100.85,-35.17 153.35,-25.32"
         style="fill:#867bc5;fill-opacity:1;fill-rule:evenodd;stroke:none"
         id="path240" />
      <path
         d="m 2063.85,3237.87 c -1.28,-218.24 52.54,-432.13 161.43,-641.68 46.23,-210.32 32.1,-248.66 -64.18,-258.25 -147.15,-19.45 -296.36,-17.12 -442.84,6.92 -68.4,11.93 -104.79,89.33 -110.84,248.81 -7.73,117.21 -58.38,333.93 -151.94,650.14 -27.05,123.81 25.12,178.84 156.48,165.08 143.75,-64.87 252.87,-89.67 327.35,-74.39 49.83,-11.78 91.35,-43.98 124.54,-96.63"
         style="fill:#5e54ae;fill-opacity:1;fill-rule:evenodd;stroke:none"
         id="path242" />
      <path
         d="m 2319.42,2319.92 701.09,402.36 c 6.51,3.73 12.42,3.54 16.67,0.22 v 0 c 83.5,-48.5 120.27,-69.59 110.29,-63.24 -46.15,-52.6 -80.67,-84.28 -103.58,-95.08 v -289.51 c 0,-17.09 -10.52,-37.11 -23.38,-44.49 l -566.47,-325.09 c 8.66,-17.23 -5.36,-63.6 -42.05,-139.14 0,0 -35.11,19.87 -105.33,59.62 l 0.01,0.01 c -6.39,1.89 -10.62,9.06 -10.62,19.9 v 429.95 c 0,17.09 10.51,37.11 23.37,44.49"
         style="fill:#f08f47;fill-opacity:1;fill-rule:evenodd;stroke:none"
         id="path244" />
      <path
         d="m 2431.14,2255.72 701.1,402.35 c 12.85,7.38 23.38,-0.57 23.38,-17.66 v -429.95 c 0,-17.09 -10.53,-37.11 -23.38,-44.48 l -701.1,-402.36 c -12.85,-7.38 -23.37,0.56 -23.37,17.65 v 429.95 c 0,17.1 10.52,37.11 23.37,44.5"
         style="fill:#d14724;fill-opacity:1;fill-rule:evenodd;stroke:none"
         id="path246" />
      <path
         d="m 2548.61,2329.78 58.37,33.38 c 8.56,4.89 15.54,-0.38 15.54,-11.73 v -229.74 c 0,-11.35 -6.98,-24.62 -15.54,-29.5 l -58.37,-33.39 c -8.54,-4.88 -15.53,0.39 -15.53,11.73 v 229.75 c 0,11.34 6.99,24.61 15.53,29.5"
         style="fill:#612a2e;fill-opacity:1;fill-rule:evenodd;stroke:none"
         id="path248" />
      <path
         d="m 2982.32,2575.66 58.37,33.38 c 8.55,4.89 15.54,-0.39 15.54,-11.73 v -229.74 c 0,-11.35 -6.99,-24.62 -15.54,-29.5 l -58.37,-33.39 c -8.55,-4.88 -15.54,0.39 -15.54,11.74 v 229.74 c 0,11.33 6.99,24.6 15.54,29.5"
         style="fill:#612a2e;fill-opacity:1;fill-rule:evenodd;stroke:none"
         id="path250" />
      <path
         d="m 2596.32,2556.3 182.5,104.75 c 1.7,0.96 3.24,0.92 4.35,0.05 21.73,-12.63 31.3,-18.11 28.71,-16.46 -12.02,-13.7 -21,-21.94 -26.97,-24.74 v -75.38 c 0,-4.45 -2.74,-9.65 -6.09,-11.58 l -147.46,-84.63 c 2.25,-4.48 -1.39,-16.55 -10.94,-36.22 0,0 -9.14,5.18 -27.42,15.52 v 0.01 c -1.66,0.49 -2.76,2.35 -2.76,5.18 v 111.92 c 0,4.45 2.73,9.66 6.08,11.58"
         style="fill:#dc5a28;fill-opacity:1;fill-rule:evenodd;stroke:none"
         id="path252" />
      <path
         d="m 2625.4,2539.59 182.51,104.74 c 3.35,1.92 6.09,-0.15 6.09,-4.6 v -111.92 c 0,-4.45 -2.74,-9.66 -6.09,-11.59 L 2625.4,2411.49 c -3.35,-1.93 -6.08,0.14 -6.08,4.59 v 111.93 c 0,4.44 2.73,9.66 6.08,11.58"
         style="fill:#612a2e;fill-opacity:1;fill-rule:evenodd;stroke:none"
         id="path254" />
      <path
         d="m 2048.95,3126.29 c 10.9,-172.38 59.59,-341.79 146.07,-508.2 42.5,-193.37 29.51,-228.62 -59.02,-237.44 -36.14,-4.79 -72.43,-8.13 -108.76,-10.05 l -142.39,792.2 c -19.94,148.45 167.75,-36.51 136.78,-36.51 h 27.32"
         style="fill:#323387;fill-opacity:1;fill-rule:evenodd;stroke:none"
         id="path256" />
      <path
         d="m 1890.79,3360.68 c -36.01,-24.79 -80.62,-33.68 -123.38,-24.6 -42.76,9.07 -79.9,35.33 -102.73,72.6 -17.57,0.31 -35.15,0.38 -52.72,0.21 13.65,-71.51 68.35,-128.14 139.34,-144.28 70.99,-16.14 144.8,11.3 188.01,69.89 -14.48,11.55 -30.92,20.42 -48.52,26.18"
         style="fill:#867bc5;fill-opacity:1;fill-rule:evenodd;stroke:none"
         id="path258" />
      <path
         d="m 1906.08,3451.37 c -73.52,-25.62 -153.58,-25.4 -226.97,0.61 0,0 -5.94,-17.83 -17.83,-53.49 14.13,-44.09 49.84,-75.94 95.95,-85.6 46.11,-9.66 96.99,4.06 136.71,36.85 -14.32,45.47 -10.28,79.34 12.14,101.63"
         style="fill:#f8a6a5;fill-opacity:1;fill-rule:evenodd;stroke:none"
         id="path260" />
      <path
         d="m 1901.16,3737.18 c -64.59,-23.64 -109.29,-83 -114.17,-151.62 -4.88,-68.61 30.98,-133.69 91.58,-166.24 89.95,29.12 153.48,154.67 22.59,317.86"
         style="fill:#f8a6a5;fill-opacity:1;fill-rule:evenodd;stroke:none"
         id="path262" />
      <path
         d="m 1790.62,3383.77 c 93.08,4.31 125.36,69.78 70.02,92.64 -89.28,35.32 -35.34,139.27 41.02,88.52 15.35,-9.76 19.66,4.89 11.16,19.59 -21.2,36.44 -24.62,79 -10.27,127.7 57.77,199.23 -103.46,269.75 -295.59,61.57 -62.98,-69.95 -77.87,-170.87 -37.77,-256.03 40.1,-85.17 127.37,-137.98 221.43,-133.99"
         style="fill:#323387;fill-opacity:1;fill-rule:evenodd;stroke:none"
         id="path264" />
      <path
         d="m 2607.94,2691.88 c -6.69,-61.52 -10.04,-92.26 -10.04,-92.26 29.17,-27.73 46.46,-47.39 51.86,-58.99 2.43,-24.04 11.98,-29.79 29.26,-24.12 107.91,33.01 142.02,98.34 84.36,150.12 -44.02,34.58 -102.72,44.12 -155.44,25.25"
         style="fill:#f8a6a5;fill-opacity:1;fill-rule:evenodd;stroke:none"
         id="path266" />
      <path
         d="m 2613.28,2725.41 c 16.38,-26.29 19.77,-58.65 9.21,-87.77 -10.56,-29.12 -33.9,-51.78 -63.33,-61.47 0,0 -100.92,4.93 -302.76,14.77 -67.72,6.26 -131.46,44.71 -169.03,121.68 0,0 -50.82,105.19 -152.47,315.56 -116.35,246.45 145.45,311.96 230.79,84.91 73.05,-201.64 109.57,-302.46 109.57,-302.46 8.48,-25.36 25.78,-42.07 50.7,-45.77 191.55,-26.3 287.32,-39.45 287.32,-39.45"
         style="fill:#867bc5;fill-opacity:1;fill-rule:evenodd;stroke:none"
         id="path268" />
      <path
         d="m 46.2578,3239.17 979.1522,548.88 c 11.22,6.28 21.54,6.74 29.58,2.43 v 0 l 0.1,-0.06 c 0.76,-0.41 1.49,-0.86 2.21,-1.35 l 79.57,-48.82 c -3.49,-24.96 -18.21,-46.73 -43.23,-49.63 -7.56,-0.87 -15.01,-0.17 -21.97,1.88 V 2275.49 c 0,-33.44 -20.81,-72.46 -46.26,-86.73 L 113.262,1677.45 c 6.426,-6.15 11.496,-13.85 14.551,-22.73 9.023,-26.19 -1.973,-55.09 -26.125,-68.65 8.917,-5.14 -19.5396,12.06 -85.3716,51.59 v 0 C 6.34766,1643.25 0,1656.29 0,1674.76 v 1477.69 c 0,33.44 20.8164,72.46 46.2578,86.72"
         style="fill:#323387;fill-opacity:1;fill-rule:evenodd;stroke:none"
         id="path270" />
      <path
         d="m 132.301,3187.2 979.149,548.86 c 25.45,14.27 46.26,-1.42 46.26,-34.86 V 2223.51 c 0,-33.44 -20.81,-72.47 -46.26,-86.73 L 132.301,1587.91 c -25.446,-14.25 -46.258,1.43 -46.258,34.87 v 1477.69 c 0,33.44 20.812,72.46 46.258,86.73"
         style="fill:#5f67ba;fill-opacity:1;fill-rule:evenodd;stroke:none"
         id="path272" />
      <path
         d="m 207.578,3134.17 828.592,464.47 c 21.54,12.07 39.15,-1.21 39.15,-29.5 V 2263.2 c 0,-28.29 -17.61,-61.32 -39.15,-73.39 L 207.578,1725.34 c -21.531,-12.08 -39.144,1.2 -39.144,29.5 v 1305.94 c 0,28.3 17.613,61.32 39.144,73.39"
         style="fill:#ffffff;fill-opacity:1;fill-rule:evenodd;stroke:none"
         id="path274" />
      <path
         d="m 372.555,3448.77 117.211,65.71 c 3.039,61.53 52.511,136.84 113.101,170.81 60.586,33.96 110.059,14.12 113.098,-44.02 l 113.75,63.77 c 3.039,1.71 5.762,1.76 7.48,0.47 l 0.051,-0.04 c 19.734,-14.17 29.883,-21.31 30.445,-21.43 -12.937,-17.11 -22.461,-26.83 -28.574,-29.16 v -153.09 c 0,-5.18 -4.226,-11.78 -9.402,-14.68 L 404.352,3248.67 c -0.164,-8.24 -3.032,-21.53 -8.598,-39.9 -7.609,4.75 -17.379,11.73 -29.313,20.92 -2.015,0.6 -3.289,2.44 -3.289,5.29 v 199.12 c 0,5.17 4.227,11.77 9.403,14.67"
         style="fill:#d14724;fill-opacity:1;fill-rule:evenodd;stroke:none"
         id="path276" />
      <path
         d="m 403.152,3427.23 117.211,65.7 c 3.043,61.55 52.516,136.85 113.102,170.81 60.59,33.97 110.062,14.12 113.098,-44.01 l 113.75,63.76 c 5.171,2.9 9.406,1.04 9.406,-4.13 v -199.12 c 0,-5.17 -4.235,-11.78 -9.406,-14.68 L 403.152,3209.3 c -5.172,-2.9 -9.406,-1.04 -9.406,4.13 v 199.12 c 0,5.18 4.234,11.78 9.406,14.68"
         style="fill:#fbd028;fill-opacity:1;fill-rule:evenodd;stroke:none"
         id="path278" />
      <path
         d="m 633.465,3609.29 c 32.469,18.19 58.789,6.63 58.789,-25.84 0,-32.47 -26.32,-73.54 -58.789,-91.74 -32.469,-18.2 -58.785,-6.63 -58.785,25.83 0,32.47 26.316,73.54 58.785,91.75"
         style="fill:#ffffff;fill-opacity:1;fill-rule:evenodd;stroke:none"
         id="path280" />
      <path
         d="m 280.66,3016.59 375.856,210.69 c 10.429,5.85 18.964,-0.58 18.964,-14.29 v -0.01 c 0,-13.71 -8.535,-29.71 -18.964,-35.56 L 280.66,2966.73 c -10.43,-5.84 -18.965,0.6 -18.965,14.3 v 0.01 c 0,13.71 8.535,29.71 18.965,35.55"
         style="fill:#7a7b7c;fill-opacity:1;fill-rule:evenodd;stroke:none"
         id="path282" />
      <path
         d="m 280.66,2921.35 687.774,385.54 c 10.433,5.85 18.968,-0.59 18.968,-14.29 v -0.01 c 0,-13.71 -8.535,-29.72 -18.968,-35.57 L 280.66,2871.5 c -10.43,-5.86 -18.965,0.57 -18.965,14.28 v 0.01 c 0,13.71 8.535,29.71 18.965,35.56"
         style="fill:#b1b1b0;fill-opacity:1;fill-rule:evenodd;stroke:none"
         id="path284" />
      <path
         d="m 280.66,2820.52 687.774,385.53 c 10.433,5.85 18.968,-0.58 18.968,-14.29 v -0.01 c 0,-13.71 -8.535,-29.71 -18.968,-35.56 L 280.66,2770.66 c -10.43,-5.85 -18.965,0.58 -18.965,14.28 v 0.01 c 0,13.72 8.535,29.72 18.965,35.57"
         style="fill:#b1b1b0;fill-opacity:1;fill-rule:evenodd;stroke:none"
         id="path286" />
      <path
         d="m 280.66,2538.3 375.856,210.69 c 10.429,5.85 18.964,-0.58 18.964,-14.29 v -0.01 c 0,-13.71 -8.535,-29.71 -18.964,-35.56 L 280.66,2488.45 c -10.43,-5.85 -18.965,0.59 -18.965,14.29 v 0.01 c 0,13.71 8.535,29.71 18.965,35.55"
         style="fill:#7a7b7c;fill-opacity:1;fill-rule:evenodd;stroke:none"
         id="path288" />
      <path
         d="m 280.66,2443.06 687.774,385.54 c 10.433,5.85 18.968,-0.59 18.968,-14.3 v 0 c 0,-13.72 -8.535,-29.72 -18.968,-35.56 L 280.66,2393.2 c -10.43,-5.84 -18.965,0.59 -18.965,14.29 v 0.01 c 0,13.71 8.535,29.71 18.965,35.56"
         style="fill:#b1b1b0;fill-opacity:1;fill-rule:evenodd;stroke:none"
         id="path290" />
      <path
         d="m 280.66,2342.22 687.774,385.54 c 10.433,5.85 18.968,-0.58 18.968,-14.29 v -0.01 c 0,-13.71 -8.535,-29.71 -18.968,-35.56 L 280.66,2292.37 c -10.43,-5.85 -18.965,0.58 -18.965,14.29 v 0.01 c 0,13.7 8.535,29.71 18.965,35.55"
         style="fill:#b1b1b0;fill-opacity:1;fill-rule:evenodd;stroke:none"
         id="path292" />
      <path
         d="m 280.66,2058.56 224.215,125.68 c 10.43,5.85 18.965,-0.58 18.965,-14.29 v -0.01 c 0,-13.71 -8.535,-29.71 -18.965,-35.55 L 280.66,2008.7 c -10.43,-5.85 -18.965,0.59 -18.965,14.29 v 0.01 c 0,13.71 8.535,29.71 18.965,35.56"
         style="fill:#7a7b7c;fill-opacity:1;fill-rule:evenodd;stroke:none"
         id="path294" />
      <path
         d="m 280.66,1963.72 168.977,94.72 c 10.433,5.85 18.965,-0.59 18.965,-14.3 v -0.01 c 0,-13.71 -8.532,-29.7 -18.965,-35.55 L 280.66,1913.86 c -10.43,-5.85 -18.965,0.59 -18.965,14.3 v 0.01 c 0,13.7 8.535,29.7 18.965,35.55"
         style="fill:#b1b1b0;fill-opacity:1;fill-rule:evenodd;stroke:none"
         id="path296" />
      <path
         d="m 280.66,2720.32 687.774,385.53 c 10.433,5.85 18.968,-0.59 18.968,-14.29 v -0.01 c 0,-13.71 -8.535,-29.71 -18.968,-35.56 L 280.66,2670.45 c -10.43,-5.85 -18.965,0.59 -18.965,14.3 v 0.01 c 0,13.7 8.535,29.71 18.965,35.56"
         style="fill:#b1b1b0;fill-opacity:1;fill-rule:evenodd;stroke:none"
         id="path298" />
      <path
         d="m 280.66,2240.25 687.774,385.54 c 10.433,5.84 18.968,-0.59 18.968,-14.29 v -0.01 c 0,-13.71 -8.535,-29.71 -18.968,-35.56 L 280.66,2190.39 c -10.43,-5.85 -18.965,0.59 -18.965,14.3 v 0.01 c 0,13.7 8.535,29.7 18.965,35.55"
         style="fill:#b1b1b0;fill-opacity:1;fill-rule:evenodd;stroke:none"
         id="path300" />
      <path
         d="m 2841.21,5095.2 -491.78,-281.16 c -31.61,-18.08 -58.89,-59.53 -70.42,-102.69 l -0.07,-0.25 -0.12,-0.41 c -0.34,-1.32 -0.68,-2.65 -1,-3.98 l -0.02,-0.09 -0.14,-0.58 c -0.3,-1.28 -0.59,-2.57 -0.86,-3.85 l -0.01,-0.05 -0.02,-0.08 -0.42,-2 -0.03,-0.16 -0.36,-1.83 -0.07,-0.42 c -1.8,-9.6 -2.76,-19.19 -2.76,-28.51 v -600.56 c 0,-30.69 10.43,-52.34 26.8,-61.58 v 0 c -2.05,1.16 31.78,-17.92 101.49,-57.27 18.44,18.06 23.44,45.8 12.46,69.15 -3.71,7.9 -8.98,14.71 -15.31,20.16 l 442.64,253.08 c 9.25,5.29 18.14,12.59 26.35,21.34 h 0.01 l 0.17,0.19 0.62,0.66 0.56,0.61 0.06,0.06 0.61,0.68 0.62,0.68 0.05,0.07 0.55,0.62 0.61,0.69 0.18,0.21 0.42,0.49 0.6,0.7 0.6,0.71 0.6,0.71 0.59,0.72 0.59,0.72 0.52,0.64 0.07,0.09 0.58,0.73 0.58,0.74 0.05,0.06 0.54,0.68 0.57,0.75 0.15,0.2 0.42,0.55 0.56,0.76 0.27,0.34 0.3,0.41 0.57,0.77 0.55,0.77 0.56,0.78 c 21.71,30.31 36.23,70.54 36.23,106.76 v 570.2 c 6.24,-1.73 12.83,-2.45 19.53,-2.02 23.25,1.52 43.39,16.67 51.3,38.59 -0.49,0.24 -32.09,18.11 -94.81,53.62 -1.81,1.23 -3.7,2.3 -5.67,3.2 l -0.07,0.04 v -0.01 c -12.91,5.9 -29.09,4.59 -46.59,-5.43"
         style="fill:#d14724;fill-opacity:1;fill-rule:evenodd;stroke:none"
         id="path302" />
      <path
         d="m 2938.81,5039.85 -491.78,-281.17 c -31.61,-18.08 -58.88,-59.53 -70.42,-102.68 l -0.07,-0.25 -0.01,-0.05 -0.27,-1.03 -0.17,-0.66 -0.13,-0.5 -0.04,-0.16 -0.49,-1.99 -0.02,-0.09 -0.14,-0.58 -0.3,-1.27 -0.01,-0.06 -0.08,-0.33 -0.07,-0.34 -0.15,-0.66 -0.14,-0.67 -0.13,-0.58 -0.02,-0.08 c -0.29,-1.33 -0.55,-2.66 -0.8,-3.99 l -0.08,-0.41 c -1.79,-9.62 -2.76,-19.2 -2.76,-28.51 v -600.57 c 0,-55.7 34.34,-81.63 76.3,-57.63 l 491.78,281.18 c 9.26,5.28 18.13,12.58 26.36,21.33 v -0.01 l 0.17,0.2 0.63,0.66 v 0.02 c 0.83,0.88 1.64,1.78 2.44,2.7 l 0.61,0.69 0.6,0.7 0.61,0.7 0.59,0.71 0.6,0.71 c 0.79,0.96 1.57,1.92 2.35,2.9 l 0.59,0.74 0.57,0.74 0.58,0.75 0.51,0.66 0.07,0.09 0.56,0.76 0.57,0.76 0.55,0.76 0.57,0.77 0.56,0.78 0.48,0.66 0.07,0.12 c 21.4,30.22 35.67,70.08 35.67,105.98 v 600.57 c 0,55.7 -34.34,81.63 -76.31,57.63"
         style="fill:#fbd028;fill-opacity:1;fill-rule:evenodd;stroke:none"
         id="path304" />
      <path
         d="m 2823.05,4857.18 -209.28,-677.09 -51.05,-29.16 209.28,677.1 z m -155.74,-190.82 v -92.25 c 0,-24.11 -2.27,-43.52 -6.8,-58.21 -4.52,-14.58 -14.26,-30.68 -29.19,-48.14 -14.95,-17.48 -34.64,-33.26 -59.2,-47.28 -28.3,-16.18 -49.8,-24.15 -64.64,-24.13 -14.82,0.01 -24.78,4.62 -29.99,13.54 -5.2,9.03 -7.81,24.63 -7.81,47.04 v 96.55 c 0,26.48 2.72,47.73 8.15,63.51 5.43,15.89 15.85,32.14 31.36,48.92 15.39,16.83 34.52,31.72 57.27,44.71 25.24,14.42 45.73,21.71 61.34,21.92 15.74,0.26 26.26,-4.25 31.59,-13.66 5.32,-9.3 7.92,-26.83 7.92,-52.52 z m -84.89,-24.72 c 0,14.15 -0.68,22.47 -2.16,25.03 -1.35,2.51 -5.32,1.94 -11.66,-1.68 -5.88,-3.36 -9.6,-7.31 -11.42,-11.86 -1.71,-4.47 -2.61,-13.7 -2.61,-27.39 v -135.83 c 0,-15.51 0.79,-24.34 2.27,-26.67 1.58,-2.15 5.54,-1.47 12.11,2.28 5.77,3.3 9.39,7.18 10.97,11.59 1.7,4.48 2.5,13.31 2.5,26.44 z m 333.44,-92.63 v -92.47 c 0,-23.88 -2.26,-43.17 -6.79,-57.98 -4.53,-14.7 -14.25,-30.77 -29.2,-48.26 -14.94,-17.48 -34.63,-33.25 -59.19,-47.27 -28.07,-16.04 -49.59,-24.02 -64.53,-23.96 -14.82,0.14 -24.89,4.68 -30.09,13.71 -5.21,8.9 -7.82,24.4 -7.82,46.58 v 96.78 c 0,26.26 2.72,47.39 8.15,63.16 5.43,15.79 15.85,32.15 31.36,49.05 15.39,16.82 34.52,31.82 57.26,44.82 25.47,14.54 46.07,21.89 61.7,21.99 15.72,0.16 26.13,-4.54 31.35,-13.89 5.2,-9.49 7.8,-26.9 7.8,-52.26 z m -84.88,-25.16 c 0,14.15 -0.69,22.58 -2.15,25.14 -1.48,2.66 -5.32,2.17 -11.78,-1.52 -5.99,-3.42 -9.73,-7.37 -11.43,-11.85 -1.7,-4.48 -2.48,-13.76 -2.48,-27.67 v -135.83 c 0,-15.28 0.78,-24 2.26,-26.33 1.57,-2.15 5.54,-1.47 11.99,2.22 6,3.42 9.74,7.25 11.32,11.67 1.48,4.23 2.27,13.06 2.27,26.42 v 137.75"
         style="fill:#ffffff;fill-opacity:1;fill-rule:nonzero;stroke:none"
         id="path306" />
    </g>
  </g>
</svg>
